jomhuria-latin.ufo
<glyph name="exclam" format="1">
  <advance width="505"/>
  <unicode hex="0021"/>
  <outline>
    <contour>
      <point x="217.705" y="370.168" type="curve" smooth="yes"/>
      <point x="319.667" y="370.168"/>
      <point x="402.789" y="287.324"/>
      <point x="402.789" y="185.084" type="curve" smooth="yes"/>
      <point x="402.789" y="82.8447"/>
      <point x="319.944" y="0"/>
      <point x="217.705" y="0" type="curve" smooth="yes"/>
      <point x="115.465" y="0"/>
      <point x="32.6201" y="82.8447"/>
      <point x="32.6201" y="185.084" type="curve" smooth="yes"/>
      <point x="32.6201" y="287.324"/>
      <point x="115.465" y="370.168"/>
    </contour>
    <contour>
      <point x="394.755" y="1216.88" type="curve" smooth="yes"/>
      <point x="462.082" y="1132.1"/>
      <point x="426.895" y="1012.41"/>
      <point x="418.859" y="989.409" type="curve" smooth="yes"/>
      <point x="345.436" y="772.185"/>
      <point x="321.33" y="592.087"/>
      <point x="316.896" y="500.376" type="curve"/>
      <point x="116.019" y="500.376" type="line"/>
      <point x="111.586" y="592.087"/>
      <point x="89.1436" y="772.462"/>
      <point x="15.9961" y="989.132" type="curve" smooth="yes"/>
      <point x="8.2373" y="1012.68"/>
      <point x="-26.6729" y="1132.66"/>
      <point x="40.3789" y="1216.88" type="curve" smooth="yes"/>
      <point x="78.6143" y="1265.1"/>
      <point x="138.462" y="1289.48"/>
      <point x="217.428" y="1289.48" type="curve" smooth="yes"/>
      <point x="296.671" y="1289.48"/>
      <point x="356.241" y="1265.1"/>
    </contour>
  </outline>
</glyph>
<glyph name="quotedbl" format="1">
  <advance width="623"/>
  <unicode hex="0022"/>
  <outline>
    <contour>
      <point x="159.889" y="1768.81" type="curve" smooth="yes"/>
      <point x="213.918" y="1768.81"/>
      <point x="242.732" y="1744.98"/>
      <point x="257.418" y="1725.31" type="curve" smooth="yes"/>
      <point x="293.991" y="1675.44"/>
      <point x="275.428" y="1606.45"/>
      <point x="271.271" y="1593.15" type="curve" smooth="yes"/>
      <point x="230.819" y="1463.48"/>
      <point x="224.724" y="1359.58"/>
      <point x="224.17" y="1320.79" type="curve" smooth="yes"/>
      <point x="223.614" y="1289.48" type="line"/>
      <point x="96.1621" y="1289.48" type="line"/>
      <point x="95.6074" y="1320.79" type="line" smooth="yes"/>
      <point x="95.0537" y="1359.58"/>
      <point x="88.958" y="1463.48"/>
      <point x="48.5059" y="1592.87" type="curve" smooth="yes"/>
      <point x="44.3486" y="1606.17"/>
      <point x="25.5088" y="1674.88"/>
      <point x="62.3594" y="1725.04" type="curve" smooth="yes"/>
      <point x="77.0439" y="1744.98"/>
      <point x="106.137" y="1768.81"/>
    </contour>
    <contour>
      <point x="561.089" y="1725.04" type="curve" smooth="yes"/>
      <point x="597.939" y="1675.16"/>
      <point x="579.1" y="1606.17"/>
      <point x="574.942" y="1593.15" type="curve" smooth="yes"/>
      <point x="534.49" y="1463.48"/>
      <point x="528.395" y="1359.58"/>
      <point x="527.84" y="1320.79" type="curve" smooth="yes"/>
      <point x="527.286" y="1289.48" type="line"/>
      <point x="399.833" y="1289.48" type="line"/>
      <point x="399.278" y="1320.79" type="line" smooth="yes"/>
      <point x="398.725" y="1359.58"/>
      <point x="392.629" y="1463.48"/>
      <point x="352.177" y="1592.87" type="curve" smooth="yes"/>
      <point x="348.021" y="1606.17"/>
      <point x="329.18" y="1674.88"/>
      <point x="366.03" y="1725.04" type="curve" smooth="yes"/>
      <point x="380.716" y="1744.98"/>
      <point x="409.808" y="1768.81"/>
      <point x="463.56" y="1768.81" type="curve" smooth="yes"/>
      <point x="517.312" y="1768.81"/>
      <point x="546.404" y="1744.98"/>
    </contour>
  </outline>
</glyph>
<glyph name="numbersign" format="1">
  <advance width="1275"/>
  <unicode hex="0023"/>
  <outline>
    <contour>
      <point x="718" y="546" type="line"/>
      <point x="767" y="740" type="line"/>
      <point x="547" y="740" type="line"/>
      <point x="497" y="546" type="line"/>
    </contour>
    <contour>
      <point x="1185" y="740" type="line"/>
      <point x="968" y="740" type="line"/>
      <point x="918" y="546" type="line"/>
      <point x="1135" y="546" type="line"/>
      <point x="1084" y="344" type="line"/>
      <point x="867" y="344" type="line"/>
      <point x="780" y="0" type="line"/>
      <point x="580" y="0" type="line"/>
      <point x="667" y="344" type="line"/>
      <point x="446" y="344" type="line"/>
      <point x="359" y="0" type="line"/>
      <point x="159" y="0" type="line"/>
      <point x="246" y="344" type="line"/>
      <point x="40" y="344" type="line"/>
      <point x="91" y="546" type="line"/>
      <point x="297" y="546" type="line"/>
      <point x="346" y="740" type="line"/>
      <point x="140" y="740" type="line"/>
      <point x="191" y="942" type="line"/>
      <point x="397" y="942" type="line"/>
      <point x="484" y="1289" type="line"/>
      <point x="685" y="1289" type="line"/>
      <point x="598" y="942" type="line"/>
      <point x="818" y="942" type="line"/>
      <point x="906" y="1289" type="line"/>
      <point x="1106" y="1289" type="line"/>
      <point x="1019" y="942" type="line"/>
      <point x="1236" y="942" type="line"/>
    </contour>
  </outline>
</glyph>
<glyph name="percent" format="1">
  <advance width="1095"/>
  <unicode hex="0025"/>
  <outline>
    <contour>
      <point x="248.232" y="696.882" type="curve" smooth="yes"/>
      <point x="186.611" y="696.882"/>
      <point x="132.89" y="735.967"/>
      <point x="94.8857" y="792.1" type="curve" smooth="yes"/>
      <point x="60.873" y="842.329"/>
      <point x="40" y="908.357"/>
      <point x="40" y="980.872" type="curve" smooth="yes"/>
      <point x="40" y="1059.62"/>
      <point x="61.04" y="1131.31"/>
      <point x="95.4678" y="1185.86" type="curve" smooth="yes"/>
      <point x="133.971" y="1246.98"/>
      <point x="184.116" y="1289.48"/>
      <point x="251.143" y="1289.48" type="curve" smooth="yes"/>
      <point x="316.84" y="1289.48"/>
      <point x="366.485" y="1250.14"/>
      <point x="404.489" y="1194.09" type="curve" smooth="yes"/>
      <point x="438.502" y="1143.87"/>
      <point x="459.375" y="1077.84"/>
      <point x="459.375" y="1005.32" type="curve" smooth="yes"/>
      <point x="459.375" y="926.569"/>
      <point x="438.252" y="854.885"/>
      <point x="403.907" y="800.333" type="curve" smooth="yes"/>
      <point x="365.404" y="739.211"/>
      <point x="309.937" y="696.882"/>
    </contour>
    <contour>
      <point x="212.474" y="1162.58" type="curve" smooth="yes"/>
      <point x="212.474" y="823.617" type="line" smooth="yes"/>
      <point x="212.474" y="802.91"/>
      <point x="229.189" y="786.196"/>
      <point x="249.729" y="786.196" type="curve" smooth="yes"/>
      <point x="270.271" y="786.196"/>
      <point x="286.984" y="802.993"/>
      <point x="286.984" y="823.617" type="curve" smooth="yes"/>
      <point x="286.984" y="1162.58" type="line" smooth="yes"/>
      <point x="286.984" y="1183.28"/>
      <point x="270.271" y="1200"/>
      <point x="249.729" y="1200" type="curve" smooth="yes"/>
      <point x="229.189" y="1200"/>
      <point x="212.474" y="1183.2"/>
    </contour>
    <contour>
      <point x="1000.08" y="497.295" type="curve" smooth="yes"/>
      <point x="1034.09" y="447.067"/>
      <point x="1054.97" y="381.039"/>
      <point x="1054.97" y="308.44" type="curve" smooth="yes"/>
      <point x="1054.97" y="229.688"/>
      <point x="1033.93" y="158.003"/>
      <point x="999.498" y="103.451" type="curve" smooth="yes"/>
      <point x="960.995" y="42.3291"/>
      <point x="905.61" y="0"/>
      <point x="843.823" y="0" type="curve" smooth="yes"/>
      <point x="782.202" y="0"/>
      <point x="728.48" y="39.168"/>
      <point x="690.477" y="95.2178" type="curve" smooth="yes"/>
      <point x="656.464" y="145.447"/>
      <point x="635.591" y="211.476"/>
      <point x="635.591" y="283.99" type="curve" smooth="yes"/>
      <point x="635.591" y="362.743"/>
      <point x="656.631" y="434.427"/>
      <point x="691.059" y="488.979" type="curve" smooth="yes"/>
      <point x="729.562" y="550.102"/>
      <point x="779.707" y="592.597"/>
      <point x="846.733" y="592.597" type="curve" smooth="yes"/>
      <point x="912.431" y="592.597"/>
      <point x="962.076" y="553.346"/>
    </contour>
    <contour>
      <point x="882.492" y="126.901" type="curve" smooth="yes"/>
      <point x="882.492" y="465.861" type="line" smooth="yes"/>
      <point x="882.492" y="486.567"/>
      <point x="865.776" y="503.283"/>
      <point x="845.236" y="503.283" type="curve" smooth="yes"/>
      <point x="824.695" y="503.283"/>
      <point x="807.981" y="486.484"/>
      <point x="807.981" y="465.861" type="curve" smooth="yes"/>
      <point x="807.981" y="126.901" type="line" smooth="yes"/>
      <point x="807.981" y="106.194"/>
      <point x="824.695" y="89.4805"/>
      <point x="845.236" y="89.4805" type="curve" smooth="yes"/>
      <point x="865.859" y="89.4805"/>
      <point x="882.492" y="106.278"/>
    </contour>
    <contour>
      <point x="826.182" y="1289.48" type="line"/>
      <point x="1055.18" y="1289.48" type="line"/>
      <point x="272.182" y="0" type="line"/>
      <point x="42.9941" y="0" type="line"/>
    </contour>
  </outline>
</glyph>
<glyph name="ampersand" format="1">
  <advance width="1322"/>
  <unicode hex="0026"/>
  <outline>
    <contour>
      <point x="1263" y="626" type="line"/>
      <point x="1263" y="372" type="line"/>
      <point x="1094" y="264" type="line"/>
      <point x="1153" y="159" type="line"/>
      <point x="1227" y="159" type="line"/>
      <point x="1227" y="0" type="line"/>
      <point x="765" y="0" type="line"/>
      <point x="722" y="81" type="line"/>
      <point x="722" y="81"/>
      <point x="642" y="-36"/>
      <point x="457" y="-36" type="curve" smooth="yes"/>
      <point x="232" y="-36"/>
      <point x="40" y="86"/>
      <point x="5" y="323" type="curve" smooth="yes"/>
      <point x="-28" y="544"/>
      <point x="119" y="744"/>
      <point x="333" y="780" type="curve"/>
      <point x="197" y="1053"/>
      <point x="359" y="1325"/>
      <point x="656" y="1325" type="curve" smooth="yes"/>
      <point x="959" y="1325"/>
      <point x="1096" y="912"/>
      <point x="805" y="778" type="curve"/>
      <point x="990" y="450" type="line"/>
    </contour>
    <contour>
      <point x="311" y="331" type="curve" smooth="yes"/>
      <point x="413" y="86"/>
      <point x="654" y="195"/>
      <point x="654" y="195" type="curve" smooth="yes"/>
      <point x="402" y="645" type="line"/>
      <point x="341" y="625"/>
      <point x="250" y="479"/>
    </contour>
    <contour>
      <point x="755" y="867" type="line"/>
      <point x="789" y="892"/>
      <point x="827" y="944"/>
      <point x="828" y="994" type="curve" smooth="yes"/>
      <point x="830" y="1057"/>
      <point x="791" y="1117"/>
      <point x="727" y="1119" type="curve" smooth="yes"/>
      <point x="688" y="1120"/>
      <point x="639" y="1085"/>
      <point x="674" y="1012" type="curve"/>
    </contour>
  </outline>
</glyph>
<glyph name="quotesingle" format="1">
  <advance width="383"/>
  <unicode hex="0027"/>
  <outline>
    <contour>
      <point x="100" y="654" type="line"/>
      <point x="274" y="654" type="line"/>
      <point x="323" y="1338" type="line"/>
      <point x="60" y="1338" type="line"/>
    </contour>
  </outline>
</glyph>
<glyph name="parenright" format="1">
  <advance width="592"/>
  <unicode hex="0029"/>
  <outline>
    <contour>
      <point x="229" y="569" type="curve"/>
      <point x="229" y="127"/>
      <point x="133" y="-108"/>
      <point x="21" y="-280" type="curve"/>
      <point x="209" y="-280" type="line"/>
      <point x="315" y="-165"/>
      <point x="502" y="92"/>
      <point x="502" y="569" type="curve" smooth="yes"/>
      <point x="502" y="1046"/>
      <point x="315" y="1303"/>
      <point x="209" y="1418" type="curve"/>
      <point x="21" y="1418" type="line"/>
      <point x="133" y="1246"/>
      <point x="229" y="1011"/>
    </contour>
  </outline>
</glyph>
<glyph name="asterisk" format="1">
  <advance width="989"/>
  <unicode hex="002A"/>
  <outline>
    <contour>
      <point x="769" y="838" type="curve" smooth="yes"/>
      <point x="799" y="832"/>
      <point x="821" y="829"/>
      <point x="835" y="829" type="curve" smooth="yes"/>
      <point x="903" y="829"/>
      <point x="950" y="885"/>
      <point x="950" y="944" type="curve" smooth="yes"/>
      <point x="950" y="1010"/>
      <point x="901" y="1077"/>
      <point x="833" y="1077" type="curve" smooth="yes"/>
      <point x="785" y="1077"/>
      <point x="656" y="982"/>
      <point x="572" y="954" type="curve"/>
      <point x="593" y="997"/>
      <point x="625" y="1045"/>
      <point x="670" y="1095" type="curve" smooth="yes"/>
      <point x="705" y="1134"/>
      <point x="728" y="1165"/>
      <point x="728" y="1210" type="curve" smooth="yes"/>
      <point x="728" y="1275"/>
      <point x="674" y="1325"/>
      <point x="601" y="1325" type="curve" smooth="yes"/>
      <point x="532" y="1325"/>
      <point x="483" y="1274"/>
      <point x="483" y="1202" type="curve" smooth="yes"/>
      <point x="483" y="1203"/>
      <point x="486" y="1113"/>
      <point x="486" y="1105" type="curve" smooth="yes"/>
      <point x="486" y="1067"/>
      <point x="482" y="1028"/>
      <point x="474" y="987" type="curve"/>
      <point x="448" y="1026"/>
      <point x="426" y="1075"/>
      <point x="403" y="1135" type="curve" smooth="yes"/>
      <point x="376" y="1203"/>
      <point x="355" y="1267"/>
      <point x="276" y="1267" type="curve" smooth="yes"/>
      <point x="211" y="1267"/>
      <point x="146" y="1202"/>
      <point x="146" y="1139" type="curve" smooth="yes"/>
      <point x="146" y="1075"/>
      <point x="185" y="1048"/>
      <point x="254" y="1013" type="curve" smooth="yes"/>
      <point x="314" y="982"/>
      <point x="362" y="951"/>
      <point x="397" y="920" type="curve"/>
      <point x="386" y="919"/>
      <point x="375" y="919"/>
      <point x="364" y="919" type="curve" smooth="yes"/>
      <point x="305" y="919"/>
      <point x="191" y="942"/>
      <point x="155" y="942" type="curve" smooth="yes"/>
      <point x="87" y="942"/>
      <point x="40" y="888"/>
      <point x="40" y="828" type="curve" smooth="yes"/>
      <point x="40" y="763"/>
      <point x="87" y="694"/>
      <point x="157" y="694" type="curve" smooth="yes"/>
      <point x="202" y="694"/>
      <point x="347" y="793"/>
      <point x="418" y="817" type="curve"/>
      <point x="397" y="773"/>
      <point x="365" y="727"/>
      <point x="322" y="678" type="curve" smooth="yes"/>
      <point x="286" y="636"/>
      <point x="262" y="608"/>
      <point x="262" y="561" type="curve" smooth="yes"/>
      <point x="262" y="493"/>
      <point x="324" y="446"/>
      <point x="389" y="446" type="curve" smooth="yes"/>
      <point x="458" y="446"/>
      <point x="507" y="497"/>
      <point x="507" y="569" type="curve" smooth="yes"/>
      <point x="507" y="567"/>
      <point x="504" y="658"/>
      <point x="504" y="667" type="curve" smooth="yes"/>
      <point x="504" y="710"/>
      <point x="508" y="750"/>
      <point x="515" y="785" type="curve"/>
      <point x="537" y="751"/>
      <point x="563" y="702"/>
      <point x="586" y="638" type="curve" smooth="yes"/>
      <point x="615" y="555"/>
      <point x="641" y="504"/>
      <point x="714" y="504" type="curve" smooth="yes"/>
      <point x="778" y="504"/>
      <point x="844" y="569"/>
      <point x="844" y="632" type="curve" smooth="yes"/>
      <point x="844" y="696"/>
      <point x="803" y="722"/>
      <point x="737" y="757" type="curve" smooth="yes"/>
      <point x="674" y="790"/>
      <point x="625" y="821"/>
      <point x="592" y="851" type="curve"/>
      <point x="604" y="852"/>
      <point x="617" y="852"/>
      <point x="630" y="852" type="curve" smooth="yes"/>
      <point x="671" y="852"/>
      <point x="717" y="848"/>
    </contour>
  </outline>
</glyph>
<glyph name="plus" format="1">
  <advance width="1148"/>
  <unicode hex="002B"/>
  <outline>
    <contour>
      <point x="1068.04" y="594.597" type="line"/>
      <point x="1068.04" y="393.721" type="line"/>
      <point x="674.599" y="393.721" type="line"/>
      <point x="674.599" y="0" type="line"/>
      <point x="473.443" y="0" type="line"/>
      <point x="473.443" y="393.721" type="line"/>
      <point x="80" y="393.721" type="line"/>
      <point x="80" y="594.597" type="line"/>
      <point x="473.443" y="594.597" type="line"/>
      <point x="473.443" y="986.5" type="line"/>
      <point x="674.599" y="986.5" type="line"/>
      <point x="674.599" y="594.597" type="line"/>
    </contour>
  </outline>
</glyph>
<glyph name="comma" format="1">
  <advance width="415"/>
  <unicode hex="002C"/>
  <outline>
    <contour>
      <point x="180" y="345" type="line"/>
      <point x="16" y="181" type="line"/>
      <point x="16" y="146" type="line"/>
      <point x="157" y="4" type="line"/>
      <point x="138" y="-95"/>
      <point x="73" y="-170"/>
      <point x="42" y="-197" type="curve"/>
      <point x="180" y="-248" type="line"/>
      <point x="326" y="-122"/>
      <point x="389" y="46"/>
      <point x="389" y="146" type="curve" smooth="yes"/>
      <point x="389" y="181" type="line"/>
      <point x="218" y="345" type="line"/>
    </contour>
  </outline>
</glyph>
<glyph name="hyphen" format="1">
  <advance width="1148"/>
  <unicode hex="002D"/>
  <outline>
    <contour>
      <point x="1068.04" y="594.597" type="line"/>
      <point x="1068.04" y="393.721" type="line"/>
      <point x="80" y="393.721" type="line"/>
      <point x="80" y="594.597" type="line"/>
    </contour>
  </outline>
</glyph>
<glyph name="period" format="1">
  <advance width="409"/>
  <unicode hex="002E"/>
  <outline>
    <contour>
      <point x="204.581" y="329.162" type="curve" smooth="yes"/>
      <point x="295.461" y="329.162"/>
      <point x="369.162" y="255.461"/>
      <point x="369.162" y="164.581" type="curve" smooth="yes"/>
      <point x="369.162" y="73.7012"/>
      <point x="295.461" y="0"/>
      <point x="204.581" y="0" type="curve" smooth="yes"/>
      <point x="113.701" y="0"/>
      <point x="40" y="73.7012"/>
      <point x="40" y="164.581" type="curve" smooth="yes"/>
      <point x="40" y="255.461"/>
      <point x="113.701" y="329.162"/>
    </contour>
  </outline>
</glyph>
<glyph name="slash" format="1">
  <advance width="1052"/>
  <unicode hex="002F"/>
  <outline>
    <contour>
      <point x="803" y="1289" type="line"/>
      <point x="1032" y="1289" type="line"/>
      <point x="249" y="0" type="line"/>
      <point x="20" y="0" type="line"/>
    </contour>
  </outline>
</glyph>
<glyph name="zero" format="1">
  <advance width="1047"/>
  <unicode hex="0030"/>
  <outline>
    <contour>
      <point x="500" y="-21" type="curve" smooth="yes"/>
      <point x="914" y="-21"/>
      <point x="1019" y="205"/>
      <point x="1019" y="584" type="curve" smooth="yes"/>
      <point x="1019" y="937"/>
      <point x="942" y="1191"/>
      <point x="545" y="1191" type="curve" smooth="yes"/>
      <point x="130" y="1191"/>
      <point x="28" y="959"/>
      <point x="28" y="582" type="curve" smooth="yes"/>
      <point x="28" y="227"/>
      <point x="105" y="-21"/>
    </contour>
    <contour>
      <point x="521" y="157" type="curve" smooth="yes"/>
      <point x="437" y="157"/>
      <point x="396" y="229"/>
      <point x="396" y="453" type="curve" smooth="yes"/>
      <point x="396" y="704" type="line" smooth="yes"/>
      <point x="396" y="949"/>
      <point x="437" y="1022"/>
      <point x="521" y="1022" type="curve" smooth="yes"/>
      <point x="609" y="1022"/>
      <point x="651" y="923"/>
      <point x="651" y="739" type="curve" smooth="yes"/>
      <point x="651" y="498" type="line" smooth="yes"/>
      <point x="651" y="202"/>
      <point x="609" y="157"/>
    </contour>
  </outline>
</glyph>
<glyph name="one" format="1">
  <advance width="655"/>
  <unicode hex="0031"/>
  <outline>
    <contour>
      <point x="370.087" y="1289.49" type="curve"/>
      <point x="565.704" y="1289.49" type="line"/>
      <point x="565.704" y="0" type="line"/>
      <point x="180.592" y="0" type="line"/>
      <point x="180.592" y="897.947" type="line"/>
      <point x="0" y="897.947" type="line"/>
      <point x="0" y="1092.45" type="line"/>
      <point x="0" y="1092.45"/>
      <point x="296.069" y="1107.79"/>
    </contour>
  </outline>
</glyph>
<glyph name="two" format="1">
  <advance width="1024"/>
  <unicode hex="0032"/>
  <outline>
    <contour>
      <point x="782.943" y="223.443" type="curve" smooth="yes"/>
      <point x="783.5" y="387.896" type="line"/>
      <point x="934.039" y="387.896" type="line"/>
      <point x="934.039" y="0" type="line"/>
      <point x="90.6309" y="0" type="line"/>
      <point x="90.6309" y="0"/>
      <point x="-15.9434" y="207.861"/>
      <point x="255.361" y="462.191" type="curve" smooth="yes"/>
      <point x="403.952" y="601.322"/>
      <point x="484.647" y="713.183"/>
      <point x="516.647" y="810.574" type="curve" smooth="yes"/>
      <point x="578.979" y="999.513"/>
      <point x="509.413" y="1116.66"/>
      <point x="367.778" y="1106.92" type="curve" smooth="yes"/>
      <point x="240.613" y="1098.3"/>
      <point x="193.309" y="948.87"/>
      <point x="272.335" y="799.443" type="curve"/>
      <point x="92.2998" y="799.443" type="line"/>
      <point x="10.4912" y="1064.35"/>
      <point x="186.631" y="1308.7"/>
      <point x="498.839" y="1308.7" type="curve" smooth="yes"/>
      <point x="715.883" y="1308.7"/>
      <point x="934.039" y="1182.89"/>
      <point x="934.039" y="913.53" type="curve" smooth="yes"/>
      <point x="934.039" y="704.557"/>
      <point x="794.631" y="569.322"/>
      <point x="640.195" y="482.505" type="curve" smooth="yes"/>
      <point x="433.727" y="366.748"/>
      <point x="307.396" y="284.661"/>
      <point x="224.474" y="180.87" type="curve"/>
      <point x="732.856" y="180.87" type="line"/>
      <point x="769.03" y="185.044"/>
      <point x="782.943" y="202.853"/>
    </contour>
  </outline>
</glyph>
<glyph name="three" format="1">
  <advance width="852"/>
  <unicode hex="0033"/>
  <outline>
    <contour>
      <point x="527" y="613" type="curve"/>
      <point x="610" y="620"/>
      <point x="765" y="651"/>
      <point x="765" y="855" type="curve" smooth="yes"/>
      <point x="765" y="1046"/>
      <point x="654" y="1189"/>
      <point x="354" y="1189" type="curve" smooth="yes"/>
      <point x="246" y="1189"/>
      <point x="145" y="1159"/>
      <point x="50" y="1098" type="curve"/>
      <point x="50" y="934" type="line"/>
      <point x="96" y="969"/>
      <point x="149" y="987"/>
      <point x="208" y="987" type="curve" smooth="yes"/>
      <point x="320" y="987"/>
      <point x="409" y="941"/>
      <point x="409" y="814" type="curve" smooth="yes"/>
      <point x="409" y="682"/>
      <point x="322" y="657"/>
      <point x="191" y="657" type="curve"/>
      <point x="178" y="657" type="line"/>
      <point x="178" y="520" type="line"/>
      <point x="190" y="520" type="line" smooth="yes"/>
      <point x="194" y="520"/>
      <point x="198" y="520"/>
      <point x="204" y="520" type="curve" smooth="yes"/>
      <point x="322" y="520"/>
      <point x="409" y="478"/>
      <point x="409" y="347" type="curve" smooth="yes"/>
      <point x="409" y="268"/>
      <point x="381" y="180"/>
      <point x="208" y="180" type="curve" smooth="yes"/>
      <point x="149" y="180"/>
      <point x="96" y="198"/>
      <point x="50" y="233" type="curve"/>
      <point x="50" y="69" type="line"/>
      <point x="143" y="10"/>
      <point x="244" y="-20"/>
      <point x="354" y="-20" type="curve" smooth="yes"/>
      <point x="655" y="-20"/>
      <point x="805" y="126"/>
      <point x="805" y="292" type="curve" smooth="yes"/>
      <point x="805" y="499"/>
      <point x="691" y="600"/>
    </contour>
  </outline>
</glyph>
<glyph name="four" format="1">
  <advance width="1073"/>
  <unicode hex="0034"/>
  <outline>
    <contour>
      <point x="895" y="418" type="line"/>
      <point x="895" y="1172" type="line"/>
      <point x="594" y="1172" type="line"/>
      <point x="12" y="419" type="line"/>
      <point x="32" y="222" type="line"/>
      <point x="551" y="222" type="line"/>
      <point x="551" y="0" type="line"/>
      <point x="895" y="0" type="line"/>
      <point x="895" y="222" type="line"/>
      <point x="1026" y="222" type="line"/>
      <point x="1026" y="418" type="line"/>
    </contour>
    <contour>
      <point x="551" y="860" type="line"/>
      <point x="551" y="418" type="line"/>
      <point x="257" y="418" type="line"/>
    </contour>
  </outline>
</glyph>
<glyph name="five" format="1">
  <advance width="944"/>
  <unicode hex="0035"/>
  <outline>
    <contour>
      <point x="361" y="925" type="line"/>
      <point x="778" y="925" type="line"/>
      <point x="847" y="1172" type="line"/>
      <point x="144" y="1172" type="line"/>
      <point x="78" y="504" type="line"/>
      <point x="175" y="543"/>
      <point x="258" y="559"/>
      <point x="326" y="559" type="curve" smooth="yes"/>
      <point x="479" y="559"/>
      <point x="536" y="487"/>
      <point x="536" y="388" type="curve" smooth="yes"/>
      <point x="536" y="245"/>
      <point x="446" y="193"/>
      <point x="273" y="193" type="curve" smooth="yes"/>
      <point x="216" y="193"/>
      <point x="104" y="223"/>
      <point x="61" y="257" type="curve"/>
      <point x="61" y="75" type="line"/>
      <point x="154" y="16"/>
      <point x="259" y="-20"/>
      <point x="368" y="-20" type="curve" smooth="yes"/>
      <point x="712" y="-20"/>
      <point x="866" y="145"/>
      <point x="866" y="400" type="curve" smooth="yes"/>
      <point x="866" y="662"/>
      <point x="687" y="756"/>
      <point x="497" y="756" type="curve" smooth="yes"/>
      <point x="440" y="756"/>
      <point x="357" y="740"/>
      <point x="319" y="716" type="curve"/>
    </contour>
  </outline>
</glyph>
<glyph name="six" format="1">
  <advance width="1080"/>
  <unicode hex="0036"/>
  <outline>
    <contour>
      <point x="458.174" y="818.695" type="line"/>
      <point x="514.383" y="860.713"/>
      <point x="598.975" y="881.582"/>
      <point x="661.026" y="881.304" type="curve" smooth="yes"/>
      <point x="866.104" y="881.304"/>
      <point x="1022.21" y="696.539"/>
      <point x="1010.24" y="431.913" type="curve" smooth="yes"/>
      <point x="997.444" y="149.756"/>
      <point x="789.583" y="-19.9824"/>
      <point x="536.922" y="-19.9824" type="curve" smooth="yes"/>
      <point x="254.766" y="-19.9824"/>
      <point x="70" y="263.009"/>
      <point x="70" y="611.669" type="curve" smooth="yes"/>
      <point x="70" y="960.33"/>
      <point x="302.904" y="1308.7"/>
      <point x="617.062" y="1308.7" type="curve" smooth="yes"/>
      <point x="723.356" y="1308.7"/>
      <point x="818.522" y="1267.81"/>
      <point x="893.374" y="1209.1" type="curve"/>
      <point x="893.374" y="993.722" type="line"/>
      <point x="768.714" y="1104.47"/>
      <point x="704.157" y="1106.97"/>
      <point x="659.635" y="1106.97" type="curve" smooth="yes"/>
      <point x="549.444" y="1106.97"/>
      <point x="458.174" y="1020.16"/>
      <point x="458.174" y="911.356" type="curve" smooth="yes"/>
    </contour>
    <contour>
      <point x="623.739" y="263.843" type="curve"/>
      <point x="624.018" y="263.843" type="line"/>
      <point x="624.018" y="598.034" type="line" smooth="yes"/>
      <point x="624.018" y="644.226"/>
      <point x="586.73" y="681.791"/>
      <point x="540.539" y="681.791" type="curve" smooth="yes"/>
      <point x="499.079" y="681.791"/>
      <point x="463.739" y="651.461"/>
      <point x="457.34" y="611.669" type="curve"/>
      <point x="456.783" y="263.843" type="line" smooth="yes"/>
      <point x="456.783" y="217.652"/>
      <point x="494.07" y="180.087"/>
      <point x="540.262" y="180.087" type="curve" smooth="yes"/>
      <point x="586.452" y="180.087"/>
      <point x="623.739" y="217.652"/>
    </contour>
    <contour>
      <point x="54.6475" y="436.973" type="move" smooth="yes"/>
    </contour>
  </outline>
</glyph>
<glyph name="seven" format="1">
  <advance width="859"/>
  <unicode hex="0037"/>
  <outline>
    <contour>
      <point x="40" y="906" type="line"/>
      <point x="583" y="929" type="line"/>
      <point x="352" y="746"/>
      <point x="220" y="366"/>
      <point x="184" y="0" type="curve"/>
      <point x="589" y="0" type="line"/>
      <point x="587" y="36"/>
      <point x="586" y="72"/>
      <point x="586" y="107" type="curve" smooth="yes"/>
      <point x="586" y="583"/>
      <point x="732" y="891"/>
      <point x="844" y="990" type="curve"/>
      <point x="787" y="1171" type="line"/>
      <point x="40" y="1171" type="line"/>
    </contour>
  </outline>
</glyph>
<glyph name="eight" format="1">
  <advance width="1005"/>
  <unicode hex="0038"/>
  <outline>
    <contour>
      <point x="534" y="753" type="curve" smooth="yes"/>
      <point x="471" y="790"/>
      <point x="389" y="819"/>
      <point x="390" y="897" type="curve" smooth="yes"/>
      <point x="391" y="960"/>
      <point x="445" y="1005"/>
      <point x="508" y="1005" type="curve" smooth="yes"/>
      <point x="567" y="1005"/>
      <point x="647" y="950"/>
      <point x="647" y="878" type="curve" smooth="yes"/>
      <point x="645" y="815"/>
      <point x="593" y="733"/>
      <point x="517" y="675" type="curve"/>
      <point x="632" y="621" type="line"/>
      <point x="838" y="699"/>
      <point x="898" y="807"/>
      <point x="900" y="911" type="curve" smooth="yes"/>
      <point x="902" y="1047"/>
      <point x="762" y="1185"/>
      <point x="509" y="1185" type="curve" smooth="yes"/>
      <point x="237" y="1185"/>
      <point x="83" y="1065"/>
      <point x="79" y="856" type="curve" smooth="yes"/>
      <point x="74" y="616"/>
      <point x="254" y="552"/>
      <point x="387" y="466" type="curve" smooth="yes"/>
      <point x="520" y="380"/>
      <point x="605" y="358"/>
      <point x="604" y="285" type="curve" smooth="yes"/>
      <point x="604" y="217"/>
      <point x="552" y="164"/>
      <point x="487" y="170" type="curve" smooth="yes"/>
      <point x="384" y="181"/>
      <point x="332" y="228"/>
      <point x="334" y="344" type="curve" smooth="yes"/>
      <point x="335" y="398"/>
      <point x="356" y="448"/>
      <point x="430" y="488" type="curve"/>
      <point x="339" y="560" type="line"/>
      <point x="143" y="558"/>
      <point x="46" y="408"/>
      <point x="46" y="297" type="curve" smooth="yes"/>
      <point x="46" y="97"/>
      <point x="245" y="-21"/>
      <point x="487" y="-21" type="curve" smooth="yes"/>
      <point x="754" y="-21"/>
      <point x="950" y="94"/>
      <point x="950" y="338" type="curve" smooth="yes"/>
      <point x="950" y="557"/>
      <point x="715" y="645"/>
    </contour>
  </outline>
</glyph>
<glyph name="nine" format="1">
  <advance width="1100"/>
  <unicode hex="0039"/>
  <outline>
    <contour>
      <point x="622.719" y="469.478" type="line"/>
      <point x="566.51" y="427.461"/>
      <point x="482.196" y="406.591"/>
      <point x="419.866" y="406.869" type="curve" smooth="yes"/>
      <point x="214.788" y="406.869"/>
      <point x="58.6436" y="591.637"/>
      <point x="70.6484" y="856.261" type="curve" smooth="yes"/>
      <point x="83.4482" y="1138.42"/>
      <point x="291.31" y="1308.7"/>
      <point x="543.971" y="1308.7" type="curve" smooth="yes"/>
      <point x="826.127" y="1308.7"/>
      <point x="1010.89" y="1025.17"/>
      <point x="1010.89" y="676.504" type="curve" smooth="yes"/>
      <point x="1010.89" y="327.843"/>
      <point x="777.988" y="-19.9824"/>
      <point x="463.831" y="-19.9824" type="curve" smooth="yes"/>
      <point x="357.536" y="-19.9824"/>
      <point x="262.37" y="20.3652"/>
      <point x="187.519" y="79.0781" type="curve"/>
      <point x="187.519" y="294.452" type="line"/>
      <point x="312.179" y="183.704"/>
      <point x="376.735" y="181.2"/>
      <point x="421.258" y="181.2" type="curve" smooth="yes"/>
      <point x="531.448" y="181.2"/>
      <point x="622.719" y="268.018"/>
      <point x="622.719" y="376.817" type="curve" smooth="yes"/>
    </contour>
    <contour>
      <point x="457.153" y="1024.33" type="curve"/>
      <point x="456.875" y="1024.33" type="line"/>
      <point x="456.875" y="690.139" type="line" smooth="yes"/>
      <point x="456.875" y="643.947"/>
      <point x="494.162" y="606.383"/>
      <point x="540.354" y="606.383" type="curve" smooth="yes"/>
      <point x="581.813" y="606.383"/>
      <point x="617.153" y="636.713"/>
      <point x="623.553" y="676.504" type="curve"/>
      <point x="624.109" y="1024.33" type="line" smooth="yes"/>
      <point x="624.109" y="1070.52"/>
      <point x="586.822" y="1108.09"/>
      <point x="540.631" y="1108.09" type="curve" smooth="yes"/>
      <point x="494.44" y="1108.09"/>
      <point x="457.153" y="1070.52"/>
    </contour>
  </outline>
</glyph>
<glyph name="colon" format="1">
  <advance width="409"/>
  <unicode hex="003A"/>
  <outline>
    <contour>
      <point x="180" y="345" type="line"/>
      <point x="16" y="181" type="line"/>
      <point x="16" y="146" type="line"/>
      <point x="180" y="-19" type="line"/>
      <point x="218" y="-19" type="line"/>
      <point x="389" y="146" type="line"/>
      <point x="389" y="181" type="line"/>
      <point x="218" y="345" type="line"/>
    </contour>
    <contour>
      <point x="180" y="851" type="line"/>
      <point x="16" y="687" type="line"/>
      <point x="16" y="652" type="line"/>
      <point x="180" y="487" type="line"/>
      <point x="218" y="487" type="line"/>
      <point x="389" y="652" type="line"/>
      <point x="389" y="687" type="line"/>
      <point x="218" y="851" type="line"/>
    </contour>
  </outline>
</glyph>
<glyph name="less" format="1">
  <advance width="914"/>
  <unicode hex="003C"/>
  <outline>
    <contour>
      <point x="836" y="986" type="line"/>
      <point x="522" y="986" type="line"/>
      <point x="26" y="494" type="line"/>
      <point x="521" y="0" type="line"/>
      <point x="838" y="0" type="line"/>
      <point x="343" y="494" type="line"/>
    </contour>
  </outline>
</glyph>
<glyph name="equal" format="1">
  <advance width="1148"/>
  <unicode hex="003D"/>
  <outline>
    <contour>
      <point x="80" y="192.842" type="line"/>
      <point x="80" y="393.922" type="line"/>
      <point x="1068" y="393.922" type="line"/>
      <point x="1068" y="192.842" type="line"/>
    </contour>
    <contour>
      <point x="80" y="594.92" type="line"/>
      <point x="80" y="796" type="line"/>
      <point x="1068" y="796" type="line"/>
      <point x="1068" y="594.92" type="line"/>
    </contour>
  </outline>
</glyph>
<glyph name="greater" format="1">
  <advance width="641"/>
  <unicode hex="003E"/>
  <outline>
    <contour>
      <point x="354.594" y="494.052" type="line"/>
      <point x="2.48438" y="986.5" type="line"/>
      <point x="246.484" y="986.5" type="line"/>
      <point x="601.994" y="494.052" type="line"/>
      <point x="247.484" y="0" type="line"/>
      <point x="0" y="0" type="line"/>
    </contour>
  </outline>
</glyph>
<glyph name="question" format="1">
  <advance width="848"/>
  <unicode hex="003F"/>
  <outline>
    <contour>
      <point x="432.139" y="370.17" type="curve" smooth="yes"/>
      <point x="534.379" y="370.17"/>
      <point x="617.223" y="287.325"/>
      <point x="617.223" y="185.086" type="curve" smooth="yes"/>
      <point x="617.223" y="82.8457"/>
      <point x="534.379" y="0"/>
      <point x="432.139" y="0" type="curve" smooth="yes"/>
      <point x="329.899" y="0"/>
      <point x="247.055" y="82.8457"/>
      <point x="247.055" y="185.086" type="curve" smooth="yes"/>
      <point x="247.055" y="287.325"/>
      <point x="329.899" y="370.17"/>
    </contour>
    <contour>
      <point x="374.23" y="1289.48" type="curve" smooth="yes"/>
      <point x="619.994" y="1289.48"/>
      <point x="765.18" y="1122.96"/>
      <point x="757.976" y="960.316" type="curve" smooth="yes"/>
      <point x="752.988" y="855.86"/>
      <point x="690.647" y="787.701"/>
      <point x="648.532" y="751.958" type="curve" smooth="yes"/>
      <point x="485.059" y="612.868"/>
      <point x="531.607" y="501.485"/>
      <point x="531.607" y="501.485" type="curve"/>
      <point x="330.73" y="501.485" type="line" smooth="yes"/>
      <point x="330.73" y="502.039"/>
      <point x="264.51" y="610.097"/>
      <point x="362.593" y="808.758" type="curve" smooth="yes"/>
      <point x="468.436" y="1022.66"/>
      <point x="396.95" y="1097.75"/>
      <point x="303.022" y="1095.25" type="curve" smooth="yes"/>
      <point x="198.567" y="1092.48"/>
      <point x="168.366" y="984.422"/>
      <point x="209.649" y="864.45" type="curve"/>
      <point x="43.1289" y="936.766" type="line"/>
      <point x="15.1445" y="1139.58"/>
      <point x="178.895" y="1289.48"/>
    </contour>
  </outline>
</glyph>
<glyph name="at" format="1">
  <advance width="1319"/>
  <unicode hex="0040"/>
  <outline>
    <contour>
      <point x="875.839" y="329.811" type="curve" smooth="yes"/>
      <point x="875.839" y="329.811"/>
      <point x="708.771" y="329.645"/>
      <point x="708.522" y="329.895" type="curve" smooth="yes"/>
      <point x="708.522" y="412.14" type="line" smooth="yes"/>
      <point x="708.023" y="411.392"/>
      <point x="667.772" y="353.845"/>
      <point x="571.308" y="353.845" type="curve" smooth="yes"/>
      <point x="474.676" y="353.845"/>
      <point x="381.786" y="411.974"/>
      <point x="381.703" y="509.603" type="curve" smooth="yes"/>
      <point x="381.703" y="576.962"/>
      <point x="424.614" y="662.867"/>
      <point x="551.018" y="704.363" type="curve" smooth="yes"/>
      <point x="633.429" y="731.473"/>
      <point x="708.605" y="732.471"/>
      <point x="708.605" y="732.471" type="curve"/>
      <point x="708.605" y="732.471"/>
      <point x="703.033" y="810.392"/>
      <point x="605.902" y="810.392" type="curve" smooth="yes"/>
      <point x="561.745" y="810.392"/>
      <point x="503.949" y="791.016"/>
      <point x="480.164" y="738.459" type="curve"/>
      <point x="416.631" y="802.991" type="line"/>
      <point x="459.374" y="881.161"/>
      <point x="544.53" y="922.408"/>
      <point x="649.146" y="922.408" type="curve" smooth="yes"/>
      <point x="865.278" y="922.408"/>
      <point x="916.588" y="810.226"/>
      <point x="916.588" y="672.514" type="curve" smooth="yes"/>
      <point x="916.671" y="474.261" type="line"/>
      <point x="1059.62" y="474.261"/>
      <point x="1101.87" y="625.195"/>
      <point x="1100.45" y="710.933" type="curve" smooth="yes"/>
      <point x="1097.21" y="908.521"/>
      <point x="955.257" y="1086.4"/>
      <point x="682.16" y="1086.4" type="curve" smooth="yes"/>
      <point x="437.089" y="1086.4"/>
      <point x="237.837" y="887.149"/>
      <point x="237.837" y="642.16" type="curve" smooth="yes"/>
      <point x="237.837" y="397.172"/>
      <point x="437.172" y="195.508"/>
      <point x="682.16" y="195.508" type="curve" smooth="yes"/>
      <point x="1061.45" y="195.508" type="line"/>
      <point x="952.846" y="0" type="line"/>
      <point x="682.16" y="0" type="line" smooth="yes"/>
      <point x="328.066" y="0"/>
      <point x="40" y="288.064"/>
      <point x="40" y="642.16" type="curve" smooth="yes"/>
      <point x="40" y="996.255"/>
      <point x="340.751" y="1289.48"/>
      <point x="694.846" y="1289.48" type="curve" smooth="yes"/>
      <point x="1140.42" y="1289.48"/>
      <point x="1280" y="961.493"/>
      <point x="1280" y="764.654" type="curve" smooth="yes"/>
      <point x="1280" y="507.939"/>
      <point x="1125.65" y="329.811"/>
    </contour>
    <contour>
      <point x="708.438" y="478.418" type="curve" smooth="yes"/>
      <point x="708.605" y="663.864" type="line"/>
      <point x="708.605" y="663.864"/>
      <point x="599.665" y="635.341"/>
      <point x="599.665" y="551.1" type="curve" smooth="yes"/>
      <point x="599.665" y="508.272"/>
      <point x="628.522" y="466.027"/>
      <point x="671.849" y="466.027" type="curve" smooth="yes"/>
      <point x="695.882" y="466.027"/>
      <point x="708.023" y="478.002"/>
    </contour>
  </outline>
</glyph>
<glyph name="B" format="1">
  <advance width="1205"/>
  <unicode hex="0042"/>
  <outline>
    <contour>
      <point x="886.354" y="681.598" type="curve"/>
      <point x="886.354" y="681.598"/>
      <point x="1125.75" y="620.364"/>
      <point x="1125.75" y="378.48" type="curve" smooth="yes"/>
      <point x="1125.75" y="161.255"/>
      <point x="918.495" y="0"/>
      <point x="686.309" y="0" type="curve" smooth="yes"/>
      <point x="105.842" y="0" type="line"/>
      <point x="105.842" y="1099.15" type="line"/>
      <point x="0" y="1099.15" type="line"/>
      <point x="0" y="1289.48" type="line"/>
      <point x="681.875" y="1289.48" type="line" smooth="yes"/>
      <point x="912.399" y="1289.48"/>
      <point x="1078.37" y="1149.57"/>
      <point x="1078.37" y="956.452" type="curve" smooth="yes"/>
      <point x="1078.37" y="806.558"/>
      <point x="992.751" y="731.47"/>
    </contour>
    <contour>
      <point x="488.756" y="1098.87" type="line"/>
      <point x="488.756" y="777.187" type="line"/>
      <point x="609.283" y="777.187" type="line" smooth="yes"/>
      <point x="665.527" y="777.187"/>
      <point x="712.907" y="828.168"/>
      <point x="712.907" y="888.293" type="curve" smooth="yes"/>
      <point x="712.907" y="987.762" type="line" smooth="yes"/>
      <point x="712.907" y="1049"/>
      <point x="666.359" y="1098.87"/>
      <point x="609.283" y="1098.87" type="curve" smooth="yes"/>
    </contour>
    <contour>
      <point x="742.832" y="320.572" type="curve" smooth="yes"/>
      <point x="742.832" y="455.506" type="line" smooth="yes"/>
      <point x="742.832" y="525.052"/>
      <point x="689.91" y="581.573"/>
      <point x="625.075" y="581.573" type="curve" smooth="yes"/>
      <point x="488.756" y="581.573" type="line"/>
      <point x="488.756" y="194.504" type="line"/>
      <point x="625.075" y="194.504" type="line" smooth="yes"/>
      <point x="689.08" y="194.504"/>
      <point x="742.832" y="252.135"/>
    </contour>
  </outline>
</glyph>
<glyph name="C" format="1">
  <advance width="1170"/>
  <unicode hex="0043"/>
  <outline>
    <contour>
      <point x="956.658" y="379.626" type="curve"/>
      <point x="1090.21" y="245.523" type="line"/>
      <point x="1027.59" y="104.216"/>
      <point x="864.67" y="-35.9824"/>
      <point x="663.792" y="-35.9824" type="curve" smooth="yes"/>
      <point x="341.835" y="-35.9824"/>
      <point x="80" y="256.606"/>
      <point x="80" y="616.247" type="curve" smooth="yes"/>
      <point x="80" y="1006.92"/>
      <point x="328.812" y="1324.72"/>
      <point x="654.094" y="1324.72" type="curve" smooth="yes"/>
      <point x="826.987" y="1324.72"/>
      <point x="914.266" y="1242.43"/>
      <point x="914.543" y="1242.15" type="curve" smooth="yes"/>
      <point x="914.543" y="1324.72" type="line"/>
      <point x="1061.95" y="1324.72" type="line"/>
      <point x="1061.95" y="908.003" type="line"/>
      <point x="913.712" y="908.003" type="line"/>
      <point x="913.712" y="908.003"/>
      <point x="911.771" y="1117.47"/>
      <point x="707.292" y="1117.47" type="curve" smooth="yes"/>
      <point x="593.416" y="1117.47"/>
      <point x="500.873" y="1029.92"/>
      <point x="500.873" y="918.532" type="curve" smooth="yes"/>
      <point x="500.873" y="371.037" type="line" smooth="yes"/>
      <point x="500.873" y="259.654"/>
      <point x="594.523" y="169.328"/>
      <point x="707.292" y="169.328" type="curve" smooth="yes"/>
      <point x="896.811" y="169.328"/>
      <point x="950.562" y="355.799"/>
    </contour>
  </outline>
</glyph>
<glyph name="D" format="1">
  <advance width="1214"/>
  <unicode hex="0044"/>
  <outline>
    <contour>
      <point x="535" y="1307" type="curve" smooth="yes"/>
      <point x="410" y="1307"/>
      <point x="312" y="1289"/>
      <point x="87" y="1289" type="curve"/>
      <point x="87" y="0" type="line"/>
      <point x="214" y="-1"/>
      <point x="350" y="-11"/>
      <point x="472" y="-11" type="curve" smooth="yes"/>
      <point x="928" y="-11"/>
      <point x="1148" y="235"/>
      <point x="1148" y="668" type="curve" smooth="yes"/>
      <point x="1148" y="1099"/>
      <point x="892" y="1307"/>
    </contour>
    <contour>
      <point x="732" y="565" type="line"/>
      <point x="732" y="281"/>
      <point x="624" y="144"/>
      <point x="517" y="144" type="curve" smooth="yes"/>
      <point x="459" y="144" type="line"/>
      <point x="459" y="1139" type="line"/>
      <point x="517" y="1139" type="line" smooth="yes"/>
      <point x="623" y="1139"/>
      <point x="732" y="1040"/>
      <point x="732" y="760" type="curve"/>
    </contour>
    <contour>
      <point x="617" y="500" type="move" name="top"/>
    </contour>
    <contour>
      <point x="617" y="-100" type="move" name="btm"/>
    </contour>
  </outline>
</glyph>
<glyph name="E" format="1">
  <advance width="1118"/>
  <unicode hex="0045"/>
  <outline>
    <contour>
      <point x="883.307" y="393.442" type="line"/>
      <point x="1028.77" y="393.442" type="line"/>
      <point x="1028.77" y="0" type="line"/>
      <point x="105.563" y="0" type="line"/>
      <point x="105.563" y="1098.87" type="line"/>
      <point x="0" y="1098.87" type="line"/>
      <point x="0" y="1289.48" type="line"/>
      <point x="975.294" y="1289.48" type="line"/>
      <point x="975.294" y="889.956" type="line"/>
      <point x="829.831" y="889.956" type="line"/>
      <point x="829.554" y="1037.08" type="line" smooth="yes"/>
      <point x="829.554" y="1081.97"/>
      <point x="810.714" y="1097.76"/>
      <point x="789.102" y="1098.87" type="curve" smooth="yes"/>
      <point x="488.755" y="1098.87" type="line"/>
      <point x="488.755" y="775.248" type="line"/>
      <point x="624.521" y="775.525" type="line"/>
      <point x="624.521" y="841.191" type="line"/>
      <point x="769.983" y="841.191" type="line"/>
      <point x="769.983" y="513.691" type="line"/>
      <point x="624.521" y="513.691" type="line"/>
      <point x="624.521" y="580.188" type="line"/>
      <point x="488.755" y="580.188" type="line"/>
      <point x="488.755" y="184.253" type="line"/>
      <point x="834.542" y="184.253" type="line" smooth="yes"/>
      <point x="869.452" y="188.132"/>
      <point x="883.029" y="205.311"/>
      <point x="883.029" y="225.26" type="curve" smooth="yes"/>
    </contour>
  </outline>
</glyph>
<glyph name="F" format="1">
  <advance width="741"/>
  <unicode hex="0046"/>
  <outline>
    <contour>
      <point x="398" y="0" type="line"/>
      <point x="398" y="437" type="line"/>
      <point x="668" y="417" type="line"/>
      <point x="668" y="665" type="line"/>
      <point x="398" y="665" type="line"/>
      <point x="398" y="937" type="line"/>
      <point x="727" y="917" type="line"/>
      <point x="727" y="1172" type="line"/>
      <point x="67" y="1172" type="line"/>
      <point x="67" y="0" type="line"/>
    </contour>
  </outline>
</glyph>
<glyph name="G" format="1">
  <advance width="1308"/>
  <unicode hex="0047"/>
  <outline>
    <contour>
      <point x="1228.46" y="694.102" type="line"/>
      <point x="1228.19" y="694.102" type="line"/>
      <point x="1228.19" y="545.59" type="line"/>
      <point x="1090.21" y="545.59" type="line"/>
      <point x="1090.21" y="245.521" type="line"/>
      <point x="1027.59" y="104.214"/>
      <point x="864.668" y="-35.9844"/>
      <point x="663.792" y="-35.9844" type="curve" smooth="yes"/>
      <point x="341.833" y="-35.9844"/>
      <point x="80" y="256.604"/>
      <point x="80" y="616.244" type="curve" smooth="yes"/>
      <point x="80" y="1006.92"/>
      <point x="331.582" y="1324.72"/>
      <point x="660.744" y="1324.72" type="curve" smooth="yes"/>
      <point x="823.662" y="1324.72"/>
      <point x="914.265" y="1242.43"/>
      <point x="914.542" y="1242.15" type="curve" smooth="yes"/>
      <point x="914.542" y="1324.72" type="line"/>
      <point x="1061.39" y="1324.72" type="line"/>
      <point x="1061.39" y="908.278" type="line"/>
      <point x="913.711" y="908.278" type="line"/>
      <point x="913.711" y="908.278"/>
      <point x="904.29" y="1118.58"/>
      <point x="707.292" y="1118.58" type="curve" smooth="yes"/>
      <point x="593.415" y="1118.58"/>
      <point x="500.872" y="1029.91"/>
      <point x="500.872" y="918.53" type="curve" smooth="yes"/>
      <point x="500.872" y="371.035" type="line" smooth="yes"/>
      <point x="500.872" y="259.652"/>
      <point x="594.522" y="169.326"/>
      <point x="707.292" y="169.326" type="curve" smooth="yes"/>
      <point x="708.677" y="169.326"/>
      <point x="743.034" y="169.326"/>
      <point x="775.729" y="169.326" type="curve"/>
      <point x="775.729" y="545.59" type="line"/>
      <point x="637.746" y="545.59" type="line"/>
      <point x="637.746" y="694.102" type="line"/>
    </contour>
  </outline>
</glyph>
<glyph name="H" format="1">
  <advance width="1218"/>
  <unicode hex="0048"/>
  <outline>
    <contour>
      <point x="770" y="760" type="line"/>
      <point x="448" y="760" type="line"/>
      <point x="448" y="1289" type="line"/>
      <point x="85" y="1289" type="line"/>
      <point x="85" y="0" type="line"/>
      <point x="448" y="0" type="line"/>
      <point x="448" y="570" type="line"/>
      <point x="770" y="571" type="line"/>
      <point x="770" y="0" type="line"/>
      <point x="1133" y="0" type="line"/>
      <point x="1133" y="1289" type="line"/>
      <point x="770" y="1289" type="line"/>
    </contour>
    <contour>
      <point x="609" y="500" type="move" name="top"/>
    </contour>
    <contour>
      <point x="609" y="-100" type="move" name="btm"/>
    </contour>
  </outline>
</glyph>
<glyph name="I" format="1">
  <advance width="543"/>
  <unicode hex="0049"/>
  <outline>
    <contour>
      <point x="453" y="1289" type="line"/>
      <point x="90" y="1289" type="line"/>
      <point x="90" y="0" type="line"/>
      <point x="453" y="0" type="line"/>
    </contour>
    <contour>
      <point x="271" y="500" type="move" name="top"/>
    </contour>
    <contour>
      <point x="271" y="-100" type="move" name="btm"/>
    </contour>
  </outline>
</glyph>
<glyph name="J" format="1">
  <advance width="980"/>
  <unicode hex="004A"/>
  <outline>
    <contour>
      <point x="507" y="1191" type="line"/>
      <point x="507" y="392" type="line" smooth="yes"/>
      <point x="507" y="238"/>
      <point x="427" y="194"/>
      <point x="329" y="194" type="curve" smooth="yes"/>
      <point x="252" y="194"/>
      <point x="149" y="223"/>
      <point x="77" y="294" type="curve"/>
      <point x="77" y="75" type="line"/>
      <point x="119" y="28"/>
      <point x="222" y="-20"/>
      <point x="404" y="-20" type="curve" smooth="yes"/>
      <point x="788" y="-20"/>
      <point x="891" y="175"/>
      <point x="891" y="414" type="curve" smooth="yes"/>
      <point x="891" y="1289" type="line"/>
      <point x="451" y="1289" type="line"/>
    </contour>
    <contour>
      <point x="484" y="500" type="move" name="top"/>
    </contour>
    <contour>
      <point x="484" y="-100" type="move" name="btm"/>
    </contour>
  </outline>
</glyph>
<glyph name="K" format="1">
  <advance width="1325"/>
  <unicode hex="004B"/>
  <outline>
    <contour>
      <point x="1255.34" y="1289.48" type="line"/>
      <point x="883.029" y="874.994" type="line"/>
      <point x="1175.34" y="0" type="line"/>
      <point x="795.475" y="0" type="line"/>
      <point x="602.632" y="563.288" type="line"/>
      <point x="489.032" y="436.666" type="line"/>
      <point x="489.032" y="0" type="line"/>
      <point x="105.841" y="0" type="line"/>
      <point x="105.841" y="1099.15" type="line"/>
      <point x="0" y="1099.15" type="line"/>
      <point x="0" y="1289.48" type="line"/>
      <point x="489.032" y="1289.2" type="line"/>
      <point x="489.032" y="722.604" type="line"/>
      <point x="999.341" y="1289.48" type="line"/>
    </contour>
  </outline>
</glyph>
<glyph name="L" format="1">
  <advance width="1118"/>
  <unicode hex="004C"/>
  <outline>
    <contour>
      <point x="883.307" y="393.165" type="line"/>
      <point x="883.307" y="393.442" type="line"/>
      <point x="1028.77" y="393.442" type="line"/>
      <point x="1028.77" y="0" type="line"/>
      <point x="105.563" y="0" type="line"/>
      <point x="105.563" y="1098.87" type="line"/>
      <point x="0" y="1098.87" type="line"/>
      <point x="0" y="1289.48" type="line"/>
      <point x="488.755" y="1289.48" type="line"/>
      <point x="488.755" y="183.976" type="line"/>
      <point x="834.542" y="183.976" type="line" smooth="yes"/>
      <point x="869.452" y="187.854"/>
      <point x="883.029" y="205.033"/>
      <point x="883.029" y="224.982" type="curve" smooth="yes"/>
    </contour>
  </outline>
</glyph>
<glyph name="M" format="1">
  <advance width="1554"/>
  <unicode hex="004D"/>
  <outline>
    <contour>
      <point x="1056.33" y="1289.48" type="line"/>
      <point x="1464.33" y="1289.48" type="line"/>
      <point x="1464.33" y="0" type="line"/>
      <point x="1081.14" y="0" type="line"/>
      <point x="1081.14" y="738.121" type="line"/>
      <point x="845.326" y="0" type="line"/>
      <point x="576.326" y="0" type="line"/>
      <point x="306.719" y="779.128" type="line"/>
      <point x="306.719" y="0.277344" type="line"/>
      <point x="105.841" y="0.277344" type="line"/>
      <point x="105.841" y="1099.15" type="line"/>
      <point x="0" y="1099.15" type="line"/>
      <point x="0" y="1289.48" type="line"/>
      <point x="522.326" y="1289.48" type="line"/>
      <point x="797.691" y="472.132" type="line"/>
    </contour>
  </outline>
</glyph>
<glyph name="N" format="1">
  <advance width="1083"/>
  <unicode hex="004E"/>
  <outline>
    <contour>
      <point x="697" y="858" type="line"/>
      <point x="746" y="413" type="line"/>
      <point x="570" y="792" type="line"/>
      <point x="386" y="1172" type="line"/>
      <point x="18" y="1172" type="line"/>
      <point x="67" y="1078" type="line"/>
      <point x="67" y="0" type="line"/>
      <point x="385" y="0" type="line"/>
      <point x="385" y="369" type="line"/>
      <point x="326" y="753" type="line"/>
      <point x="473" y="463" type="line"/>
      <point x="711" y="0" type="line"/>
      <point x="1016" y="0" type="line"/>
      <point x="1016" y="1172" type="line"/>
      <point x="697" y="1172" type="line"/>
    </contour>
  </outline>
</glyph>
<glyph name="P" format="1">
  <advance width="1068"/>
  <unicode hex="0050"/>
  <outline>
    <contour>
      <point x="558" y="1102" type="line"/>
      <point x="615" y="1102"/>
      <point x="722" y="1100"/>
      <point x="722" y="918" type="curve" smooth="yes"/>
      <point x="722" y="801" type="line" smooth="yes"/>
      <point x="722" y="671"/>
      <point x="663" y="580"/>
      <point x="568" y="580" type="curve" smooth="yes"/>
      <point x="456" y="580" type="line"/>
      <point x="456" y="1102" type="line"/>
    </contour>
    <contour>
      <point x="456" y="0" type="line"/>
      <point x="456" y="395" type="line"/>
      <point x="512" y="395"/>
      <point x="622" y="398"/>
      <point x="668" y="403" type="curve" smooth="yes"/>
      <point x="1060" y="448"/>
      <point x="1061" y="810"/>
      <point x="1061" y="943" type="curve" smooth="yes"/>
      <point x="1061" y="1137"/>
      <point x="893" y="1307"/>
      <point x="595" y="1307" type="curve" smooth="yes"/>
      <point x="482" y="1307"/>
      <point x="373" y="1289"/>
      <point x="87" y="1289" type="curve"/>
      <point x="85" y="0" type="line"/>
    </contour>
    <contour>
      <point x="573" y="500" type="move" name="top"/>
    </contour>
    <contour>
      <point x="573" y="-100" type="move" name="btm"/>
    </contour>
  </outline>
</glyph>
<glyph name="Q" format="1">
  <advance width="1289"/>
  <unicode hex="0051"/>
  <outline>
    <contour>
      <point x="644" y="119" type="curve" smooth="yes"/>
      <point x="753" y="119"/>
      <point x="823" y="315"/>
      <point x="823" y="441" type="curve" smooth="yes"/>
      <point x="823" y="840" type="line" smooth="yes"/>
      <point x="823" y="966"/>
      <point x="753" y="1169"/>
      <point x="644" y="1169" type="curve" smooth="yes"/>
      <point x="536" y="1169"/>
      <point x="466" y="973"/>
      <point x="466" y="847" type="curve" smooth="yes"/>
      <point x="466" y="446" type="line" smooth="yes"/>
      <point x="466" y="320"/>
      <point x="536" y="119"/>
    </contour>
    <contour>
      <point x="629" y="-36" type="curve" smooth="yes"/>
      <point x="182" y="-36"/>
      <point x="32" y="303"/>
      <point x="32" y="624" type="curve" smooth="yes"/>
      <point x="32" y="884"/>
      <point x="191" y="1325"/>
      <point x="660" y="1325" type="curve" smooth="yes"/>
      <point x="1107" y="1325"/>
      <point x="1257" y="986"/>
      <point x="1257" y="665" type="curve" smooth="yes"/>
      <point x="1257" y="405"/>
      <point x="1098" y="-36"/>
    </contour>
    <contour>
      <point x="619" y="0" type="curve"/>
      <point x="619" y="0"/>
      <point x="807" y="0"/>
      <point x="807" y="0" type="curve"/>
      <point x="821" y="-51"/>
      <point x="931" y="-121"/>
      <point x="1027" y="-121" type="curve" smooth="yes"/>
      <point x="1132" y="-121"/>
      <point x="1177" y="-105"/>
      <point x="1199" y="-80" type="curve"/>
      <point x="1199" y="-80"/>
      <point x="1200" y="-365"/>
      <point x="1200" y="-365" type="curve"/>
      <point x="1168" y="-384"/>
      <point x="1127" y="-410"/>
      <point x="1031" y="-410" type="curve" smooth="yes"/>
      <point x="810" y="-410"/>
      <point x="617" y="-286"/>
      <point x="617" y="-35" type="curve" smooth="yes"/>
      <point x="617" y="-13"/>
      <point x="619" y="0"/>
    </contour>
    <contour>
      <point x="644" y="500" type="move" name="top"/>
    </contour>
    <contour>
      <point x="644" y="-100" type="move" name="btm"/>
    </contour>
  </outline>
</glyph>
<glyph name="R" format="1">
  <advance width="967"/>
  <unicode hex="0052"/>
  <outline>
    <contour>
      <point x="513" y="447" type="line"/>
      <point x="587" y="307"/>
      <point x="571" y="41"/>
      <point x="601" y="0" type="curve"/>
      <point x="970" y="0" type="line"/>
      <point x="889" y="104"/>
      <point x="903" y="410"/>
      <point x="737" y="447" type="curve"/>
    </contour>
    <contour>
      <point x="396" y="0" type="line"/>
      <point x="396" y="390" type="line"/>
      <point x="425" y="389"/>
      <point x="479" y="385"/>
      <point x="533" y="385" type="curve" smooth="yes"/>
      <point x="724" y="385"/>
      <point x="925" y="536"/>
      <point x="925" y="795" type="curve" smooth="yes"/>
      <point x="925" y="1058"/>
      <point x="783" y="1181"/>
      <point x="496" y="1181" type="curve" smooth="yes"/>
      <point x="377" y="1181"/>
      <point x="296" y="1172"/>
      <point x="196" y="1172" type="curve" smooth="yes"/>
      <point x="64" y="1172" type="line"/>
      <point x="64" y="0" type="line"/>
    </contour>
    <contour>
      <point x="415" y="988" type="line" smooth="yes"/>
      <point x="519" y="988"/>
      <point x="591" y="955"/>
      <point x="591" y="832" type="curve" smooth="yes"/>
      <point x="591" y="753" type="line" smooth="yes"/>
      <point x="591" y="589"/>
      <point x="513" y="576"/>
      <point x="428" y="576" type="curve" smooth="yes"/>
      <point x="396" y="576" type="line"/>
      <point x="396" y="988" type="line"/>
    </contour>
  </outline>
</glyph>
<glyph name="T" format="1">
  <advance width="1232"/>
  <unicode hex="0054"/>
  <outline>
    <contour>
      <point x="0" y="1289.48" type="line"/>
      <point x="1142.92" y="1289.48" type="line"/>
      <point x="1142.92" y="890.788" type="line"/>
      <point x="997.184" y="890.788" type="line"/>
      <point x="996.906" y="1048.72" type="line" smooth="yes"/>
      <point x="996.906" y="1068.67"/>
      <point x="983.329" y="1085.85"/>
      <point x="948.419" y="1089.73" type="curve" smooth="yes"/>
      <point x="763.058" y="1089.73" type="line"/>
      <point x="762.78" y="-0.277344" type="line"/>
      <point x="379.59" y="0" type="line"/>
      <point x="379.59" y="1089.45" type="line"/>
      <point x="194.229" y="1089.45" type="line" smooth="yes"/>
      <point x="159.316" y="1085.57"/>
      <point x="145.74" y="1068.39"/>
      <point x="145.74" y="1048.44" type="curve" smooth="yes"/>
      <point x="145.463" y="890.51" type="line"/>
      <point x="0" y="890.51" type="line"/>
    </contour>
  </outline>
</glyph>
<glyph name="U" format="1">
  <advance width="1137"/>
  <unicode hex="0055"/>
  <outline>
    <contour>
      <point x="1046.23" y="1289.48" type="line"/>
      <point x="1047.61" y="390.984" type="line" smooth="yes"/>
      <point x="1048.04" y="113.636"/>
      <point x="855.322" y="-35.9844"/>
      <point x="592.381" y="-35.9844" type="curve" smooth="yes"/>
      <point x="208.081" y="-35.9844"/>
      <point x="105.564" y="158.798"/>
      <point x="105.564" y="397.911" type="curve" smooth="yes"/>
      <point x="105.564" y="1100.84" type="line"/>
      <point x="0" y="1100.84" type="line"/>
      <point x="0" y="1289.48" type="line"/>
      <point x="488.756" y="1289.48" type="line"/>
      <point x="488.756" y="376.022" type="line" smooth="yes"/>
      <point x="488.756" y="222.524"/>
      <point x="568.83" y="157.966"/>
      <point x="667.468" y="157.966" type="curve" smooth="yes"/>
      <point x="766.104" y="157.966"/>
      <point x="846.08" y="214.489"/>
      <point x="846.179" y="377.13" type="curve" smooth="yes"/>
      <point x="846.733" y="1289.48" type="line"/>
    </contour>
  </outline>
</glyph>
<glyph name="V" format="1">
  <advance width="1137"/>
  <unicode hex="0056"/>
  <outline>
    <contour>
      <point x="659" y="346" type="line"/>
      <point x="367" y="1289" type="line"/>
      <point x="-24" y="1289" type="line"/>
      <point x="407" y="0" type="line"/>
      <point x="731" y="0" type="line"/>
      <point x="1161" y="1289" type="line"/>
      <point x="937" y="1289" type="line"/>
    </contour>
    <contour>
      <point x="568" y="500" type="move" name="top"/>
    </contour>
    <contour>
      <point x="568" y="-100" type="move" name="btm"/>
    </contour>
  </outline>
</glyph>
<glyph name="W" format="1">
  <advance width="1330"/>
  <unicode hex="0057"/>
  <outline>
    <contour>
      <point x="1012" y="768" type="line"/>
      <point x="957" y="376" type="line"/>
      <point x="869" y="768" type="line"/>
      <point x="797" y="1172" type="line"/>
      <point x="470" y="1172" type="line"/>
      <point x="547" y="875" type="line"/>
      <point x="521" y="768" type="line"/>
      <point x="420" y="376" type="line"/>
      <point x="341" y="768" type="line"/>
      <point x="288" y="1172" type="line"/>
      <point x="-45" y="1172" type="line"/>
      <point x="234" y="0" type="line"/>
      <point x="550" y="0" type="line"/>
      <point x="653" y="471" type="line"/>
      <point x="776" y="0" type="line"/>
      <point x="1117" y="0" type="line"/>
      <point x="1375" y="1172" type="line"/>
      <point x="1071" y="1172" type="line"/>
    </contour>
  </outline>
</glyph>
<glyph name="X" format="1">
  <advance width="908"/>
  <unicode hex="0058"/>
  <outline>
    <contour>
      <point x="343" y="1172" type="line"/>
      <point x="-51" y="1172" type="line"/>
      <point x="261" y="582" type="line"/>
      <point x="-66" y="0" type="line"/>
      <point x="262" y="0" type="line"/>
      <point x="376" y="270" type="line"/>
      <point x="425" y="392" type="line"/>
      <point x="463" y="270" type="line"/>
      <point x="571" y="0" type="line"/>
      <point x="959" y="0" type="line"/>
      <point x="634" y="643" type="line"/>
      <point x="945" y="1172" type="line"/>
      <point x="618" y="1172" type="line"/>
      <point x="523" y="949" type="line"/>
      <point x="475" y="824" type="line"/>
      <point x="431" y="951" type="line"/>
    </contour>
  </outline>
</glyph>
<glyph name="Y" format="1">
  <advance width="1410"/>
  <unicode hex="0059"/>
  <outline>
    <contour>
      <point x="1320.18" y="1289.48" type="line"/>
      <point x="869.176" y="457.17" type="line"/>
      <point x="869.176" y="0" type="line"/>
      <point x="485.985" y="0" type="line"/>
      <point x="485.985" y="396.49" type="line"/>
      <point x="101.686" y="1098.31" type="line"/>
      <point x="0" y="1099.15" type="line"/>
      <point x="0" y="1289.48" type="line"/>
      <point x="404.176" y="1289.48" type="line"/>
      <point x="754.469" y="646.133" type="line"/>
      <point x="1102.18" y="1289.48" type="line"/>
    </contour>
  </outline>
</glyph>
<glyph name="Z" format="1">
  <advance width="1201"/>
  <unicode hex="005A"/>
  <outline>
    <contour>
      <point x="173.475" y="1289.48" type="line"/>
      <point x="1052.63" y="1289.48" type="line"/>
      <point x="1051.52" y="1134.33" type="line"/>
      <point x="519.261" y="183.422" type="line"/>
      <point x="887.214" y="183.976" type="line" smooth="yes"/>
      <point x="922.124" y="187.854"/>
      <point x="935.701" y="205.033"/>
      <point x="935.701" y="224.982" type="curve" smooth="yes"/>
      <point x="935.979" y="393.442" type="line"/>
      <point x="1081.44" y="393.442" type="line"/>
      <point x="1081.44" y="0" type="line"/>
      <point x="120" y="0" type="line"/>
      <point x="120" y="195.336" type="line"/>
      <point x="622.886" y="1097.76" type="line"/>
      <point x="367.703" y="1098.59" type="line" smooth="yes"/>
      <point x="332.791" y="1094.71"/>
      <point x="319.215" y="1077.53"/>
      <point x="319.215" y="1057.58" type="curve" smooth="yes"/>
      <point x="318.938" y="889.956" type="line"/>
      <point x="173.475" y="889.956" type="line"/>
    </contour>
  </outline>
</glyph>
<glyph name="bracketleft" format="1">
  <advance width="430"/>
  <unicode hex="005B"/>
  <outline>
    <contour>
      <point x="381" y="1629" type="line"/>
      <point x="0" y="1629" type="line"/>
      <point x="0" y="-595" type="line"/>
      <point x="381" y="-595" type="line"/>
      <point x="381" y="-451" type="line"/>
      <point x="203" y="-451" type="line"/>
      <point x="203" y="1486" type="line"/>
      <point x="381" y="1486" type="line"/>
    </contour>
  </outline>
</glyph>
<glyph name="backslash" format="1">
  <advance width="1052"/>
  <unicode hex="005C"/>
  <outline>
    <contour>
      <point x="803" y="0" type="line"/>
      <point x="1032" y="0" type="line"/>
      <point x="249" y="1289" type="line"/>
      <point x="20" y="1289" type="line"/>
    </contour>
  </outline>
</glyph>
<glyph name="bracketright" format="1">
  <advance width="430"/>
  <unicode hex="005D"/>
  <outline>
    <contour>
      <point x="0" y="1629" type="line"/>
      <point x="381" y="1629" type="line"/>
      <point x="381" y="-595" type="line"/>
      <point x="0" y="-595" type="line"/>
      <point x="0" y="-451" type="line"/>
      <point x="178" y="-451" type="line"/>
      <point x="178" y="1486" type="line"/>
      <point x="0" y="1486" type="line"/>
    </contour>
  </outline>
</glyph>
<glyph name="asciicircum" format="1">
  <advance width="1147"/>
  <unicode hex="005E"/>
  <outline>
    <contour>
      <point x="709" y="301" type="line"/>
      <point x="499" y="958" type="line"/>
      <point x="333" y="301" type="line"/>
      <point x="80" y="301" type="line"/>
      <point x="370" y="1288" type="line"/>
      <point x="648" y="1288" type="line"/>
      <point x="1007" y="301" type="line"/>
    </contour>
  </outline>
</glyph>
<glyph name="underscore" format="1">
  <advance width="958"/>
  <unicode hex="005F"/>
  <outline>
    <contour>
      <point x="80" y="0" type="line"/>
      <point x="80" y="394.511" type="line"/>
      <point x="878.438" y="394.511" type="line"/>
      <point x="878.438" y="0" type="line"/>
    </contour>
  </outline>
</glyph>
<glyph name="a" format="1">
  <advance width="1186"/>
  <unicode hex="0061"/>
  <outline>
    <contour>
      <point x="1031.14" y="557.192" type="curve" smooth="yes"/>
      <point x="1031.14" y="171.784" type="line"/>
      <point x="1136.7" y="171.784" type="line"/>
      <point x="1136.7" y="0" type="line"/>
      <point x="661.247" y="0" type="line"/>
      <point x="661.247" y="98.915" type="line"/>
      <point x="661.247" y="98.915"/>
      <point x="592.533" y="-22.9971"/>
      <point x="402.185" y="-22.9971" type="curve" smooth="yes"/>
      <point x="236.495" y="-22.9971"/>
      <point x="60" y="75.3633"/>
      <point x="60" y="257.123" type="curve" smooth="yes"/>
      <point x="60" y="650.843"/>
      <point x="661.801" y="661.094"/>
      <point x="661.801" y="661.094" type="curve"/>
      <point x="661.801" y="661.094"/>
      <point x="654.044" y="817.64"/>
      <point x="465.634" y="817.64" type="curve" smooth="yes"/>
      <point x="386.945" y="817.64"/>
      <point x="279.995" y="783.838"/>
      <point x="232.339" y="689.91" type="curve"/>
      <point x="125.666" y="798.522" type="line"/>
      <point x="202.692" y="935.396"/>
      <point x="351.479" y="1010.48"/>
      <point x="545.431" y="1010.48" type="curve" smooth="yes"/>
      <point x="881.243" y="1010.48"/>
      <point x="1031.14" y="870.561"/>
    </contour>
    <contour>
      <point x="661.523" y="197.275" type="line"/>
      <point x="661.523" y="549.711" type="line"/>
      <point x="653.212" y="547.494" type="line" smooth="yes"/>
      <point x="650.996" y="546.94"/>
      <point x="447.624" y="492.08"/>
      <point x="447.624" y="333.595" type="curve" smooth="yes"/>
      <point x="447.624" y="255.184"/>
      <point x="501.1" y="170.399"/>
      <point x="587.269" y="170.399" type="curve" smooth="yes"/>
      <point x="635.202" y="170.399"/>
      <point x="659.308" y="195.059"/>
      <point x="659.585" y="195.335" type="curve" smooth="yes"/>
    </contour>
  </outline>
</glyph>
<glyph name="b" format="1">
  <advance width="1123"/>
  <unicode hex="0062"/>
  <outline>
    <contour>
      <point x="463" y="1388" type="line"/>
      <point x="389" y="1388" type="line"/>
      <point x="9" y="1331" type="line"/>
      <point x="9" y="1212" type="line"/>
      <point x="97" y="1170" type="line"/>
      <point x="98" y="0" type="line"/>
      <point x="463" y="0" type="line"/>
    </contour>
    <contour>
      <point x="460" y="785" type="line"/>
      <point x="564" y="850"/>
      <point x="683" y="805"/>
      <point x="683" y="606" type="curve" smooth="yes"/>
      <point x="683" y="383" type="line" smooth="yes"/>
      <point x="683" y="210"/>
      <point x="619" y="111"/>
      <point x="450" y="149" type="curve"/>
      <point x="450" y="46" type="line"/>
      <point x="450" y="46"/>
      <point x="530" y="-13"/>
      <point x="682" y="-13" type="curve" smooth="yes"/>
      <point x="948" y="-13"/>
      <point x="1078" y="237"/>
      <point x="1078" y="509" type="curve" smooth="yes"/>
      <point x="1078" y="787"/>
      <point x="972" y="997"/>
      <point x="702" y="997" type="curve" smooth="yes"/>
      <point x="489" y="997"/>
      <point x="420" y="830"/>
      <point x="420" y="830" type="curve"/>
    </contour>
    <contour>
      <point x="543" y="500" type="move" name="top"/>
    </contour>
    <contour>
      <point x="543" y="-100" type="move" name="btm"/>
    </contour>
  </outline>
</glyph>
<glyph name="d" format="1">
  <advance width="1139"/>
  <unicode hex="0064"/>
  <outline>
    <contour>
      <point x="584.271" y="1289.48" type="line"/>
      <point x="1059.45" y="1289.48" type="line"/>
      <point x="1059.73" y="0" type="line"/>
      <point x="689.836" y="0" type="line"/>
      <point x="689.56" y="94.4814" type="line"/>
      <point x="689.56" y="94.4814"/>
      <point x="609.762" y="-13.0225"/>
      <point x="446.289" y="-13.0225" type="curve" smooth="yes"/>
      <point x="175.867" y="-13.0225"/>
      <point x="80" y="276.795"/>
      <point x="80" y="524.775" type="curve" smooth="yes"/>
      <point x="80" y="810.714"/>
      <point x="238.763" y="1010.21"/>
      <point x="465.962" y="1010.21" type="curve" smooth="yes"/>
      <point x="618.351" y="1010.21"/>
      <point x="689.836" y="911.015"/>
      <point x="689.836" y="911.015" type="curve"/>
      <point x="689.836" y="1112.17" type="line"/>
      <point x="584.271" y="1112.17" type="line"/>
    </contour>
    <contour>
      <point x="689.836" y="178.989" type="line"/>
      <point x="689.56" y="178.989" type="line"/>
      <point x="689.56" y="828.169" type="line"/>
      <point x="632.204" y="827.338" type="line" smooth="yes"/>
      <point x="554.625" y="827.338"/>
      <point x="491.729" y="764.166"/>
      <point x="491.729" y="686.863" type="curve" smooth="yes"/>
      <point x="491.729" y="320.573" type="line" smooth="yes"/>
      <point x="491.729" y="242.992"/>
      <point x="554.901" y="180.097"/>
      <point x="632.204" y="180.097" type="curve" smooth="yes"/>
    </contour>
  </outline>
</glyph>
<glyph name="e" format="1">
  <advance width="1045"/>
  <unicode hex="0065"/>
  <outline>
    <contour>
      <point x="449" y="442" type="line"/>
      <point x="1001" y="442" type="line"/>
      <point x="1001" y="601" type="line" smooth="yes"/>
      <point x="1000" y="631"/>
      <point x="993" y="767"/>
      <point x="930" y="864" type="curve" smooth="yes"/>
      <point x="854" y="980"/>
      <point x="755" y="1010"/>
      <point x="555" y="1010" type="curve" smooth="yes"/>
      <point x="249" y="1010"/>
      <point x="57" y="828"/>
      <point x="57" y="493" type="curve" smooth="yes"/>
      <point x="57" y="243"/>
      <point x="159" y="-23"/>
      <point x="596" y="-23" type="curve" smooth="yes"/>
      <point x="718" y="-23"/>
      <point x="883" y="19"/>
      <point x="976" y="163" type="curve"/>
      <point x="912" y="263" type="line"/>
      <point x="847" y="202"/>
      <point x="771" y="188"/>
      <point x="664" y="188" type="curve" smooth="yes"/>
      <point x="555" y="189"/>
      <point x="449" y="243"/>
      <point x="449" y="420" type="curve" smooth="yes"/>
    </contour>
    <contour>
      <point x="577" y="879" type="curve" smooth="yes"/>
      <point x="639" y="879"/>
      <point x="662" y="812"/>
      <point x="662" y="610" type="curve"/>
      <point x="449" y="580" type="line"/>
      <point x="449" y="730"/>
      <point x="441" y="879"/>
    </contour>
    <contour>
      <point x="529" y="500" type="move" name="top"/>
    </contour>
    <contour>
      <point x="529" y="-100" type="move" name="btm"/>
    </contour>
  </outline>
</glyph>
<glyph name="f" format="1">
  <advance width="562"/>
  <unicode hex="0066"/>
  <outline>
    <contour>
      <point x="664" y="1254" type="line"/>
      <point x="648" y="1270"/>
      <point x="562" y="1305"/>
      <point x="461" y="1305" type="curve" smooth="yes"/>
      <point x="268" y="1305"/>
      <point x="105" y="1217"/>
      <point x="105" y="937" type="curve" smooth="yes"/>
      <point x="105" y="850" type="line"/>
      <point x="4" y="807" type="line"/>
      <point x="4" y="674" type="line"/>
      <point x="101" y="674" type="line"/>
      <point x="101" y="0" type="line"/>
      <point x="426" y="0" type="line"/>
      <point x="426" y="674" type="line"/>
      <point x="555" y="674" type="line"/>
      <point x="555" y="850" type="line"/>
      <point x="426" y="850" type="line"/>
      <point x="426" y="993" type="line" smooth="yes"/>
      <point x="426" y="1103"/>
      <point x="472" y="1126"/>
      <point x="527" y="1126" type="curve" smooth="yes"/>
      <point x="580" y="1126"/>
      <point x="608" y="1111"/>
      <point x="626" y="1102" type="curve"/>
    </contour>
  </outline>
</glyph>
<glyph name="g" format="1">
  <advance width="939"/>
  <unicode hex="0067"/>
  <outline>
    <contour>
      <point x="570" y="195" type="line"/>
      <point x="545" y="179"/>
      <point x="519" y="170"/>
      <point x="495" y="170" type="curve" smooth="yes"/>
      <point x="432" y="170"/>
      <point x="379" y="228"/>
      <point x="379" y="359" type="curve" smooth="yes"/>
      <point x="379" y="514" type="line" smooth="yes"/>
      <point x="379" y="645"/>
      <point x="418" y="719"/>
      <point x="513" y="719" type="curve" smooth="yes"/>
      <point x="532" y="719"/>
      <point x="553" y="716"/>
      <point x="576" y="710" type="curve"/>
      <point x="604" y="788" type="line"/>
      <point x="604" y="788"/>
      <point x="520" y="858"/>
      <point x="366" y="858" type="curve" smooth="yes"/>
      <point x="141" y="858"/>
      <point x="31" y="661"/>
      <point x="31" y="415" type="curve" smooth="yes"/>
      <point x="31" y="161"/>
      <point x="120" y="-12"/>
      <point x="350" y="-12" type="curve" smooth="yes"/>
      <point x="530" y="-12"/>
      <point x="604" y="139"/>
      <point x="604" y="139" type="curve"/>
    </contour>
    <contour>
      <point x="557" y="-9" type="line"/>
      <point x="555" y="-70"/>
      <point x="539" y="-164"/>
      <point x="400" y="-164" type="curve" smooth="yes"/>
      <point x="346" y="-164"/>
      <point x="256" y="-138"/>
      <point x="223" y="-113" type="curve"/>
      <point x="160" y="-250" type="line"/>
      <point x="196" y="-289"/>
      <point x="353" y="-353"/>
      <point x="463" y="-353" type="curve" smooth="yes"/>
      <point x="737" y="-353"/>
      <point x="879" y="-224"/>
      <point x="879" y="37" type="curve" smooth="yes"/>
      <point x="879" y="705" type="line"/>
      <point x="939" y="747" type="line"/>
      <point x="939" y="841" type="line"/>
      <point x="751" y="850" type="line"/>
      <point x="598" y="850" type="line"/>
      <point x="557" y="735" type="line"/>
    </contour>
  </outline>
</glyph>
<glyph name="h" format="1">
  <advance width="1123"/>
  <unicode hex="0068"/>
  <outline>
    <contour>
      <point x="477.119" y="890.51" type="line"/>
      <point x="477.119" y="890.51"/>
      <point x="549.713" y="1008.82"/>
      <point x="710.968" y="1009.1" type="curve" smooth="yes"/>
      <point x="936.782" y="1009.1"/>
      <point x="1033.2" y="888.848"/>
      <point x="1033.2" y="607.619" type="curve" smooth="yes"/>
      <point x="1032.93" y="0" type="line"/>
      <point x="663.866" y="0" type="line"/>
      <point x="663.866" y="666.081" type="line" smooth="yes"/>
      <point x="663.866" y="740.336"/>
      <point x="605.681" y="798.522"/>
      <point x="531.148" y="798.522" type="curve" smooth="yes"/>
      <point x="476.288" y="799.353" type="line"/>
      <point x="476.288" y="-0.554688" type="line"/>
      <point x="106.396" y="-0.554688" type="line"/>
      <point x="105.564" y="1111.89" type="line"/>
      <point x="0" y="1111.89" type="line"/>
      <point x="0" y="1289.48" type="line"/>
      <point x="476.288" y="1289.48" type="line"/>
    </contour>
  </outline>
</glyph>
<glyph name="i" format="1">
  <advance width="573"/>
  <unicode hex="0069"/>
  <outline>
    <contour>
      <point x="281" y="1496" type="line"/>
      <point x="105" y="1311" type="line"/>
      <point x="105" y="1259" type="line"/>
      <point x="281" y="1069" type="line"/>
      <point x="327" y="1069" type="line"/>
      <point x="513" y="1259" type="line"/>
      <point x="513" y="1313" type="line"/>
      <point x="327" y="1496" type="line"/>
    </contour>
    <contour>
      <point x="268" y="500" type="move" name="top"/>
    </contour>
    <contour>
      <point x="268" y="-100" type="move" name="btm"/>
    </contour>
    <component base="dotlessi"/>
  </outline>
</glyph>
<glyph name="l" format="1">
  <advance width="573"/>
  <unicode hex="006C"/>
  <outline>
    <contour>
      <point x="483" y="1388" type="line"/>
      <point x="408" y="1388" type="line"/>
      <point x="28" y="1331" type="line"/>
      <point x="28" y="1212" type="line"/>
      <point x="117" y="1170" type="line"/>
      <point x="117" y="0" type="line"/>
      <point x="483" y="0" type="line"/>
    </contour>
    <contour>
      <point x="255" y="500" type="move" name="top"/>
    </contour>
    <contour>
      <point x="255" y="-100" type="move" name="btm"/>
    </contour>
    <contour>
      <point x="630" y="600" type="move" name="car"/>
    </contour>
  </outline>
</glyph>
<glyph name="m" format="1">
  <advance width="1698"/>
  <unicode hex="006D"/>
  <outline>
    <contour>
      <point x="747" y="1009" type="curve" smooth="yes"/>
      <point x="585" y="1009"/>
      <point x="479" y="837"/>
      <point x="479" y="837" type="curve"/>
      <point x="478" y="987" type="line"/>
      <point x="296" y="987" type="line"/>
      <point x="26" y="930" type="line"/>
      <point x="26" y="811" type="line"/>
      <point x="114" y="769" type="line"/>
      <point x="115" y="0" type="line"/>
      <point x="479" y="0" type="line"/>
      <point x="478" y="759" type="line"/>
      <point x="508" y="781"/>
      <point x="541" y="799"/>
      <point x="584" y="799" type="curve" smooth="yes"/>
      <point x="653" y="799"/>
      <point x="682" y="758"/>
      <point x="681" y="695" type="curve"/>
      <point x="681" y="0" type="line"/>
      <point x="1049" y="0" type="line"/>
      <point x="1049" y="611" type="line" smooth="yes"/>
      <point x="1049" y="922"/>
      <point x="970" y="1009"/>
    </contour>
    <contour>
      <point x="940" y="780" type="line"/>
      <point x="940" y="780"/>
      <point x="1035" y="759"/>
      <point x="1035" y="759" type="curve"/>
      <point x="1065" y="781"/>
      <point x="1112" y="799"/>
      <point x="1155" y="799" type="curve" smooth="yes"/>
      <point x="1224" y="799"/>
      <point x="1254" y="758"/>
      <point x="1253" y="695" type="curve"/>
      <point x="1253" y="0" type="line"/>
      <point x="1621" y="0" type="line"/>
      <point x="1621" y="611" type="line" smooth="yes"/>
      <point x="1621" y="896"/>
      <point x="1541" y="1009"/>
      <point x="1318" y="1009" type="curve" smooth="yes"/>
      <point x="1170" y="1009"/>
      <point x="1041" y="889"/>
      <point x="1018" y="827" type="curve"/>
    </contour>
    <contour>
      <point x="823" y="500" type="move" name="top"/>
    </contour>
    <contour>
      <point x="823" y="-100" type="move" name="btm"/>
    </contour>
  </outline>
</glyph>
<glyph name="n" format="1">
  <advance width="1123"/>
  <unicode hex="006E"/>
  <outline>
    <contour>
      <point x="710.967" y="1008.82" type="curve" smooth="yes"/>
      <point x="933.732" y="1008.82"/>
      <point x="1033.2" y="881.921"/>
      <point x="1033.2" y="597.091" type="curve" smooth="yes"/>
      <point x="1033.2" y="0" type="line"/>
      <point x="664.142" y="0" type="line"/>
      <point x="663.864" y="666.082" type="line" smooth="yes"/>
      <point x="663.864" y="740.337"/>
      <point x="605.68" y="798.522"/>
      <point x="531.147" y="798.522" type="curve" smooth="yes"/>
      <point x="476.286" y="799.354" type="line"/>
      <point x="476.563" y="-0.276367" type="line"/>
      <point x="106.672" y="-0.276367" type="line"/>
      <point x="105.563" y="815.701" type="line"/>
      <point x="0" y="815.701" type="line"/>
      <point x="0" y="986.5" type="line"/>
      <point x="476.009" y="986.5" type="line"/>
      <point x="477.118" y="890.787" type="line"/>
      <point x="477.118" y="890.787"/>
      <point x="549.434" y="1008.82"/>
    </contour>
  </outline>
</glyph>
<glyph name="p" format="1">
  <advance width="1167"/>
  <unicode hex="0070"/>
  <outline>
    <contour>
      <point x="475.733" y="892.573" type="line"/>
      <point x="475.733" y="892.573"/>
      <point x="574.648" y="998.691"/>
      <point x="719.003" y="998.691" type="curve" smooth="yes"/>
      <point x="989.426" y="998.691"/>
      <point x="1085.29" y="708.874"/>
      <point x="1085.29" y="460.895" type="curve" smooth="yes"/>
      <point x="1085.29" y="174.955"/>
      <point x="926.529" y="-24.5371"/>
      <point x="699.331" y="-24.5371" type="curve" smooth="yes"/>
      <point x="553.313" y="-24.5371"/>
      <point x="475.457" y="74.6553"/>
      <point x="475.457" y="74.6553" type="curve"/>
      <point x="475.457" y="-271.686" type="line"/>
      <point x="105.565" y="-271.686" type="line"/>
      <point x="105.565" y="816.378" type="line"/>
      <point x="0" y="816.378" type="line"/>
      <point x="4.45703" y="986.5" type="line"/>
      <point x="475.733" y="986.5" type="line"/>
    </contour>
    <contour>
      <point x="673.562" y="298.807" type="curve"/>
      <point x="673.841" y="298.807" type="line"/>
      <point x="673.841" y="665.097" type="line" smooth="yes"/>
      <point x="673.841" y="742.677"/>
      <point x="610.667" y="805.571"/>
      <point x="533.364" y="805.571" type="curve" smooth="yes"/>
      <point x="475.733" y="806.681" type="line"/>
      <point x="475.733" y="157.5" type="line"/>
      <point x="533.088" y="158.332" type="line" smooth="yes"/>
      <point x="610.667" y="158.332"/>
      <point x="673.562" y="221.504"/>
    </contour>
  </outline>
</glyph>
<glyph name="q" format="1">
  <advance width="910"/>
  <unicode hex="0071"/>
  <outline>
    <contour>
      <point x="877" y="850" type="line"/>
      <point x="647" y="850" type="line"/>
      <point x="555" y="722" type="line"/>
      <point x="555" y="-302" type="line"/>
      <point x="877" y="-302" type="line"/>
    </contour>
    <contour>
      <point x="570" y="195" type="line"/>
      <point x="545" y="179"/>
      <point x="519" y="170"/>
      <point x="495" y="170" type="curve" smooth="yes"/>
      <point x="432" y="170"/>
      <point x="379" y="228"/>
      <point x="379" y="359" type="curve" smooth="yes"/>
      <point x="379" y="514" type="line" smooth="yes"/>
      <point x="379" y="645"/>
      <point x="418" y="719"/>
      <point x="513" y="719" type="curve" smooth="yes"/>
      <point x="532" y="719"/>
      <point x="553" y="716"/>
      <point x="576" y="710" type="curve"/>
      <point x="604" y="788" type="line"/>
      <point x="604" y="788"/>
      <point x="520" y="858"/>
      <point x="366" y="858" type="curve" smooth="yes"/>
      <point x="141" y="858"/>
      <point x="31" y="661"/>
      <point x="31" y="415" type="curve" smooth="yes"/>
      <point x="31" y="161"/>
      <point x="120" y="-12"/>
      <point x="350" y="-12" type="curve" smooth="yes"/>
      <point x="530" y="-12"/>
      <point x="604" y="139"/>
      <point x="604" y="139" type="curve"/>
    </contour>
  </outline>
</glyph>
<glyph name="r" format="1">
  <advance width="658"/>
  <unicode hex="0072"/>
  <outline>
    <contour>
      <point x="658" y="848" type="line"/>
      <point x="643" y="853"/>
      <point x="625" y="857"/>
      <point x="606" y="857" type="curve" smooth="yes"/>
      <point x="395" y="857"/>
      <point x="355" y="683"/>
      <point x="343" y="612" type="curve"/>
      <point x="314" y="850" type="line"/>
      <point x="233" y="850" type="line"/>
      <point x="18" y="797" type="line"/>
      <point x="18" y="684" type="line"/>
      <point x="78" y="647" type="line"/>
      <point x="78" y="0" type="line"/>
      <point x="401" y="0" type="line"/>
      <point x="401" y="457" type="line"/>
      <point x="413" y="479"/>
      <point x="444" y="511"/>
      <point x="532" y="511" type="curve" smooth="yes"/>
      <point x="586" y="511"/>
      <point x="614" y="501"/>
      <point x="624" y="492" type="curve"/>
    </contour>
  </outline>
</glyph>
<glyph name="t" format="1">
  <advance width="686"/>
  <unicode hex="0074"/>
  <outline>
    <contour>
      <point x="478" y="815" type="line"/>
      <point x="671" y="815" type="line"/>
      <point x="671" y="987" type="line"/>
      <point x="478" y="987" type="line"/>
      <point x="478" y="1229" type="line"/>
      <point x="288" y="1229" type="line"/>
      <point x="109" y="987" type="line"/>
      <point x="29" y="955" type="line"/>
      <point x="29" y="815" type="line"/>
      <point x="109" y="815" type="line"/>
      <point x="109" y="367" type="line" smooth="yes"/>
      <point x="109" y="254"/>
      <point x="101" y="113"/>
      <point x="196" y="37" type="curve" smooth="yes"/>
      <point x="246" y="-3"/>
      <point x="312" y="-23"/>
      <point x="395" y="-23" type="curve" smooth="yes"/>
      <point x="589" y="-23"/>
      <point x="664" y="47"/>
      <point x="680" y="58" type="curve"/>
      <point x="680" y="207" type="line"/>
      <point x="663" y="194"/>
      <point x="629" y="186"/>
      <point x="586" y="186" type="curve" smooth="yes"/>
      <point x="519" y="186"/>
      <point x="478" y="205"/>
      <point x="478" y="331" type="curve" smooth="yes"/>
    </contour>
    <contour>
      <point x="313" y="709" type="move" name="top"/>
    </contour>
    <contour>
      <point x="354" y="-100" type="move" name="btm"/>
    </contour>
    <contour>
      <point x="687" y="600" type="move" name="car"/>
    </contour>
  </outline>
</glyph>
<glyph name="u" format="1">
  <advance width="1122"/>
  <unicode hex="0075"/>
  <outline>
    <contour>
      <point x="661.372" y="986.655" type="line"/>
      <point x="1031.26" y="986.655" type="line"/>
      <point x="1032.09" y="0" type="line"/>
      <point x="661.648" y="0" type="line"/>
      <point x="661.372" y="99.7461" type="line"/>
      <point x="661.372" y="99.7461"/>
      <point x="590.441" y="-22.4434"/>
      <point x="426.968" y="-22.4434" type="curve" smooth="yes"/>
      <point x="201.154" y="-22.4434"/>
      <point x="104.733" y="97.8066"/>
      <point x="104.733" y="379.035" type="curve" smooth="yes"/>
      <point x="105.01" y="815.978" type="line"/>
      <point x="0" y="815.978" type="line"/>
      <point x="0" y="986.933" type="line"/>
      <point x="473.793" y="986.933" type="line"/>
      <point x="473.793" y="320.296" type="line" smooth="yes"/>
      <point x="473.793" y="246.041"/>
      <point x="531.979" y="187.854"/>
      <point x="606.511" y="187.854" type="curve" smooth="yes"/>
      <point x="661.372" y="187.024" type="line"/>
    </contour>
  </outline>
</glyph>
<glyph name="v" format="1">
  <advance width="1136"/>
  <unicode hex="0076"/>
  <outline>
    <contour>
      <point x="0" y="986.5" type="line"/>
      <point x="408.906" y="986.5" type="line"/>
      <point x="644.748" y="294.805" type="line"/>
      <point x="875.906" y="986.5" type="line"/>
      <point x="1046.91" y="986.5" type="line"/>
      <point x="712.906" y="0" type="line"/>
      <point x="372.108" y="0" type="line"/>
      <point x="98.9141" y="815.979" type="line"/>
      <point x="0" y="816.81" type="line"/>
    </contour>
  </outline>
</glyph>
<glyph name="w" format="1">
  <advance width="1279"/>
  <unicode hex="0077"/>
  <outline>
    <contour>
      <point x="504" y="850" type="line"/>
      <point x="551" y="680" type="line"/>
      <point x="460" y="308" type="line"/>
      <point x="339" y="850" type="line"/>
      <point x="-22" y="850" type="line"/>
      <point x="233" y="0" type="line"/>
      <point x="538" y="0" type="line"/>
      <point x="643" y="350" type="line"/>
      <point x="741" y="0" type="line"/>
      <point x="1045" y="0" type="line"/>
      <point x="1301" y="850" type="line"/>
      <point x="1087" y="850" type="line"/>
      <point x="952" y="308" type="line"/>
      <point x="850" y="850" type="line"/>
    </contour>
  </outline>
</glyph>
<glyph name="x" format="1">
  <advance width="820"/>
  <unicode hex="0078"/>
  <outline>
    <contour>
      <point x="-22" y="850" type="line"/>
      <point x="210" y="417" type="line"/>
      <point x="-7" y="0" type="line"/>
      <point x="265" y="0" type="line"/>
      <point x="363" y="237" type="line"/>
      <point x="463" y="0" type="line"/>
      <point x="842" y="0" type="line"/>
      <point x="604" y="444" type="line"/>
      <point x="828" y="850" type="line"/>
      <point x="555" y="850" type="line"/>
      <point x="451" y="624" type="line"/>
      <point x="363" y="850" type="line"/>
    </contour>
  </outline>
</glyph>
<glyph name="y" format="1">
  <advance width="1121"/>
  <unicode hex="0079"/>
  <outline>
    <contour>
      <point x="661.372" y="986.5" type="line"/>
      <point x="1031.54" y="986.5" type="line"/>
      <point x="1031.54" y="106.52" type="line" smooth="yes"/>
      <point x="1031.54" y="-162.241"/>
      <point x="870.284" y="-298.284"/>
      <point x="552.205" y="-298.284" type="curve" smooth="yes"/>
      <point x="420.596" y="-298.284"/>
      <point x="309.49" y="-260.602"/>
      <point x="229.971" y="-188.84" type="curve"/>
      <point x="301.178" y="-110.151" type="line"/>
      <point x="346.063" y="-151.158"/>
      <point x="411.176" y="-175.264"/>
      <point x="477.119" y="-175.264" type="curve" smooth="yes"/>
      <point x="639.206" y="-175.264"/>
      <point x="662.48" y="-47.8105"/>
      <point x="662.48" y="38.6357" type="curve" smooth="yes"/>
      <point x="662.757" y="112.614" type="line"/>
      <point x="662.757" y="112.614"/>
      <point x="587.948" y="6.49609"/>
      <point x="426.969" y="6.49609" type="curve" smooth="yes"/>
      <point x="201.155" y="6.49609"/>
      <point x="104.733" y="126.745"/>
      <point x="104.733" y="407.974" type="curve" smooth="yes"/>
      <point x="105.011" y="814.716" type="line"/>
      <point x="0" y="814.716" type="line"/>
      <point x="0" y="986.5" type="line"/>
      <point x="473.794" y="986.5" type="line"/>
      <point x="473.794" y="349.511" type="line" smooth="yes"/>
      <point x="473.794" y="275.256"/>
      <point x="531.979" y="217.071"/>
      <point x="606.511" y="217.071" type="curve" smooth="yes"/>
      <point x="661.372" y="216.239" type="line"/>
    </contour>
  </outline>
</glyph>
<glyph name="z" format="1">
  <advance width="1058"/>
  <unicode hex="007A"/>
  <outline>
    <contour>
      <point x="243.81" y="767.768" type="curve" smooth="yes"/>
      <point x="243.533" y="699.331" type="line"/>
      <point x="111.37" y="699.331" type="line"/>
      <point x="111.37" y="986.5" type="line"/>
      <point x="976.666" y="986.5" type="line"/>
      <point x="976.666" y="835.928" type="line"/>
      <point x="488.188" y="171.508" type="line"/>
      <point x="789.919" y="170.677" type="line"/>
      <point x="838.962" y="176.219"/>
      <point x="844.227" y="205.864"/>
      <point x="844.227" y="218.332" type="curve" smooth="yes"/>
      <point x="844.504" y="287.047" type="line"/>
      <point x="976.666" y="287.047" type="line"/>
      <point x="976.666" y="0" type="line"/>
      <point x="82" y="0" type="line"/>
      <point x="82" y="193.12" type="line"/>
      <point x="536.676" y="815.146" type="line"/>
      <point x="298.116" y="815.424" type="line"/>
      <point x="249.074" y="809.883"/>
      <point x="243.81" y="780.235"/>
    </contour>
  </outline>
</glyph>
<glyph name="bar" format="1">
  <advance width="362"/>
  <unicode hex="007C"/>
  <outline>
    <contour>
      <point x="80" y="1629.48" type="line"/>
      <point x="282.885" y="1629.48" type="line"/>
      <point x="282.885" y="-595" type="line"/>
      <point x="80" y="-595" type="line"/>
    </contour>
  </outline>
</glyph>
<glyph name="braceright" format="1">
  <advance width="670"/>
  <unicode hex="007D"/>
  <outline>
    <contour>
      <point x="574" y="666" type="line" smooth="yes"/>
      <point x="497" y="666"/>
      <point x="477" y="748"/>
      <point x="477" y="797" type="curve" smooth="yes"/>
      <point x="477" y="1057" type="line" smooth="yes"/>
      <point x="477" y="1256"/>
      <point x="332" y="1418"/>
      <point x="135" y="1418" type="curve" smooth="yes"/>
      <point x="42" y="1418" type="line"/>
      <point x="42" y="1274" type="line"/>
      <point x="161" y="1274"/>
      <point x="205" y="1191"/>
      <point x="205" y="1084" type="curve" smooth="yes"/>
      <point x="205" y="850" type="line" smooth="yes"/>
      <point x="205" y="660"/>
      <point x="384" y="590"/>
      <point x="454" y="578" type="curve"/>
      <point x="384" y="568"/>
      <point x="205" y="495"/>
      <point x="205" y="308" type="curve" smooth="yes"/>
      <point x="205" y="54" type="line" smooth="yes"/>
      <point x="205" y="-53"/>
      <point x="161" y="-136"/>
      <point x="42" y="-136" type="curve"/>
      <point x="42" y="-280" type="line"/>
      <point x="135" y="-280" type="line" smooth="yes"/>
      <point x="332" y="-280"/>
      <point x="477" y="-118"/>
      <point x="477" y="81" type="curve" smooth="yes"/>
      <point x="477" y="360" type="line" smooth="yes"/>
      <point x="477" y="411"/>
      <point x="499" y="491"/>
      <point x="574" y="491" type="curve" smooth="yes"/>
      <point x="639" y="491" type="line"/>
      <point x="639" y="666" type="line"/>
    </contour>
  </outline>
</glyph>
<glyph name="asciitilde" format="1">
  <advance width="1065"/>
  <unicode hex="007E"/>
  <outline>
    <contour>
      <point x="821.952" y="653.929" type="curve" smooth="yes"/>
      <point x="821.785" y="683.2" type="line"/>
      <point x="1025.03" y="683.2" type="line"/>
      <point x="1025.03" y="613.597" type="line" smooth="yes"/>
      <point x="1025.03" y="384.658"/>
      <point x="844.655" y="298.67"/>
      <point x="699.791" y="298.67" type="curve" smooth="yes"/>
      <point x="558.918" y="298.67"/>
      <point x="381.954" y="407.193"/>
      <point x="381.954" y="407.193" type="curve"/>
      <point x="281.58" y="459.834"/>
      <point x="244.158" y="385.489"/>
      <point x="243.076" y="327.61" type="curve" smooth="yes"/>
      <point x="243.243" y="298.421" type="line"/>
      <point x="40" y="298.421" type="line"/>
      <point x="40" y="368.025" type="line" smooth="yes"/>
      <point x="40" y="597.38"/>
      <point x="220.375" y="682.952"/>
      <point x="365.238" y="682.952" type="curve" smooth="yes"/>
      <point x="493.388" y="682.952"/>
      <point x="683.075" y="574.428"/>
      <point x="683.075" y="574.428" type="curve"/>
      <point x="788.522" y="525.114"/>
      <point x="821.952" y="596.632"/>
    </contour>
  </outline>
</glyph>
<glyph name="exclamdown" format="1">
  <advance width="505"/>
  <unicode hex="00A1"/>
  <outline>
    <contour>
      <point x="217.705" y="622.418" type="curve" smooth="yes"/>
      <point x="319.667" y="622.418"/>
      <point x="402.789" y="705.262"/>
      <point x="402.789" y="807.502" type="curve" smooth="yes"/>
      <point x="402.789" y="909.741"/>
      <point x="319.944" y="992.586"/>
      <point x="217.705" y="992.586" type="curve" smooth="yes"/>
      <point x="115.465" y="992.586"/>
      <point x="32.6201" y="909.741"/>
      <point x="32.6201" y="807.502" type="curve" smooth="yes"/>
      <point x="32.6201" y="705.262"/>
      <point x="115.465" y="622.418"/>
    </contour>
    <contour>
      <point x="394.755" y="-224.299" type="curve" smooth="yes"/>
      <point x="462.082" y="-139.515"/>
      <point x="426.895" y="-19.8193"/>
      <point x="418.859" y="3.17676" type="curve" smooth="yes"/>
      <point x="345.436" y="220.401"/>
      <point x="321.33" y="400.499"/>
      <point x="316.896" y="492.21" type="curve"/>
      <point x="116.019" y="492.21" type="line"/>
      <point x="111.586" y="400.499"/>
      <point x="89.1436" y="220.124"/>
      <point x="15.9961" y="3.4541" type="curve" smooth="yes"/>
      <point x="8.2373" y="-20.0967"/>
      <point x="-26.6729" y="-140.07"/>
      <point x="40.3789" y="-224.299" type="curve" smooth="yes"/>
      <point x="78.6143" y="-272.51"/>
      <point x="138.462" y="-296.893"/>
      <point x="217.428" y="-296.893" type="curve" smooth="yes"/>
      <point x="296.671" y="-296.893"/>
      <point x="356.241" y="-272.51"/>
    </contour>
  </outline>
</glyph>
<glyph name="cent" format="1">
  <advance width="847"/>
  <unicode hex="00A2"/>
  <outline>
    <contour>
      <point x="508" y="168" type="curve" smooth="yes"/>
      <point x="453" y="168"/>
      <point x="359" y="173"/>
      <point x="359" y="407" type="curve" smooth="yes"/>
      <point x="359" y="608"/>
      <point x="395" y="686"/>
      <point x="519" y="686" type="curve" smooth="yes"/>
      <point x="657" y="686"/>
      <point x="652" y="623"/>
      <point x="705" y="554" type="curve"/>
      <point x="755" y="767" type="line"/>
      <point x="755" y="767"/>
      <point x="680" y="871"/>
      <point x="464" y="871" type="curve" smooth="yes"/>
      <point x="225" y="871"/>
      <point x="38" y="701"/>
      <point x="38" y="413" type="curve" smooth="yes"/>
      <point x="38" y="161"/>
      <point x="176" y="-21"/>
      <point x="456" y="-21" type="curve" smooth="yes"/>
      <point x="672" y="-21"/>
      <point x="747" y="83"/>
      <point x="747" y="83" type="curve"/>
      <point x="697" y="219" type="line"/>
      <point x="647" y="180"/>
      <point x="564" y="168"/>
    </contour>
    <contour>
      <point x="598" y="531" type="line"/>
      <point x="740" y="532" type="line"/>
      <point x="740" y="532"/>
      <point x="755" y="767"/>
      <point x="755" y="767" type="curve"/>
      <point x="755" y="767"/>
      <point x="516" y="749"/>
      <point x="516" y="749" type="curve"/>
    </contour>
    <contour>
      <point x="315" y="801" type="line"/>
      <point x="566" y="801" type="line"/>
      <point x="566" y="1044" type="line"/>
      <point x="315" y="1044" type="line"/>
    </contour>
    <contour>
      <point x="302" y="-187" type="line"/>
      <point x="553" y="-187" type="line"/>
      <point x="553" y="56" type="line"/>
      <point x="302" y="56" type="line"/>
    </contour>
  </outline>
</glyph>
<glyph name="currency" format="1">
  <advance width="1434"/>
  <unicode hex="00A4"/>
  <outline>
    <contour>
      <point x="295" y="517" type="curve" smooth="yes"/>
      <point x="295" y="271"/>
      <point x="493" y="73"/>
      <point x="739" y="73" type="curve" smooth="yes"/>
      <point x="985" y="73"/>
      <point x="1184" y="271"/>
      <point x="1184" y="517" type="curve" smooth="yes"/>
      <point x="1184" y="763"/>
      <point x="985" y="962"/>
      <point x="739" y="962" type="curve" smooth="yes"/>
      <point x="493" y="962"/>
      <point x="295" y="763"/>
    </contour>
    <contour>
      <point x="523" y="517" type="curve" smooth="yes"/>
      <point x="523" y="648"/>
      <point x="608" y="764"/>
      <point x="739" y="764" type="curve" smooth="yes"/>
      <point x="870" y="764"/>
      <point x="956" y="648"/>
      <point x="956" y="517" type="curve" smooth="yes"/>
      <point x="956" y="386"/>
      <point x="870" y="271"/>
      <point x="739" y="271" type="curve" smooth="yes"/>
      <point x="608" y="271"/>
      <point x="523" y="386"/>
    </contour>
    <contour>
      <point x="816" y="794" type="line"/>
      <point x="983" y="633" type="line"/>
      <point x="1314" y="1094" type="line"/>
      <point x="1041" y="1094" type="line"/>
      <point x="877" y="868" type="line"/>
    </contour>
    <contour>
      <point x="588" y="868" type="line"/>
      <point x="424" y="1094" type="line"/>
      <point x="151" y="1094" type="line"/>
      <point x="482" y="633" type="line"/>
      <point x="649" y="794" type="line"/>
    </contour>
    <contour>
      <point x="887" y="181" type="line"/>
      <point x="1051" y="-45" type="line"/>
      <point x="1324" y="-45" type="line"/>
      <point x="993" y="416" type="line"/>
      <point x="826" y="255" type="line"/>
    </contour>
    <contour>
      <point x="659" y="255" type="line"/>
      <point x="492" y="416" type="line"/>
      <point x="161" y="-45" type="line"/>
      <point x="434" y="-45" type="line"/>
      <point x="598" y="181" type="line"/>
    </contour>
  </outline>
</glyph>
<glyph name="yen" format="1">
  <advance width="1229"/>
  <unicode hex="00A5"/>
  <outline>
    <contour>
      <point x="122" y="394" type="line"/>
      <point x="122" y="548" type="line"/>
      <point x="401" y="548" type="line"/>
      <point x="401" y="642" type="line"/>
      <point x="122" y="642" type="line"/>
      <point x="122" y="796" type="line"/>
      <point x="297" y="796" type="line"/>
      <point x="129" y="1099" type="line"/>
      <point x="0" y="1099" type="line"/>
      <point x="0" y="1289" type="line"/>
      <point x="432" y="1289" type="line"/>
      <point x="679" y="844" type="line"/>
      <point x="923" y="1289" type="line"/>
      <point x="1140" y="1289" type="line"/>
      <point x="873" y="796" type="line"/>
      <point x="1027" y="796" type="line"/>
      <point x="1027" y="642" type="line"/>
      <point x="784" y="642" type="line"/>
      <point x="784" y="548" type="line"/>
      <point x="1027" y="548" type="line"/>
      <point x="1027" y="394" type="line"/>
      <point x="784" y="394" type="line"/>
      <point x="784" y="0" type="line"/>
      <point x="401" y="0" type="line"/>
      <point x="401" y="394" type="line"/>
    </contour>
  </outline>
</glyph>
<glyph name="brokenbar" format="1">
  <advance width="282"/>
  <unicode hex="00A6"/>
  <outline>
    <contour>
      <point x="40" y="1629.48" type="line"/>
      <point x="40" y="629.885" type="line"/>
      <point x="242.885" y="629.885" type="line"/>
      <point x="242.885" y="1629.48" type="line"/>
    </contour>
    <contour>
      <point x="242.885" y="427" type="line"/>
      <point x="40" y="427" type="line"/>
      <point x="40" y="-595" type="line"/>
      <point x="242.885" y="-595" type="line"/>
    </contour>
  </outline>
</glyph>
<glyph name="dieresis" format="1">
  <advance width="817"/>
  <unicode hex="00A8"/>
  <outline>
    <contour>
      <point x="196" y="1300" type="line"/>
      <point x="50" y="1154" type="line"/>
      <point x="50" y="1123" type="line"/>
      <point x="196" y="977" type="line"/>
      <point x="229" y="977" type="line"/>
      <point x="381" y="1123" type="line"/>
      <point x="381" y="1154" type="line"/>
      <point x="229" y="1300" type="line"/>
    </contour>
    <contour>
      <point x="581" y="1300" type="line"/>
      <point x="435" y="1154" type="line"/>
      <point x="435" y="1123" type="line"/>
      <point x="581" y="977" type="line"/>
      <point x="615" y="977" type="line"/>
      <point x="767" y="1123" type="line"/>
      <point x="767" y="1154" type="line"/>
      <point x="615" y="1300" type="line"/>
    </contour>
  </outline>
</glyph>
<glyph name="ordfeminine" format="1">
  <advance width="1053"/>
  <unicode hex="00AA"/>
  <outline>
    <contour>
      <point x="912" y="588" type="line"/>
      <point x="912" y="588" type="line"/>
      <point x="1004" y="588" type="line"/>
      <point x="1004" y="419" type="line"/>
      <point x="581" y="419" type="line"/>
      <point x="581" y="512" type="line" smooth="yes"/>
      <point x="580" y="511"/>
      <point x="516" y="419"/>
      <point x="362" y="419" type="curve" smooth="yes"/>
      <point x="208" y="419"/>
      <point x="60" y="512"/>
      <point x="60" y="667" type="curve" smooth="yes"/>
      <point x="60" y="774"/>
      <point x="128" y="911"/>
      <point x="330" y="977" type="curve" smooth="yes"/>
      <point x="461" y="1021"/>
      <point x="581" y="1022"/>
      <point x="581" y="1022" type="curve"/>
      <point x="581" y="1022"/>
      <point x="572" y="1146"/>
      <point x="417" y="1146" type="curve" smooth="yes"/>
      <point x="347" y="1146"/>
      <point x="255" y="1115"/>
      <point x="217" y="1032" type="curve"/>
      <point x="116" y="1135" type="line"/>
      <point x="184" y="1259"/>
      <point x="319" y="1325"/>
      <point x="486" y="1325" type="curve" smooth="yes"/>
      <point x="831" y="1325"/>
      <point x="912" y="1146"/>
      <point x="912" y="927" type="curve" smooth="yes"/>
    </contour>
    <contour>
      <point x="522" y="598" type="curve" smooth="yes"/>
      <point x="561" y="598"/>
      <point x="580" y="617"/>
      <point x="581" y="617" type="curve" smooth="yes"/>
      <point x="581" y="913" type="line"/>
      <point x="581" y="913"/>
      <point x="407" y="867"/>
      <point x="407" y="733" type="curve" smooth="yes"/>
      <point x="407" y="665"/>
      <point x="453" y="598"/>
    </contour>
  </outline>
</glyph>
<glyph name="logicalnot" format="1">
  <advance width="1148"/>
  <unicode hex="00AC"/>
  <outline>
    <contour>
      <point x="1068.52" y="594.76" type="line"/>
      <point x="1068.52" y="0" type="line"/>
      <point x="867.523" y="0" type="line"/>
      <point x="867.523" y="393.68" type="line"/>
      <point x="80" y="393.68" type="line"/>
      <point x="80" y="594.76" type="line"/>
    </contour>
  </outline>
</glyph>
<glyph name="registered" format="1">
  <advance width="1049"/>
  <unicode hex="00AE"/>
  <outline>
    <contour>
      <point x="506" y="343" type="curve" smooth="yes"/>
      <point x="190" y="343"/>
      <point x="136" y="542"/>
      <point x="136" y="826" type="curve" smooth="yes"/>
      <point x="136" y="1127"/>
      <point x="210" y="1313"/>
      <point x="542" y="1313" type="curve" smooth="yes"/>
      <point x="859" y="1313"/>
      <point x="913" y="1110"/>
      <point x="913" y="827" type="curve" smooth="yes"/>
      <point x="913" y="524"/>
      <point x="837" y="343"/>
    </contour>
    <contour>
      <point x="506" y="247" type="curve"/>
      <point x="915" y="247"/>
      <point x="1009" y="464"/>
      <point x="1009" y="827" type="curve" smooth="yes"/>
      <point x="1009" y="1166"/>
      <point x="942" y="1409"/>
      <point x="542" y="1409" type="curve" smooth="yes"/>
      <point x="131" y="1409"/>
      <point x="40" y="1186"/>
      <point x="40" y="826" type="curve" smooth="yes"/>
      <point x="40" y="485"/>
      <point x="107" y="247"/>
    </contour>
    <contour>
      <point x="545" y="744" type="line"/>
      <point x="583" y="661"/>
      <point x="575" y="502"/>
      <point x="590" y="478" type="curve"/>
      <point x="784" y="478" type="line"/>
      <point x="742" y="540"/>
      <point x="749" y="722"/>
      <point x="662" y="744" type="curve"/>
    </contour>
    <contour>
      <point x="484" y="478" type="line"/>
      <point x="484" y="710" type="line"/>
      <point x="498" y="710"/>
      <point x="526" y="707"/>
      <point x="555" y="707" type="curve" smooth="yes"/>
      <point x="655" y="707"/>
      <point x="760" y="798"/>
      <point x="760" y="952" type="curve" smooth="yes"/>
      <point x="760" y="1109"/>
      <point x="686" y="1182"/>
      <point x="536" y="1182" type="curve" smooth="yes"/>
      <point x="473" y="1182"/>
      <point x="431" y="1177"/>
      <point x="378" y="1177" type="curve" smooth="yes"/>
      <point x="310" y="1177" type="line"/>
      <point x="310" y="478" type="line"/>
    </contour>
    <contour>
      <point x="494" y="1067" type="line" smooth="yes"/>
      <point x="547" y="1067"/>
      <point x="586" y="1047"/>
      <point x="586" y="974" type="curve" smooth="yes"/>
      <point x="586" y="926" type="line" smooth="yes"/>
      <point x="586" y="829"/>
      <point x="545" y="821"/>
      <point x="500" y="821" type="curve" smooth="yes"/>
      <point x="484" y="821" type="line"/>
      <point x="484" y="1067" type="line"/>
    </contour>
  </outline>
</glyph>
<glyph name="macron" format="1">
  <advance width="695"/>
  <unicode hex="00AF"/>
  <outline>
    <contour>
      <point x="645" y="1026" type="line"/>
      <point x="645" y="1256" type="line"/>
      <point x="50" y="1256" type="line"/>
      <point x="50" y="1026" type="line"/>
    </contour>
  </outline>
</glyph>
<glyph name="degree" format="1">
  <advance width="0"/>
  <unicode hex="00B0"/>
  <outline>
    <contour>
      <point x="230" y="1716.43" type="curve" smooth="yes"/>
      <point x="320.066" y="1716.43"/>
      <point x="393.433" y="1643.14"/>
      <point x="393.433" y="1552.91" type="curve" smooth="yes"/>
      <point x="393.433" y="1462.85"/>
      <point x="320.148" y="1389.48"/>
      <point x="230" y="1389.48" type="curve" smooth="yes"/>
      <point x="139.767" y="1389.48"/>
      <point x="66.4824" y="1462.76"/>
      <point x="66.4824" y="1552.91" type="curve" smooth="yes"/>
      <point x="66.4824" y="1643.06"/>
      <point x="139.85" y="1716.43"/>
    </contour>
    <contour>
      <point x="316.192" y="1552.9" type="curve" smooth="yes"/>
      <point x="316.192" y="1600.49"/>
      <point x="277.494" y="1639.09"/>
      <point x="230.007" y="1639.09" type="curve" smooth="yes"/>
      <point x="182.422" y="1639.09"/>
      <point x="143.723" y="1600.49"/>
      <point x="143.723" y="1552.9" type="curve" smooth="yes"/>
      <point x="143.723" y="1505.42"/>
      <point x="182.422" y="1466.82"/>
      <point x="230.007" y="1466.82" type="curve" smooth="yes"/>
      <point x="277.494" y="1466.82"/>
      <point x="316.192" y="1505.42"/>
    </contour>
  </outline>
</glyph>
<glyph name="plusminus" format="1">
  <advance width="1148"/>
  <unicode hex="00B1"/>
  <outline>
    <contour>
      <point x="675" y="752" type="line"/>
      <point x="1069" y="752" type="line"/>
      <point x="1069" y="551" type="line"/>
      <point x="675" y="551" type="line"/>
      <point x="675" y="318" type="line"/>
      <point x="474" y="318" type="line"/>
      <point x="474" y="551" type="line"/>
      <point x="80" y="551" type="line"/>
      <point x="80" y="752" type="line"/>
      <point x="474" y="752" type="line"/>
      <point x="474" y="985" type="line"/>
      <point x="675" y="985" type="line"/>
    </contour>
    <contour>
      <point x="80" y="0" type="line"/>
      <point x="80" y="201" type="line"/>
      <point x="1069" y="201" type="line"/>
      <point x="1069" y="0" type="line"/>
    </contour>
  </outline>
</glyph>
<glyph name="uni00B2" format="1">
  <advance width="792"/>
  <unicode hex="00B2"/>
  <outline>
    <contour>
      <point x="170" y="1599" type="line"/>
      <point x="185" y="1649"/>
      <point x="229" y="1686"/>
      <point x="343" y="1686" type="curve" smooth="yes"/>
      <point x="417" y="1686"/>
      <point x="454" y="1619"/>
      <point x="454" y="1565" type="curve" smooth="yes"/>
      <point x="454" y="1483"/>
      <point x="380" y="1409"/>
      <point x="214" y="1289" type="curve" smooth="yes"/>
      <point x="93" y="1207"/>
      <point x="58" y="1135"/>
      <point x="58" y="1083" type="curve" smooth="yes"/>
      <point x="58" y="1056"/>
      <point x="58" y="996"/>
      <point x="62" y="988" type="curve"/>
      <point x="66" y="980" type="line"/>
      <point x="749" y="980" type="line"/>
      <point x="749" y="1173" type="line"/>
      <point x="269" y="1142" type="line"/>
      <point x="417" y="1299"/>
      <point x="733" y="1356"/>
      <point x="733" y="1573" type="curve" smooth="yes"/>
      <point x="733" y="1757"/>
      <point x="571" y="1812"/>
      <point x="393" y="1812" type="curve" smooth="yes"/>
      <point x="180" y="1812"/>
      <point x="95" y="1744"/>
      <point x="59" y="1697" type="curve"/>
    </contour>
    <contour>
      <point x="266" y="1719" type="line"/>
      <point x="266" y="1719"/>
      <point x="59" y="1697"/>
      <point x="59" y="1697" type="curve"/>
      <point x="59" y="1697"/>
      <point x="71" y="1532"/>
      <point x="71" y="1532" type="curve"/>
      <point x="217" y="1532" type="line"/>
    </contour>
  </outline>
</glyph>
<glyph name="acute" format="1">
  <advance width="503"/>
  <unicode hex="00B4"/>
  <outline>
    <contour>
      <point x="190" y="1296" type="line"/>
      <point x="50" y="966" type="line"/>
      <point x="214" y="966" type="line"/>
      <point x="453" y="1296" type="line"/>
    </contour>
  </outline>
</glyph>
<glyph name="mu" format="1">
  <advance width="1223"/>
  <unicode hex="00B5"/>
  <outline>
    <contour>
      <point x="601" y="280" type="curve" smooth="yes"/>
      <point x="529" y="280"/>
      <point x="507" y="337"/>
      <point x="520" y="412" type="curve" smooth="yes"/>
      <point x="620" y="986" type="line"/>
      <point x="251" y="986" type="line"/>
      <point x="20" y="-297" type="line"/>
      <point x="227" y="-297" type="line"/>
      <point x="315" y="157" type="line"/>
      <point x="321" y="103"/>
      <point x="388" y="0"/>
      <point x="499" y="0" type="curve" smooth="yes"/>
      <point x="627" y="0"/>
      <point x="711" y="31"/>
      <point x="824" y="167" type="curve"/>
      <point x="841" y="0" type="line"/>
      <point x="1108" y="0" type="line"/>
      <point x="1140" y="182" type="line"/>
      <point x="1034" y="182" type="line"/>
      <point x="1174" y="986" type="line"/>
      <point x="804" y="986" type="line"/>
      <point x="700" y="359" type="line"/>
      <point x="693" y="320"/>
      <point x="646" y="280"/>
    </contour>
  </outline>
</glyph>
<glyph name="paragraph" format="1">
  <advance width="1182"/>
  <unicode hex="00B6"/>
  <outline>
    <contour>
      <point x="501.289" y="1289.48" type="curve" smooth="yes"/>
      <point x="1102.08" y="1289.48" type="line"/>
      <point x="1102.08" y="0" type="line"/>
      <point x="900.997" y="0" type="line"/>
      <point x="900.997" y="1094.13" type="line"/>
      <point x="700" y="1094.13" type="line"/>
      <point x="700" y="0" type="line"/>
      <point x="503.45" y="0" type="line"/>
      <point x="501.289" y="501.456" type="line"/>
      <point x="131.477" y="501.456"/>
      <point x="80" y="810.146"/>
      <point x="80" y="888.648" type="curve" smooth="yes"/>
      <point x="80" y="1116.75"/>
      <point x="271.519" y="1289.48"/>
    </contour>
  </outline>
</glyph>
<glyph name="middot" format="1">
  <advance width="409"/>
  <unicode hex="00B7"/>
  <outline>
    <contour>
      <point x="180" y="584" type="line"/>
      <point x="16" y="420" type="line"/>
      <point x="16" y="385" type="line"/>
      <point x="180" y="220" type="line"/>
      <point x="218" y="220" type="line"/>
      <point x="389" y="385" type="line"/>
      <point x="389" y="420" type="line"/>
      <point x="218" y="584" type="line"/>
    </contour>
  </outline>
</glyph>
<glyph name="periodcentered" format="1">
  <advance width="0"/>
  <unicode hex="00B7"/>
  <outline>
    <contour>
      <point x="226.567" y="699.518" type="curve" smooth="yes"/>
      <point x="316.634" y="699.518"/>
      <point x="390" y="626.233"/>
      <point x="390" y="536" type="curve" smooth="yes"/>
      <point x="390" y="445.935"/>
      <point x="316.716" y="372.567"/>
      <point x="226.567" y="372.567" type="curve" smooth="yes"/>
      <point x="136.334" y="372.567"/>
      <point x="63.0498" y="445.852"/>
      <point x="63.0498" y="536" type="curve" smooth="yes"/>
      <point x="63.0498" y="626.15"/>
      <point x="136.417" y="699.518"/>
    </contour>
    <contour>
      <point x="312.76" y="535.993" type="curve" smooth="yes"/>
      <point x="312.76" y="583.578"/>
      <point x="274.062" y="622.181"/>
      <point x="226.574" y="622.181" type="curve" smooth="yes"/>
      <point x="178.989" y="622.181"/>
      <point x="140.29" y="583.578"/>
      <point x="140.29" y="535.993" type="curve" smooth="yes"/>
      <point x="140.29" y="488.506"/>
      <point x="178.989" y="449.904"/>
      <point x="226.574" y="449.904" type="curve" smooth="yes"/>
      <point x="274.062" y="449.904"/>
      <point x="312.76" y="488.506"/>
    </contour>
  </outline>
</glyph>
<glyph name="uni00B9" format="1">
  <advance width="478"/>
  <unicode hex="00B9"/>
  <outline>
    <contour>
      <point x="254" y="1325" type="curve"/>
      <point x="388" y="1325" type="line"/>
      <point x="388" y="440" type="line"/>
      <point x="124" y="440" type="line"/>
      <point x="124" y="1056" type="line"/>
      <point x="0" y="1056" type="line"/>
      <point x="0" y="1189" type="line"/>
      <point x="0" y="1189"/>
      <point x="203" y="1200"/>
    </contour>
  </outline>
</glyph>
<glyph name="uni00B9" format="1">
  <advance width="478"/>
  <unicode hex="00B9"/>
  <outline>
    <contour>
      <point x="253.749" y="1324.72" type="curve"/>
      <point x="388.101" y="1324.72" type="line"/>
      <point x="388.101" y="440" type="line"/>
      <point x="123.966" y="440" type="line"/>
      <point x="123.966" y="1055.85" type="line"/>
      <point x="0" y="1055.85" type="line"/>
      <point x="0" y="1189.2" type="line"/>
      <point x="0" y="1189.2"/>
      <point x="202.982" y="1200"/>
    </contour>
  </outline>
</glyph>
<glyph name="ordmasculine" format="1">
  <advance width="1068"/>
  <unicode hex="00BA"/>
  <outline>
    <contour>
      <point x="534.489" y="1324.72" type="curve" smooth="yes"/>
      <point x="785.497" y="1324.72"/>
      <point x="988.978" y="1122.9"/>
      <point x="988.978" y="871.895" type="curve" smooth="yes"/>
      <point x="988.978" y="620.887"/>
      <point x="785.497" y="418.984"/>
      <point x="534.489" y="418.984" type="curve" smooth="yes"/>
      <point x="283.481" y="418.984"/>
      <point x="80" y="620.97"/>
      <point x="80" y="871.895" type="curve" smooth="yes"/>
      <point x="80" y="1122.82"/>
      <point x="283.481" y="1324.72"/>
    </contour>
    <contour>
      <point x="662.61" y="677.552" type="curve" smooth="yes"/>
      <point x="662.61" y="1066.32" type="line" smooth="yes"/>
      <point x="662.61" y="1137.11"/>
      <point x="605.279" y="1194.44"/>
      <point x="534.489" y="1194.44" type="curve" smooth="yes"/>
      <point x="463.698" y="1194.44"/>
      <point x="406.367" y="1137.11"/>
      <point x="406.367" y="1066.32" type="curve" smooth="yes"/>
      <point x="406.367" y="677.552" type="line" smooth="yes"/>
      <point x="406.367" y="606.762"/>
      <point x="463.698" y="549.432"/>
      <point x="534.489" y="549.432" type="curve" smooth="yes"/>
      <point x="605.279" y="549.432"/>
      <point x="662.61" y="606.762"/>
    </contour>
  </outline>
</glyph>
<glyph name="guillemotright" format="1">
  <advance width="982"/>
  <unicode hex="00BB"/>
  <outline>
    <contour>
      <point x="364.406" y="986.5" type="line"/>
      <point x="592.016" y="492.056" type="line"/>
      <point x="364.406" y="0" type="line"/>
      <point x="0" y="0" type="line"/>
      <point x="330.728" y="492.056" type="line"/>
      <point x="0" y="986.5" type="line"/>
    </contour>
    <contour>
      <point x="650.976" y="986.5" type="line"/>
      <point x="932.057" y="492.056" type="line"/>
      <point x="650.976" y="0" type="line"/>
      <point x="476.59" y="0" type="line"/>
      <point x="704.197" y="492.056" type="line"/>
      <point x="476.59" y="986.5" type="line"/>
    </contour>
  </outline>
</glyph>
<glyph name="onehalf" format="1">
  <advance width="1055"/>
  <unicode hex="00BD"/>
  <outline>
    <contour>
      <point x="967.938" y="108.109" type="curve" smooth="yes"/>
      <point x="968.104" y="181.29" type="line"/>
      <point x="1035.05" y="181.29" type="line"/>
      <point x="1035.05" y="0.25" type="line"/>
      <point x="659.831" y="0.25" type="line"/>
      <point x="659.831" y="0.25"/>
      <point x="612.43" y="101.206"/>
      <point x="733.095" y="214.304" type="curve" smooth="yes"/>
      <point x="799.207" y="276.257"/>
      <point x="835.133" y="325.987"/>
      <point x="849.353" y="369.312" type="curve" smooth="yes"/>
      <point x="877.045" y="453.471"/>
      <point x="846.108" y="505.445"/>
      <point x="783.074" y="501.205" type="curve" smooth="yes"/>
      <point x="726.441" y="497.297"/>
      <point x="705.485" y="430.936"/>
      <point x="740.58" y="364.406" type="curve"/>
      <point x="660.496" y="364.406" type="line"/>
      <point x="624.072" y="482.161"/>
      <point x="702.409" y="590.519"/>
      <point x="841.369" y="590.519" type="curve" smooth="yes"/>
      <point x="938.084" y="590.519"/>
      <point x="1035.05" y="534.885"/>
      <point x="1035.05" y="415.052" type="curve" smooth="yes"/>
      <point x="1035.05" y="322.162"/>
      <point x="973.011" y="261.954"/>
      <point x="904.404" y="223.451" type="curve" smooth="yes"/>
      <point x="812.513" y="171.892"/>
      <point x="756.297" y="135.385"/>
      <point x="719.457" y="89.2314" type="curve"/>
      <point x="945.651" y="89.2314" type="line" smooth="yes"/>
      <point x="961.701" y="90.9775"/>
      <point x="967.938" y="98.9609"/>
    </contour>
    <contour>
      <point x="102.827" y="698.378" type="line"/>
      <point x="102.827" y="1109.77" type="line"/>
      <point x="20" y="1109.77" type="line"/>
      <point x="20" y="1198.92" type="line"/>
      <point x="20" y="1198.92"/>
      <point x="155.55" y="1206.15"/>
      <point x="189.479" y="1289.48" type="curve"/>
      <point x="279.292" y="1289.48" type="line"/>
      <point x="279.292" y="698.378" type="line"/>
    </contour>
    <contour>
      <point x="802.866" y="1289.48" type="line"/>
      <point x="1032.05" y="1289.48" type="line"/>
      <point x="252.265" y="0" type="line"/>
      <point x="23.0762" y="0" type="line"/>
    </contour>
  </outline>
</glyph>
<glyph name="threequarters" format="1">
  <advance width="1055"/>
  <unicode hex="00BE"/>
  <outline>
    <contour>
      <point x="806.775" y="1289.48" type="line"/>
      <point x="1035.96" y="1289.48" type="line"/>
      <point x="256.175" y="0" type="line"/>
      <point x="26.9863" y="0" type="line"/>
    </contour>
    <contour>
      <point x="976.006" y="590.601" type="line"/>
      <point x="976.006" y="237.421" type="line"/>
      <point x="1035.96" y="237.421" type="line"/>
      <point x="1035.96" y="147.525" type="line"/>
      <point x="976.006" y="147.525" type="line"/>
      <point x="976.006" y="0" type="line"/>
      <point x="799.541" y="0" type="line"/>
      <point x="799.541" y="147.525" type="line"/>
      <point x="571.267" y="147.525" type="line"/>
      <point x="571.267" y="238.003" type="line"/>
      <point x="819.333" y="590.601" type="line"/>
    </contour>
    <contour>
      <point x="799.541" y="237.421" type="line"/>
      <point x="799.541" y="401.912" type="line"/>
      <point x="683.782" y="237.421" type="line"/>
    </contour>
    <contour>
      <point x="357.712" y="857.879" type="curve" smooth="yes"/>
      <point x="357.712" y="773.638"/>
      <point x="292.266" y="696.05"/>
      <point x="155.884" y="695.967" type="curve" smooth="yes"/>
      <point x="95.5098" y="695.967"/>
      <point x="52.1836" y="714.844"/>
      <point x="20" y="735.468" type="curve"/>
      <point x="20" y="808.814" type="line"/>
      <point x="36.9648" y="795.925"/>
      <point x="60" y="785.447"/>
      <point x="90.6035" y="785.447" type="curve" smooth="yes"/>
      <point x="139.834" y="785.447"/>
      <point x="180.665" y="826.694"/>
      <point x="180.665" y="873.513" type="curve" smooth="yes"/>
      <point x="180.665" y="969.312"/>
      <point x="77.2139" y="959.666"/>
      <point x="77.2139" y="959.666" type="curve"/>
      <point x="77.2139" y="1025.78" type="line"/>
      <point x="77.2139" y="1025.78"/>
      <point x="180.665" y="1026.86"/>
      <point x="180.665" y="1104.61" type="curve" smooth="yes"/>
      <point x="180.665" y="1163.74"/>
      <point x="139.917" y="1200"/>
      <point x="90.6035" y="1200" type="curve" smooth="yes"/>
      <point x="60" y="1200"/>
      <point x="36.8818" y="1189.52"/>
      <point x="20" y="1176.63" type="curve"/>
      <point x="20" y="1249.98" type="line"/>
      <point x="52.1836" y="1270.6"/>
      <point x="95.5928" y="1289.48"/>
      <point x="155.884" y="1289.48" type="curve" smooth="yes"/>
      <point x="292.266" y="1289.48"/>
      <point x="357.712" y="1211.97"/>
      <point x="357.712" y="1127.65" type="curve" smooth="yes"/>
      <point x="357.712" y="1021.37"/>
      <point x="264.24" y="995.591"/>
      <point x="233.139" y="992.764" type="curve"/>
      <point x="264.157" y="989.938"/>
      <point x="357.712" y="963.243"/>
    </contour>
  </outline>
</glyph>
<glyph name="questiondown" format="1">
  <advance width="808"/>
  <unicode hex="00BF"/>
  <outline>
    <contour>
      <point x="326" y="622" type="curve" smooth="yes"/>
      <point x="224" y="622"/>
      <point x="141" y="705"/>
      <point x="141" y="808" type="curve" smooth="yes"/>
      <point x="141" y="910"/>
      <point x="224" y="993"/>
      <point x="326" y="993" type="curve" smooth="yes"/>
      <point x="428" y="993"/>
      <point x="511" y="910"/>
      <point x="511" y="808" type="curve" smooth="yes"/>
      <point x="511" y="705"/>
      <point x="428" y="622"/>
    </contour>
    <contour>
      <point x="384" y="-297" type="curve" smooth="yes"/>
      <point x="138" y="-297"/>
      <point x="-7" y="-130"/>
      <point x="0" y="32" type="curve" smooth="yes"/>
      <point x="5" y="137"/>
      <point x="68" y="205"/>
      <point x="110" y="241" type="curve" smooth="yes"/>
      <point x="273" y="380"/>
      <point x="227" y="491"/>
      <point x="227" y="491" type="curve"/>
      <point x="428" y="491" type="line" smooth="yes"/>
      <point x="428" y="491"/>
      <point x="494" y="382"/>
      <point x="396" y="184" type="curve" smooth="yes"/>
      <point x="290" y="-30"/>
      <point x="361" y="-105"/>
      <point x="455" y="-103" type="curve" smooth="yes"/>
      <point x="560" y="-100"/>
      <point x="590" y="8"/>
      <point x="549" y="128" type="curve"/>
      <point x="715" y="56" type="line"/>
      <point x="743" y="-147"/>
      <point x="579" y="-297"/>
    </contour>
  </outline>
</glyph>
<glyph name="AE" format="1">
  <advance width="1736"/>
  <unicode hex="00C6"/>
  <outline>
    <contour>
      <point x="1595.74" y="393.165" type="line"/>
      <point x="1596.01" y="393.165" type="line"/>
      <point x="1596.01" y="0" type="line"/>
      <point x="709.66" y="0" type="line"/>
      <point x="709.66" y="280.397" type="line"/>
      <point x="436.467" y="280.397" type="line"/>
      <point x="340.877" y="0" type="line"/>
      <point x="140" y="0" type="line"/>
      <point x="515.433" y="1098.87" type="line"/>
      <point x="395.461" y="1098.87" type="line"/>
      <point x="395.461" y="1289.48" type="line"/>
      <point x="1542.26" y="1289.48" type="line"/>
      <point x="1542.26" y="889.956" type="line"/>
      <point x="1396.8" y="889.956" type="line"/>
      <point x="1396.52" y="1037.08" type="line" smooth="yes"/>
      <point x="1396.52" y="1081.97"/>
      <point x="1377.68" y="1097.76"/>
      <point x="1356.07" y="1098.87" type="curve" smooth="yes"/>
      <point x="1055.72" y="1098.87" type="line"/>
      <point x="1055.72" y="775.248" type="line"/>
      <point x="1191.49" y="775.525" type="line"/>
      <point x="1191.49" y="841.191" type="line"/>
      <point x="1336.95" y="841.191" type="line"/>
      <point x="1336.95" y="513.415" type="line"/>
      <point x="1191.49" y="513.415" type="line"/>
      <point x="1191.49" y="579.912" type="line"/>
      <point x="1055.72" y="579.912" type="line"/>
      <point x="1055.72" y="183.976" type="line"/>
      <point x="1401.51" y="183.976" type="line" smooth="yes"/>
      <point x="1436.42" y="187.854"/>
      <point x="1450" y="205.033"/>
      <point x="1450" y="224.982" type="curve" smooth="yes"/>
      <point x="1450.28" y="393.165" type="line"/>
    </contour>
    <contour>
      <point x="502.964" y="475.733" type="line"/>
      <point x="709.66" y="475.733" type="line"/>
      <point x="709.66" y="1080.86" type="line"/>
    </contour>
  </outline>
</glyph>
<glyph name="multiply" format="1">
  <advance width="1116"/>
  <unicode hex="00D7"/>
  <outline>
    <contour>
      <point x="682.243" y="494.052" type="line"/>
      <point x="1036.17" y="0" type="line"/>
      <point x="788.688" y="0" type="line"/>
      <point x="558.169" y="321.163" type="line"/>
      <point x="327.733" y="0" type="line"/>
      <point x="80.249" y="0" type="line"/>
      <point x="434.178" y="494.052" type="line"/>
      <point x="80" y="986.5" type="line"/>
      <point x="327.483" y="986.5" type="line"/>
      <point x="558.169" y="664.921" type="line"/>
      <point x="788.938" y="986.5" type="line"/>
      <point x="1036.42" y="986.5" type="line"/>
    </contour>
  </outline>
</glyph>
<glyph name="Oslash" format="1">
  <advance width="1297"/>
  <unicode hex="00D8"/>
  <outline>
    <contour>
      <point x="1064.75" y="1112.45" type="line"/>
      <point x="1157.48" y="999.536"/>
      <point x="1217.22" y="834.108"/>
      <point x="1217.22" y="672.337" type="curve" smooth="yes"/>
      <point x="1217.22" y="491.539"/>
      <point x="1159.97" y="326.942"/>
      <point x="1066.75" y="201.646" type="curve" smooth="yes"/>
      <point x="962.307" y="61.2285"/>
      <point x="812.167" y="-35.9844"/>
      <point x="644.746" y="-35.9844" type="curve" smooth="yes"/>
      <point x="548.031" y="-35.9844"/>
      <point x="446.832" y="-1.41992"/>
      <point x="368.729" y="52.6699" type="curve"/>
      <point x="309.746" y="-35.9844" type="line"/>
      <point x="80.7461" y="-35.9844" type="line"/>
      <point x="227.314" y="184.696" type="line"/>
      <point x="136.083" y="299.689"/>
      <point x="80" y="450.41"/>
      <point x="80" y="615.921" type="curve" smooth="yes"/>
      <point x="80" y="796.72"/>
      <point x="137.247" y="961.315"/>
      <point x="230.471" y="1086.61" type="curve" smooth="yes"/>
      <point x="334.995" y="1226.95"/>
      <point x="470.844" y="1324.57"/>
      <point x="652.556" y="1324.57" type="curve" smooth="yes"/>
      <point x="755.501" y="1324.57"/>
      <point x="843.49" y="1293.75"/>
      <point x="919.683" y="1243.48" type="curve"/>
      <point x="972.942" y="1324.57" type="line"/>
      <point x="1204.17" y="1324.66" type="line"/>
    </contour>
    <contour>
      <point x="500.672" y="971.12" type="curve"/>
      <point x="500.755" y="971.12" type="line"/>
      <point x="500.755" y="601.713" type="line"/>
      <point x="782.172" y="1034.02" type="line"/>
      <point x="758.493" y="1084.12"/>
      <point x="707.81" y="1119.1"/>
      <point x="648.651" y="1119.1" type="curve" smooth="yes"/>
      <point x="566.894" y="1119.1"/>
      <point x="500.672" y="1052.88"/>
    </contour>
    <contour>
      <point x="648.651" y="169.159" type="curve" smooth="yes"/>
      <point x="730.325" y="169.159"/>
      <point x="796.629" y="235.38"/>
      <point x="796.629" y="317.139" type="curve" smooth="yes"/>
      <point x="796.629" y="704.159" type="line"/>
      <point x="509.646" y="267.202" type="line"/>
      <point x="509.646" y="267.202" type="line"/>
      <point x="530.584" y="209.622"/>
      <point x="588.827" y="169.159"/>
    </contour>
  </outline>
</glyph>
<glyph name="Thorn" format="1">
  <advance width="1164"/>
  <unicode hex="00DE"/>
  <outline>
    <contour>
      <point x="475.428" y="1060.7" type="line"/>
      <point x="475.428" y="1060.7"/>
      <point x="574.385" y="1166.63"/>
      <point x="718.708" y="1166.72" type="curve" smooth="yes"/>
      <point x="988.991" y="1166.72"/>
      <point x="1084.88" y="877.156"/>
      <point x="1084.88" y="629.223" type="curve" smooth="yes"/>
      <point x="1084.88" y="343.484"/>
      <point x="926.26" y="143.992"/>
      <point x="699.183" y="143.992" type="curve" smooth="yes"/>
      <point x="553.28" y="143.992"/>
      <point x="475.428" y="243.032"/>
      <point x="475.428" y="243.032" type="curve"/>
      <point x="475.345" y="0" type="line"/>
      <point x="105.604" y="0" type="line"/>
      <point x="105.521" y="1113.62" type="line"/>
      <point x="0" y="1113.62" type="line"/>
      <point x="0" y="1290.31" type="line"/>
      <point x="475.345" y="1289.48" type="line"/>
    </contour>
    <contour>
      <point x="673.093" y="467.202" type="curve"/>
      <point x="673.176" y="467.202" type="line"/>
      <point x="673.176" y="833.452" type="line" smooth="yes"/>
      <point x="673.176" y="910.89"/>
      <point x="610.195" y="973.869"/>
      <point x="532.924" y="973.869" type="curve" smooth="yes"/>
      <point x="475.428" y="974.867" type="line"/>
      <point x="475.428" y="326.037" type="line"/>
      <point x="532.758" y="326.868" type="line" smooth="yes"/>
      <point x="610.112" y="326.868"/>
      <point x="673.093" y="389.847"/>
    </contour>
  </outline>
</glyph>
<glyph name="germandbls" format="1">
  <advance width="1268"/>
  <unicode hex="00DF"/>
  <outline>
    <contour>
      <point x="942.222" y="697.354" type="curve"/>
      <point x="1072.17" y="644.094"/>
      <point x="1188.66" y="572.806"/>
      <point x="1188.66" y="400.73" type="curve" smooth="yes"/>
      <point x="1188.66" y="177.226"/>
      <point x="994.151" y="-0.416016"/>
      <point x="755.025" y="-0.416016" type="curve" smooth="yes"/>
      <point x="600.815" y="-0.416016" type="line"/>
      <point x="600.815" y="184.786" type="line"/>
      <point x="673.434" y="184.786" type="line" smooth="yes"/>
      <point x="739.155" y="184.786"/>
      <point x="794.574" y="244.277"/>
      <point x="794.574" y="314.568" type="curve" smooth="yes"/>
      <point x="794.574" y="464.542" type="line" smooth="yes"/>
      <point x="794.574" y="536.08"/>
      <point x="740.235" y="594.325"/>
      <point x="673.434" y="594.325" type="curve" smooth="yes"/>
      <point x="600.815" y="594.325" type="line"/>
      <point x="600.815" y="795.729" type="line"/>
      <point x="656.982" y="795.729" type="line" smooth="yes"/>
      <point x="714.811" y="795.729"/>
      <point x="763.583" y="848.074"/>
      <point x="763.583" y="910.141" type="curve" smooth="yes"/>
      <point x="763.583" y="988.159" type="line" smooth="yes"/>
      <point x="763.583" y="1051.22"/>
      <point x="720.295" y="1102.57"/>
      <point x="616.02" y="1102.57" type="curve" smooth="yes"/>
      <point x="541.822" y="1102.57"/>
      <point x="475.27" y="1037.43"/>
      <point x="475.27" y="959.079" type="curve" smooth="yes"/>
      <point x="475.104" y="0" type="line"/>
      <point x="0" y="-0.25" type="line"/>
      <point x="0" y="184.786" type="line"/>
      <point x="105.438" y="184.786" type="line"/>
      <point x="106.104" y="795.729" type="line" smooth="yes"/>
      <point x="106.403" y="1070.75"/>
      <point x="284.251" y="1324.72"/>
      <point x="655.901" y="1324.72" type="curve" smooth="yes"/>
      <point x="942.388" y="1324.72"/>
      <point x="1139.97" y="1188.32"/>
      <point x="1139.97" y="966.225" type="curve" smooth="yes"/>
      <point x="1139.97" y="812.098"/>
      <point x="1051.81" y="748.867"/>
    </contour>
  </outline>
</glyph>
<glyph name="ae" format="1">
  <advance width="1696"/>
  <unicode hex="00E6"/>
  <outline>
    <contour>
      <point x="1261.39" y="168.585" type="curve" smooth="yes"/>
      <point x="1399.37" y="168.585"/>
      <point x="1467.25" y="265.006"/>
      <point x="1497.17" y="328.455" type="curve"/>
      <point x="1615.48" y="210.146" type="line"/>
      <point x="1523.5" y="55.2627"/>
      <point x="1377.76" y="-23.1494"/>
      <point x="1182.42" y="-23.1494" type="curve" smooth="yes"/>
      <point x="1021.16" y="-23.1494"/>
      <point x="902.3" y="20.627"/>
      <point x="817.516" y="88.7871" type="curve"/>
      <point x="740.489" y="30.3252"/>
      <point x="619.687" y="-23.7041"/>
      <point x="432.662" y="-23.7041" type="curve" smooth="yes"/>
      <point x="256.998" y="-23.7041"/>
      <point x="60.2773" y="82.1377"/>
      <point x="60" y="259.465" type="curve" smooth="yes"/>
      <point x="60" y="381.931"/>
      <point x="137.857" y="537.923"/>
      <point x="367.273" y="613.009" type="curve" smooth="yes"/>
      <point x="517.17" y="662.05"/>
      <point x="653.767" y="663.99"/>
      <point x="653.767" y="663.99" type="curve"/>
      <point x="653.767" y="663.99"/>
      <point x="643.791" y="805.574"/>
      <point x="467.296" y="805.574" type="curve" smooth="yes"/>
      <point x="387.223" y="805.574"/>
      <point x="282.212" y="770.385"/>
      <point x="238.989" y="674.796" type="curve"/>
      <point x="123.449" y="792.274" type="line"/>
      <point x="201.029" y="934.412"/>
      <point x="355.913" y="1009.22"/>
      <point x="545.985" y="1009.22" type="curve" smooth="yes"/>
      <point x="694.219" y="1009.22"/>
      <point x="802" y="981.515"/>
      <point x="879.58" y="933.858" type="curve"/>
      <point x="879.58" y="933.858"/>
      <point x="998.998" y="1009.5"/>
      <point x="1165.8" y="1009.5" type="curve" smooth="yes"/>
      <point x="1343.12" y="1009.5"/>
      <point x="1471.41" y="950.482"/>
      <point x="1547.32" y="834.112" type="curve" smooth="yes"/>
      <point x="1610.77" y="737.138"/>
      <point x="1616.04" y="631.295"/>
      <point x="1616.32" y="601.095" type="curve" smooth="yes"/>
      <point x="1616.87" y="456.186" type="line"/>
      <point x="1048.32" y="456.186" type="line"/>
      <point x="1048.32" y="376.943" type="line" smooth="yes"/>
      <point x="1048.32" y="261.957"/>
      <point x="1143.91" y="168.585"/>
    </contour>
    <contour>
      <point x="1225" y="818.318" type="curve" smooth="yes"/>
      <point x="1015.53" y="818.318"/>
      <point x="1048.32" y="620"/>
      <point x="1048.32" y="620" type="curve"/>
      <point x="1361" y="620" type="line"/>
      <point x="1361" y="620"/>
      <point x="1380" y="818.318"/>
    </contour>
    <contour>
      <point x="654.043" y="202.941" type="curve"/>
      <point x="654.043" y="539.584" type="line"/>
      <point x="654.043" y="539.584"/>
      <point x="456.213" y="487.771"/>
      <point x="456.213" y="334.828" type="curve" smooth="yes"/>
      <point x="456.213" y="256.971"/>
      <point x="508.58" y="180.222"/>
      <point x="587.269" y="180.222" type="curve" smooth="yes"/>
      <point x="631.877" y="180.222"/>
      <point x="654.043" y="202.941"/>
    </contour>
  </outline>
</glyph>
<glyph name="iacute" format="1">
  <advance width="567"/>
  <unicode hex="00ED"/>
  <outline>
    <contour>
      <point x="436" y="1458" type="line"/>
      <point x="256" y="1089" type="line"/>
      <point x="499" y="1089" type="line"/>
      <point x="760" y="1458" type="line"/>
    </contour>
    <component base="dotlessi"/>
  </outline>
</glyph>
<glyph name="eth" format="1">
  <advance width="1106"/>
  <unicode hex="00F0"/>
  <outline>
    <contour>
      <point x="548.522" y="178.846" type="curve" smooth="yes"/>
      <point x="594.386" y="178.846"/>
      <point x="631.609" y="216.235"/>
      <point x="631.609" y="262.183" type="curve" smooth="yes"/>
      <point x="631.194" y="526.317" type="line"/>
      <point x="624.713" y="565.868"/>
      <point x="589.816" y="596.195"/>
      <point x="548.522" y="596.195" type="curve" smooth="yes"/>
      <point x="502.657" y="596.195"/>
      <point x="465.435" y="558.889"/>
      <point x="465.435" y="512.775" type="curve" smooth="yes"/>
      <point x="465.435" y="262.266" type="line" smooth="yes"/>
      <point x="465.435" y="216.235"/>
      <point x="502.657" y="178.846"/>
    </contour>
    <contour>
      <point x="844.064" y="1106.35" type="line"/>
      <point x="951.247" y="974.409"/>
      <point x="1016.39" y="791.865"/>
      <point x="1016.47" y="608.574" type="curve" smooth="yes"/>
      <point x="1016.47" y="261.768"/>
      <point x="832.681" y="-19.9824"/>
      <point x="551.845" y="-19.9824" type="curve" smooth="yes"/>
      <point x="350.108" y="-19.9824"/>
      <point x="93.4512" y="95.6758"/>
      <point x="80.6553" y="376.511" type="curve" smooth="yes"/>
      <point x="68.6084" y="639.898"/>
      <point x="224.064" y="795.189"/>
      <point x="428.128" y="795.189" type="curve" smooth="yes"/>
      <point x="490.194" y="795.189"/>
      <point x="574.362" y="774.501"/>
      <point x="630.28" y="732.625" type="curve"/>
      <point x="630.28" y="906.692" type="line" smooth="yes"/>
      <point x="630.28" y="938.765"/>
      <point x="621.556" y="968.51"/>
      <point x="607.431" y="995.098" type="curve"/>
      <point x="196.396" y="801.67" type="line"/>
      <point x="196.396" y="915.998" type="line"/>
      <point x="531.239" y="1073.53" type="line"/>
      <point x="501.245" y="1090.73"/>
      <point x="466.763" y="1101.2"/>
      <point x="429.789" y="1101.2" type="curve" smooth="yes"/>
      <point x="385.67" y="1101.2"/>
      <point x="321.193" y="1098.62"/>
      <point x="197.062" y="988.533" type="curve"/>
      <point x="197.062" y="1202.98" type="line"/>
      <point x="271.508" y="1261.48"/>
      <point x="366.228" y="1301.61"/>
      <point x="471.998" y="1301.61" type="curve" smooth="yes"/>
      <point x="583.335" y="1301.61"/>
      <point x="684.121" y="1257.16"/>
      <point x="768.121" y="1184.95" type="curve"/>
      <point x="1016.39" y="1301.77" type="line"/>
      <point x="1016.39" y="1187.45" type="line"/>
    </contour>
  </outline>
</glyph>
<glyph name="otilde" format="1">
  <advance width="1143"/>
  <unicode hex="00F5"/>
  <outline>
    <contour>
      <point x="730" y="1280" type="curve" smooth="yes"/>
      <point x="730" y="1296" type="line"/>
      <point x="840" y="1296" type="line"/>
      <point x="840" y="1258" type="line" smooth="yes"/>
      <point x="840" y="1133"/>
      <point x="742" y="1087"/>
      <point x="663" y="1087" type="curve" smooth="yes"/>
      <point x="586" y="1087"/>
      <point x="490" y="1146"/>
      <point x="490" y="1146" type="curve"/>
      <point x="435" y="1174"/>
      <point x="415" y="1134"/>
      <point x="414" y="1102" type="curve" smooth="yes"/>
      <point x="414" y="1086" type="line"/>
      <point x="303" y="1086" type="line"/>
      <point x="303" y="1124" type="line" smooth="yes"/>
      <point x="303" y="1249"/>
      <point x="402" y="1296"/>
      <point x="481" y="1296" type="curve" smooth="yes"/>
      <point x="550" y="1296"/>
      <point x="654" y="1237"/>
      <point x="654" y="1237" type="curve"/>
      <point x="711" y="1210"/>
      <point x="730" y="1249"/>
    </contour>
    <component base="o"/>
  </outline>
</glyph>
<glyph name="divide" format="1">
  <advance width="1049"/>
  <unicode hex="00F7"/>
  <outline>
    <contour>
      <point x="501" y="352" type="line"/>
      <point x="355" y="199" type="line"/>
      <point x="355" y="156" type="line"/>
      <point x="501" y="-1" type="line"/>
      <point x="539" y="-1" type="line"/>
      <point x="693" y="156" type="line"/>
      <point x="693" y="201" type="line"/>
      <point x="539" y="352" type="line"/>
    </contour>
    <contour>
      <point x="501" y="1060" type="line"/>
      <point x="355" y="907" type="line"/>
      <point x="355" y="864" type="line"/>
      <point x="501" y="707" type="line"/>
      <point x="539" y="707" type="line"/>
      <point x="693" y="864" type="line"/>
      <point x="693" y="909" type="line"/>
      <point x="539" y="1060" type="line"/>
    </contour>
    <contour>
      <point x="969" y="625" type="line"/>
      <point x="969" y="424" type="line"/>
      <point x="80" y="424" type="line"/>
      <point x="80" y="625" type="line"/>
    </contour>
  </outline>
</glyph>
<glyph name="oslash" format="1">
  <advance width="961"/>
  <unicode hex="00F8"/>
  <outline>
    <contour>
      <point x="486" y="870" type="curve" smooth="yes"/>
      <point x="154" y="870"/>
      <point x="31" y="705"/>
      <point x="31" y="415" type="curve" smooth="yes"/>
      <point x="31" y="111"/>
      <point x="167" y="-21"/>
      <point x="472" y="-21" type="curve" smooth="yes"/>
      <point x="791" y="-21"/>
      <point x="930" y="125"/>
      <point x="930" y="429" type="curve" smooth="yes"/>
      <point x="930" y="718"/>
      <point x="806" y="870"/>
    </contour>
    <contour>
      <point x="571" y="236" type="line"/>
      <point x="571" y="152"/>
      <point x="539" y="99"/>
      <point x="480" y="99" type="curve" smooth="yes"/>
      <point x="422" y="99"/>
      <point x="388" y="159"/>
      <point x="388" y="288" type="curve" smooth="yes"/>
      <point x="388" y="613" type="line" smooth="yes"/>
      <point x="388" y="700"/>
      <point x="423" y="747"/>
      <point x="479" y="747" type="curve" smooth="yes"/>
      <point x="541" y="747"/>
      <point x="571" y="678"/>
      <point x="571" y="552" type="curve" smooth="yes"/>
    </contour>
    <contour>
      <point x="513" y="74" type="line"/>
      <point x="249" y="74" type="line"/>
      <point x="163" y="-206" type="line"/>
      <point x="428" y="-206" type="line"/>
    </contour>
    <contour>
      <point x="775" y="1046" type="line"/>
      <point x="511" y="1046" type="line"/>
      <point x="425" y="766" type="line"/>
      <point x="690" y="766" type="line"/>
    </contour>
  </outline>
</glyph>
<glyph name="ugrave" format="1">
  <advance width="1107"/>
  <unicode hex="00F9"/>
  <outline>
    <contour>
      <point x="566" y="1414" type="line"/>
      <point x="716" y="1087" type="line"/>
      <point x="582" y="1087" type="line"/>
      <point x="343" y="1416" type="line"/>
    </contour>
    <component base="u"/>
  </outline>
</glyph>
<glyph name="uacute" format="1">
  <advance width="1107"/>
  <unicode hex="00FA"/>
  <outline>
    <contour>
      <point x="714" y="1458" type="line"/>
      <point x="534" y="1089" type="line"/>
      <point x="777" y="1089" type="line"/>
      <point x="1038" y="1458" type="line"/>
    </contour>
    <component base="u"/>
  </outline>
</glyph>
<glyph name="thorn" format="1">
  <advance width="1164"/>
  <unicode hex="00FE"/>
  <outline>
    <contour>
      <point x="475.428" y="883.864" type="line"/>
      <point x="475.428" y="883.864"/>
      <point x="574.385" y="989.885"/>
      <point x="718.708" y="989.885" type="curve" smooth="yes"/>
      <point x="988.991" y="989.885"/>
      <point x="1084.88" y="700.323"/>
      <point x="1084.88" y="452.391" type="curve" smooth="yes"/>
      <point x="1084.88" y="166.652"/>
      <point x="926.26" y="-32.8408"/>
      <point x="699.183" y="-32.8408" type="curve" smooth="yes"/>
      <point x="553.28" y="-32.8408"/>
      <point x="475.428" y="66.1992"/>
      <point x="475.428" y="66.1992" type="curve"/>
      <point x="475.345" y="-296.893" type="line"/>
      <point x="105.604" y="-296.893" type="line"/>
      <point x="105.521" y="1112.44" type="line"/>
      <point x="0" y="1112.44" type="line"/>
      <point x="0" y="1290.31" type="line"/>
      <point x="475.345" y="1289.48" type="line"/>
    </contour>
    <contour>
      <point x="673.093" y="290.37" type="curve"/>
      <point x="673.176" y="290.37" type="line"/>
      <point x="673.176" y="656.62" type="line" smooth="yes"/>
      <point x="673.176" y="734.058"/>
      <point x="610.195" y="797.038"/>
      <point x="532.923" y="797.038" type="curve" smooth="yes"/>
      <point x="475.428" y="798.034" type="line"/>
      <point x="475.428" y="149.204" type="line"/>
      <point x="532.758" y="150.035" type="line" smooth="yes"/>
      <point x="610.112" y="150.035"/>
      <point x="673.093" y="213.016"/>
    </contour>
  </outline>
</glyph>
<glyph name="aogonek" format="1">
  <advance width="1188"/>
  <unicode hex="0105"/>
  <outline>
    <contour>
      <point x="1031.14" y="557.192" type="curve" smooth="yes"/>
      <point x="1031.14" y="171.784" type="line"/>
      <point x="1136.7" y="171.784" type="line"/>
      <point x="1136.7" y="0" type="line"/>
      <point x="1054.05" y="0" type="line"/>
      <point x="917.753" y="0" type="line"/>
      <point x="798.048" y="-74"/>
      <point x="796.048" y="-296.893"/>
      <point x="981.048" y="-296.893" type="curve" smooth="yes"/>
      <point x="1082" y="-296.893"/>
      <point x="1138" y="-212.393"/>
      <point x="1138" y="-212.393" type="curve"/>
      <point x="1138.08" y="-108.782" type="line"/>
      <point x="1138.08" y="-108.782"/>
      <point x="1030.65" y="-212.559"/>
      <point x="968.585" y="-146.338" type="curve" smooth="yes"/>
      <point x="934.013" y="-109.451"/>
      <point x="936.048" y="0"/>
      <point x="1054.05" y="0" type="curve" smooth="yes"/>
      <point x="917.753" y="0" type="line"/>
      <point x="661.247" y="0" type="line"/>
      <point x="661.247" y="98.915" type="line"/>
      <point x="661.247" y="98.915"/>
      <point x="592.533" y="-22.9971"/>
      <point x="402.185" y="-22.9971" type="curve" smooth="yes"/>
      <point x="236.495" y="-22.9971"/>
      <point x="60" y="75.3633"/>
      <point x="60" y="257.123" type="curve" smooth="yes"/>
      <point x="60" y="650.843"/>
      <point x="661.801" y="661.094"/>
      <point x="661.801" y="661.094" type="curve"/>
      <point x="661.801" y="661.094"/>
      <point x="654.044" y="817.64"/>
      <point x="465.634" y="817.64" type="curve" smooth="yes"/>
      <point x="386.945" y="817.64"/>
      <point x="279.995" y="783.838"/>
      <point x="232.339" y="689.91" type="curve"/>
      <point x="125.666" y="798.522" type="line"/>
      <point x="202.692" y="935.396"/>
      <point x="351.479" y="1010.48"/>
      <point x="545.431" y="1010.48" type="curve" smooth="yes"/>
      <point x="881.243" y="1010.48"/>
      <point x="1031.14" y="870.561"/>
    </contour>
    <contour>
      <point x="661.523" y="197.275" type="line"/>
      <point x="661.523" y="549.711" type="line"/>
      <point x="653.212" y="547.494" type="line" smooth="yes"/>
      <point x="650.996" y="546.94"/>
      <point x="447.624" y="492.08"/>
      <point x="447.624" y="333.595" type="curve" smooth="yes"/>
      <point x="447.624" y="255.184"/>
      <point x="501.1" y="170.399"/>
      <point x="587.269" y="170.399" type="curve" smooth="yes"/>
      <point x="635.202" y="170.399"/>
      <point x="659.308" y="195.059"/>
      <point x="659.585" y="195.335" type="curve" smooth="yes"/>
    </contour>
  </outline>
</glyph>
<glyph name="cacute" format="1">
  <advance width="1001"/>
  <unicode hex="0107"/>
  <outline>
    <contour>
      <point x="626" y="1458" type="line"/>
      <point x="446" y="1089" type="line"/>
      <point x="689" y="1089" type="line"/>
      <point x="950" y="1458" type="line"/>
    </contour>
    <component base="c"/>
  </outline>
</glyph>
<glyph name="Dcroat" format="1">
  <advance width="1219"/>
  <unicode hex="0110"/>
  <outline>
    <contour>
      <point x="576.479" y="1289.48" type="line" smooth="yes"/>
      <point x="880.15" y="1289.48"/>
      <point x="1139.21" y="1007.43"/>
      <point x="1139.21" y="668.298" type="curve" smooth="yes"/>
      <point x="1139.21" y="299.792"/>
      <point x="877.083" y="0"/>
      <point x="570.106" y="0" type="curve" smooth="yes"/>
      <point x="106.564" y="0" type="line"/>
      <point x="106.564" y="1098.87" type="line"/>
      <point x="1" y="1098.87" type="line"/>
      <point x="1" y="1289.48" type="line"/>
    </contour>
    <contour>
      <point x="742.723" y="373.771" type="curve" smooth="yes"/>
      <point x="742.723" y="909.905" type="line" smooth="yes"/>
      <point x="742.723" y="1014.92"/>
      <point x="654.336" y="1098.87"/>
      <point x="547.94" y="1098.87" type="curve" smooth="yes"/>
      <point x="490.033" y="1098.87" type="line"/>
      <point x="490.033" y="183.976" type="line"/>
      <point x="547.94" y="183.976" type="line" smooth="yes"/>
      <point x="655.444" y="183.976"/>
      <point x="742.723" y="268.76"/>
    </contour>
    <component base="Eth" xScale="0.822102" xOffset="-115.094" yOffset="169.869"/>
  </outline>
</glyph>
<glyph name="dcroat" format="1">
  <advance width="1420"/>
  <unicode hex="0111"/>
  <outline>
    <contour>
      <point x="749" y="1289.48" type="line"/>
      <point x="1119.45" y="1289.48" type="line"/>
      <point x="1119.73" y="0" type="line"/>
      <point x="749.836" y="0" type="line"/>
      <point x="749.56" y="94.4814" type="line"/>
      <point x="749.56" y="94.4814"/>
      <point x="669.762" y="-13.0225"/>
      <point x="506.289" y="-13.0225" type="curve" smooth="yes"/>
      <point x="235.867" y="-13.0225"/>
      <point x="140" y="276.795"/>
      <point x="140" y="524.775" type="curve" smooth="yes"/>
      <point x="140" y="810.714"/>
      <point x="298.763" y="1010.21"/>
      <point x="525.962" y="1010.21" type="curve" smooth="yes"/>
      <point x="678.351" y="1010.21"/>
      <point x="749.836" y="911.015"/>
      <point x="749.836" y="911.015" type="curve"/>
    </contour>
    <contour>
      <point x="749.836" y="178.989" type="line"/>
      <point x="749.56" y="178.989" type="line"/>
      <point x="749.56" y="828.169" type="line"/>
      <point x="692.204" y="827.338" type="line" smooth="yes"/>
      <point x="614.625" y="827.338"/>
      <point x="551.729" y="764.166"/>
      <point x="551.729" y="686.863" type="curve" smooth="yes"/>
      <point x="551.729" y="320.573" type="line" smooth="yes"/>
      <point x="551.729" y="242.992"/>
      <point x="614.901" y="180.097"/>
      <point x="692.204" y="180.097" type="curve" smooth="yes"/>
    </contour>
  </outline>
</glyph>
<glyph name="Eogonek" format="1">
  <advance width="1122"/>
  <unicode hex="0118"/>
  <outline>
    <contour>
      <point x="883.307" y="393.442" type="line"/>
      <point x="1028.77" y="393.442" type="line"/>
      <point x="1028.77" y="0" type="line"/>
      <point x="948.048" y="0" type="line"/>
      <point x="811.753" y="0" type="line"/>
      <point x="692.048" y="-74"/>
      <point x="690.048" y="-296.893"/>
      <point x="875.048" y="-296.893" type="curve" smooth="yes"/>
      <point x="975.999" y="-296.893"/>
      <point x="1032" y="-212.393"/>
      <point x="1032" y="-212.393" type="curve"/>
      <point x="1032.08" y="-108.782" type="line"/>
      <point x="1032.08" y="-108.782"/>
      <point x="924.651" y="-212.559"/>
      <point x="862.585" y="-146.338" type="curve" smooth="yes"/>
      <point x="828.013" y="-109.451"/>
      <point x="830.048" y="0"/>
      <point x="948.048" y="0" type="curve" smooth="yes"/>
      <point x="811.753" y="0" type="line"/>
      <point x="105.563" y="0" type="line"/>
      <point x="105.563" y="1098.87" type="line"/>
      <point x="0" y="1098.87" type="line"/>
      <point x="0" y="1289.48" type="line"/>
      <point x="975.294" y="1289.48" type="line"/>
      <point x="975.294" y="889.956" type="line"/>
      <point x="829.831" y="889.956" type="line"/>
      <point x="829.554" y="1037.08" type="line" smooth="yes"/>
      <point x="829.554" y="1081.97"/>
      <point x="810.714" y="1097.76"/>
      <point x="789.102" y="1098.87" type="curve" smooth="yes"/>
      <point x="488.755" y="1098.87" type="line"/>
      <point x="488.755" y="775.248" type="line"/>
      <point x="624.521" y="775.525" type="line"/>
      <point x="624.521" y="841.191" type="line"/>
      <point x="769.983" y="841.191" type="line"/>
      <point x="769.983" y="513.691" type="line"/>
      <point x="624.521" y="513.691" type="line"/>
      <point x="624.521" y="580.188" type="line"/>
      <point x="488.755" y="580.188" type="line"/>
      <point x="488.755" y="184.253" type="line"/>
      <point x="834.542" y="184.253" type="line" smooth="yes"/>
      <point x="869.452" y="188.132"/>
      <point x="883.029" y="205.311"/>
      <point x="883.029" y="225.26" type="curve" smooth="yes"/>
    </contour>
  </outline>
</glyph>
<glyph name="gdotaccent" format="1">
  <advance width="1122"/>
  <unicode hex="0121"/>
  <outline>
    <contour>
      <point x="533" y="1555" type="line"/>
      <point x="357" y="1370" type="line"/>
      <point x="357" y="1318" type="line"/>
      <point x="533" y="1128" type="line"/>
      <point x="579" y="1128" type="line"/>
      <point x="765" y="1318" type="line"/>
      <point x="765" y="1372" type="line"/>
      <point x="579" y="1555" type="line"/>
    </contour>
    <component base="g"/>
  </outline>
</glyph>
<glyph name="Hbar" format="1">
  <advance width="1243"/>
  <unicode hex="0126"/>
  <outline>
    <contour>
      <point x="770.538" y="1289.48" type="line"/>
      <point x="1153.73" y="1289.48" type="line"/>
      <point x="1153.73" y="0" type="line"/>
      <point x="770.538" y="0" type="line"/>
      <point x="770.538" y="400" type="line"/>
      <point x="488.755" y="399.169" type="line"/>
      <point x="488.755" y="0" type="line"/>
      <point x="105.564" y="0" type="line"/>
      <point x="105.564" y="1099.42" type="line"/>
      <point x="0" y="1099.42" type="line"/>
      <point x="0" y="1289.48" type="line"/>
      <point x="488.755" y="1289.48" type="line"/>
      <point x="488.755" y="1039.5" type="line"/>
      <point x="770.538" y="1039.5" type="line"/>
    </contour>
    <contour>
      <point x="488.755" y="770.5" type="line"/>
      <point x="488.755" y="669.037" type="line"/>
      <point x="770.538" y="669.314" type="line"/>
      <point x="770.538" y="770.5" type="line"/>
    </contour>
  </outline>
</glyph>
<glyph name="hbar" format="1">
  <advance width="1167"/>
  <unicode hex="0127"/>
  <outline>
    <contour>
      <point x="491.119" y="890.51" type="line"/>
      <point x="491.119" y="890.51"/>
      <point x="563.713" y="1008.82"/>
      <point x="724.968" y="1009.1" type="curve" smooth="yes"/>
      <point x="950.782" y="1009.1"/>
      <point x="1047.2" y="888.848"/>
      <point x="1047.2" y="607.619" type="curve" smooth="yes"/>
      <point x="1046.93" y="0" type="line"/>
      <point x="677.866" y="0" type="line"/>
      <point x="677.866" y="666.081" type="line" smooth="yes"/>
      <point x="677.866" y="740.336"/>
      <point x="619.681" y="798.522"/>
      <point x="545.148" y="798.522" type="curve" smooth="yes"/>
      <point x="490.288" y="799.353" type="line"/>
      <point x="490.288" y="-0.554688" type="line"/>
      <point x="120.396" y="-0.554688" type="line"/>
      <point x="120" y="1289.48" type="line"/>
      <point x="490.288" y="1289.48" type="line"/>
    </contour>
  </outline>
</glyph>
<glyph name="iogonek" format="1">
  <advance width="573"/>
  <unicode hex="012F"/>
  <outline>
    <contour>
      <point x="281" y="1496" type="line"/>
      <point x="105" y="1311" type="line"/>
      <point x="105" y="1259" type="line"/>
      <point x="281" y="1069" type="line"/>
      <point x="327" y="1069" type="line"/>
      <point x="513" y="1259" type="line"/>
      <point x="513" y="1313" type="line"/>
      <point x="327" y="1496" type="line"/>
    </contour>
    <component base="dotlessi"/>
    <component base="ogonek" xOffset="35"/>
  </outline>
</glyph>
<glyph name="dotlessi" format="1">
  <advance width="567"/>
  <unicode hex="0131"/>
  <outline>
    <contour>
      <point x="478" y="987" type="line"/>
      <point x="294" y="987" type="line"/>
      <point x="24" y="930" type="line"/>
      <point x="24" y="811" type="line"/>
      <point x="112" y="769" type="line"/>
      <point x="113" y="0" type="line"/>
      <point x="479" y="0" type="line"/>
    </contour>
    <contour>
      <point x="251" y="500" type="move" name="top"/>
    </contour>
    <contour>
      <point x="251" y="-100" type="move" name="btm"/>
    </contour>
  </outline>
</glyph>
<glyph name="kgreenlandic" format="1">
  <advance width="943"/>
  <unicode hex="0138"/>
  <outline>
    <contour>
      <point x="574" y="850" type="line"/>
      <point x="410" y="409" type="line"/>
      <point x="565" y="0" type="line"/>
      <point x="955" y="0" type="line"/>
      <point x="687" y="457" type="line"/>
      <point x="949" y="850" type="line"/>
    </contour>
    <contour>
      <point x="384" y="850" type="line"/>
      <point x="229" y="850" type="line"/>
      <point x="-1" y="797" type="line"/>
      <point x="-1" y="690" type="line"/>
      <point x="75" y="650" type="line"/>
      <point x="75" y="0" type="line"/>
      <point x="384" y="0" type="line"/>
    </contour>
  </outline>
</glyph>
<glyph name="lslash" format="1">
  <advance width="724"/>
  <unicode hex="0142"/>
  <outline>
    <contour>
      <point x="488.555" y="972.125" type="line"/>
      <point x="634.291" y="1077.81" type="line"/>
      <point x="634.291" y="841.512" type="line"/>
      <point x="488.555" y="736.156" type="line"/>
      <point x="488.555" y="0" type="line"/>
      <point x="105.604" y="0" type="line"/>
      <point x="105.604" y="459.142" type="line"/>
      <point x="0" y="382.785" type="line"/>
      <point x="0" y="617.757" type="line"/>
      <point x="105.604" y="694.363" type="line"/>
      <point x="105.604" y="1099.08" type="line"/>
      <point x="0" y="1099.08" type="line"/>
      <point x="0" y="1289.48" type="line"/>
      <point x="488.555" y="1289.48" type="line"/>
    </contour>
  </outline>
</glyph>
<glyph name="eng" format="1">
  <advance width="1127"/>
  <unicode hex="014B"/>
  <outline>
    <contour>
      <point x="747" y="1009" type="curve" smooth="yes"/>
      <point x="970" y="1009"/>
      <point x="1050" y="896"/>
      <point x="1050" y="611" type="curve" smooth="yes"/>
      <point x="1050" y="130" type="line"/>
      <point x="680" y="0" type="line"/>
      <point x="680" y="695" type="line" smooth="yes"/>
      <point x="681" y="758"/>
      <point x="653" y="799"/>
      <point x="584" y="799" type="curve" smooth="yes"/>
      <point x="541" y="799"/>
      <point x="510" y="781"/>
      <point x="480" y="759" type="curve"/>
      <point x="481" y="0" type="line"/>
      <point x="115" y="0" type="line"/>
      <point x="114" y="769" type="line"/>
      <point x="26" y="811" type="line"/>
      <point x="26" y="930" type="line"/>
      <point x="296" y="987" type="line"/>
      <point x="480" y="987" type="line"/>
      <point x="481" y="837" type="line"/>
      <point x="481" y="837"/>
      <point x="585" y="1009"/>
    </contour>
    <contour>
      <point x="1050" y="130" type="line"/>
      <point x="1050" y="-185"/>
      <point x="929" y="-377"/>
      <point x="659" y="-377" type="curve" smooth="yes"/>
      <point x="544" y="-377"/>
      <point x="447" y="-327"/>
      <point x="377" y="-227" type="curve"/>
      <point x="438" y="-109" type="line"/>
      <point x="473" y="-150"/>
      <point x="523" y="-174"/>
      <point x="574" y="-174" type="curve" smooth="yes"/>
      <point x="640" y="-174"/>
      <point x="679" y="-90"/>
      <point x="680" y="51" type="curve" smooth="yes"/>
    </contour>
  </outline>
</glyph>
<glyph name="ohungarumlaut" format="1">
  <advance width="1143"/>
  <unicode hex="0151"/>
  <outline>
    <contour>
      <point x="893" y="1510" type="line"/>
      <point x="713" y="1141" type="line"/>
      <point x="956" y="1141" type="line"/>
      <point x="1217" y="1510" type="line"/>
    </contour>
    <contour>
      <point x="620" y="1510" type="line"/>
      <point x="440" y="1141" type="line"/>
      <point x="683" y="1141" type="line"/>
      <point x="944" y="1510" type="line"/>
    </contour>
    <component base="o"/>
  </outline>
</glyph>
<glyph name="OE" format="1">
  <advance width="1878"/>
  <unicode hex="0152"/>
  <outline>
    <contour>
      <point x="1643.21" y="393.254" type="line"/>
      <point x="1788.7" y="393.254" type="line"/>
      <point x="1788.7" y="0" type="line"/>
      <point x="630.454" y="0" type="line" smooth="yes"/>
      <point x="326.936" y="0"/>
      <point x="80" y="275.934"/>
      <point x="80" y="614.931" type="curve" smooth="yes"/>
      <point x="80" y="983.259"/>
      <point x="314.473" y="1289.56"/>
      <point x="621.398" y="1289.56" type="curve" smooth="yes"/>
      <point x="1735.27" y="1289.48" type="line"/>
      <point x="1735.27" y="889.619" type="line"/>
      <point x="1589.78" y="889.619" type="line"/>
      <point x="1589.53" y="1036.68" type="line" smooth="yes"/>
      <point x="1589.53" y="1081.55"/>
      <point x="1570.67" y="1097.34"/>
      <point x="1549.07" y="1098.42" type="curve" smooth="yes"/>
      <point x="1248.96" y="1098.42" type="line"/>
      <point x="1248.96" y="775.041" type="line"/>
      <point x="1384.64" y="775.208" type="line"/>
      <point x="1384.64" y="840.93" type="line"/>
      <point x="1530.13" y="840.93" type="line"/>
      <point x="1530.13" y="513.647" type="line"/>
      <point x="1384.64" y="513.647" type="line"/>
      <point x="1384.64" y="580.034" type="line"/>
      <point x="1248.96" y="579.951" type="line"/>
      <point x="1248.96" y="184.122" type="line"/>
      <point x="1594.44" y="184.122" type="line" smooth="yes"/>
      <point x="1629.25" y="188.027"/>
      <point x="1642.88" y="205.227"/>
      <point x="1642.88" y="225.167" type="curve" smooth="yes"/>
    </contour>
    <contour>
      <point x="671.417" y="193.511" type="curve" smooth="yes"/>
      <point x="771.703" y="193.511"/>
      <point x="831.692" y="249.015"/>
      <point x="866.091" y="301.773" type="curve"/>
      <point x="866.091" y="890.117" type="line"/>
      <point x="866.008" y="890.117" type="line"/>
      <point x="866.008" y="899.922" type="line" smooth="yes"/>
      <point x="866.008" y="1004.94"/>
      <point x="778.85" y="1087.62"/>
      <point x="671.417" y="1087.62" type="curve" smooth="yes"/>
      <point x="563.984" y="1087.62"/>
      <point x="476.825" y="1004.94"/>
      <point x="476.825" y="899.922" type="curve" smooth="yes"/>
      <point x="476.825" y="383.699" type="line" smooth="yes"/>
      <point x="476.825" y="278.676"/>
      <point x="564.982" y="193.511"/>
    </contour>
  </outline>
</glyph>
<glyph name="oe" format="1">
  <advance width="1421"/>
  <unicode hex="0153"/>
  <outline>
    <contour>
      <point x="486" y="870" type="curve" smooth="yes"/>
      <point x="154" y="870"/>
      <point x="31" y="705"/>
      <point x="31" y="415" type="curve" smooth="yes"/>
      <point x="31" y="111"/>
      <point x="167" y="-21"/>
      <point x="472" y="-21" type="curve" smooth="yes"/>
      <point x="592" y="-21"/>
      <point x="686" y="0"/>
      <point x="758" y="41" type="curve"/>
      <point x="820" y="2"/>
      <point x="902" y="-21"/>
      <point x="1007" y="-21" type="curve" smooth="yes"/>
      <point x="1112" y="-21"/>
      <point x="1300" y="18"/>
      <point x="1379" y="148" type="curve"/>
      <point x="1320" y="249" type="line"/>
      <point x="1262" y="195"/>
      <point x="1161" y="167"/>
      <point x="1093" y="167" type="curve" smooth="yes"/>
      <point x="1011" y="167"/>
      <point x="932" y="187"/>
      <point x="934" y="350" type="curve" smooth="yes"/>
      <point x="934" y="369" type="line"/>
      <point x="1391" y="369" type="line"/>
      <point x="1391" y="480" type="line" smooth="yes"/>
      <point x="1391" y="750"/>
      <point x="1289" y="870"/>
      <point x="1024" y="870" type="curve" smooth="yes"/>
      <point x="922" y="870"/>
      <point x="836" y="849"/>
      <point x="767" y="806" type="curve"/>
      <point x="699" y="848"/>
      <point x="606" y="870"/>
    </contour>
    <contour>
      <point x="571" y="236" type="line" smooth="yes"/>
      <point x="571" y="152"/>
      <point x="539" y="99"/>
      <point x="480" y="99" type="curve" smooth="yes"/>
      <point x="422" y="99"/>
      <point x="388" y="159"/>
      <point x="388" y="288" type="curve" smooth="yes"/>
      <point x="388" y="613" type="line" smooth="yes"/>
      <point x="388" y="700"/>
      <point x="423" y="747"/>
      <point x="479" y="747" type="curve" smooth="yes"/>
      <point x="541" y="747"/>
      <point x="571" y="678"/>
      <point x="571" y="552" type="curve" smooth="yes"/>
    </contour>
    <contour>
      <point x="1026" y="750" type="curve" smooth="yes"/>
      <point x="1073" y="750"/>
      <point x="1087" y="683"/>
      <point x="1087" y="517" type="curve"/>
      <point x="934" y="517" type="line"/>
      <point x="934" y="546"/>
      <point x="933" y="575"/>
      <point x="933" y="601" type="curve" smooth="yes"/>
      <point x="933" y="686"/>
      <point x="943" y="750"/>
    </contour>
  </outline>
</glyph>
<glyph name="Tbar" format="1">
  <advance width="846"/>
  <unicode hex="0166"/>
  <outline>
    <contour>
      <point x="757" y="495" type="line"/>
      <point x="757" y="719" type="line"/>
      <point x="89" y="719" type="line"/>
      <point x="89" y="495" type="line"/>
    </contour>
    <component base="T"/>
  </outline>
</glyph>
<glyph name="Uogonek" format="1">
  <advance width="1127"/>
  <unicode hex="0172"/>
  <outline>
    <contour>
      <point x="772.797" y="-8.57715" type="curve"/>
      <point x="666.445" y="-49.124"/>
      <point x="653.815" y="-122.49"/>
      <point x="691.87" y="-159.215" type="curve" smooth="yes"/>
      <point x="757.259" y="-221.946"/>
      <point x="861.118" y="-121.743"/>
      <point x="861.118" y="-121.743" type="curve"/>
      <point x="861.035" y="-225.188" type="line"/>
      <point x="861.035" y="-225.188"/>
      <point x="805.118" y="-309.521"/>
      <point x="704.332" y="-309.521" type="curve" smooth="yes"/>
      <point x="537.078" y="-309.521"/>
      <point x="523.451" y="-124.983"/>
      <point x="611.108" y="-35.6641" type="curve"/>
      <point x="515.725" y="-35.6641"/>
      <point x="105.604" y="-52.3652"/>
      <point x="105.604" y="388" type="curve" smooth="yes"/>
      <point x="105.604" y="1100.23" type="line"/>
      <point x="0" y="1100.23" type="line"/>
      <point x="0" y="1289.39" type="line"/>
      <point x="488.389" y="1289.48" type="line"/>
      <point x="488.389" y="375.868" type="line" smooth="yes"/>
      <point x="488.389" y="222.322"/>
      <point x="568.402" y="157.847"/>
      <point x="667.11" y="157.847" type="curve" smooth="yes"/>
      <point x="765.818" y="157.847"/>
      <point x="845.757" y="214.43"/>
      <point x="845.831" y="376.949" type="curve" smooth="yes"/>
      <point x="846.246" y="1289.48" type="line"/>
      <point x="1045.74" y="1289.48" type="line"/>
      <point x="1047.07" y="390.824" type="line" smooth="yes"/>
      <point x="1047.38" y="182.44"/>
      <point x="938.391" y="46.2598"/>
    </contour>
  </outline>
</glyph>
<glyph name="uogonek" format="1">
  <advance width="1122"/>
  <unicode hex="0173"/>
  <outline>
    <contour>
      <point x="661.372" y="986.655" type="line"/>
      <point x="1031.26" y="986.655" type="line"/>
      <point x="1032.09" y="0" type="line"/>
      <point x="947.048" y="0" type="line"/>
      <point x="810.753" y="0" type="line"/>
      <point x="691.048" y="-74"/>
      <point x="689.048" y="-296.893"/>
      <point x="874.048" y="-296.893" type="curve" smooth="yes"/>
      <point x="974.999" y="-296.893"/>
      <point x="1031" y="-212.393"/>
      <point x="1031" y="-212.393" type="curve"/>
      <point x="1031.08" y="-108.782" type="line"/>
      <point x="1031.08" y="-108.782"/>
      <point x="923.651" y="-212.559"/>
      <point x="861.585" y="-146.338" type="curve" smooth="yes"/>
      <point x="827.013" y="-109.451"/>
      <point x="829.048" y="0"/>
      <point x="947.048" y="0" type="curve" smooth="yes"/>
      <point x="810.753" y="0" type="line"/>
      <point x="661.648" y="0" type="line"/>
      <point x="661.372" y="99.7461" type="line"/>
      <point x="661.372" y="99.7461"/>
      <point x="590.441" y="-22.4434"/>
      <point x="426.968" y="-22.4434" type="curve" smooth="yes"/>
      <point x="201.154" y="-22.4434"/>
      <point x="104.733" y="97.8066"/>
      <point x="104.733" y="379.035" type="curve" smooth="yes"/>
      <point x="105.01" y="815.978" type="line"/>
      <point x="0" y="815.978" type="line"/>
      <point x="0" y="986.933" type="line"/>
      <point x="473.793" y="986.933" type="line"/>
      <point x="473.793" y="320.296" type="line" smooth="yes"/>
      <point x="473.793" y="246.041"/>
      <point x="531.979" y="187.854"/>
      <point x="606.511" y="187.854" type="curve" smooth="yes"/>
      <point x="661.372" y="187.024" type="line"/>
    </contour>
  </outline>
</glyph>
<glyph name="uni0180" format="1">
  <advance width="951"/>
  <unicode hex="0180"/>
  <outline>
    <contour>
      <point x="-44" y="1075" type="line"/>
      <point x="-44" y="934" type="line"/>
      <point x="554" y="934" type="line"/>
      <point x="554" y="1075" type="line"/>
    </contour>
    <component base="b"/>
  </outline>
</glyph>
<glyph name="uni018F" format="1">
  <advance width="1113"/>
  <unicode hex="018F"/>
  <outline>
    <contour>
      <point x="689" y="705" type="line"/>
      <point x="17" y="705" type="line"/>
      <point x="17" y="546" type="line" smooth="yes"/>
      <point x="23" y="249"/>
      <point x="132" y="-23"/>
      <point x="543" y="-23" type="curve" smooth="yes"/>
      <point x="873" y="-23"/>
      <point x="1081" y="223"/>
      <point x="1081" y="654" type="curve" smooth="yes"/>
      <point x="1081" y="974"/>
      <point x="971" y="1310"/>
      <point x="502" y="1310" type="curve" smooth="yes"/>
      <point x="368" y="1310"/>
      <point x="185" y="1268"/>
      <point x="82" y="1124" type="curve"/>
      <point x="146" y="1024" type="line"/>
      <point x="221" y="1085"/>
      <point x="309" y="1099"/>
      <point x="434" y="1099" type="curve" smooth="yes"/>
      <point x="563" y="1098"/>
      <point x="689" y="1016"/>
      <point x="689" y="727" type="curve" smooth="yes"/>
    </contour>
    <contour>
      <point x="521" y="108" type="curve" smooth="yes"/>
      <point x="399" y="108"/>
      <point x="356" y="207"/>
      <point x="356" y="537" type="curve"/>
      <point x="689" y="567" type="line"/>
      <point x="689" y="337"/>
      <point x="699" y="108"/>
    </contour>
  </outline>
</glyph>
<glyph name="uni01CB" format="1">
  <advance width="1883"/>
  <unicode hex="01CB"/>
  <outline>
    <contour>
      <point x="1405" y="769" type="line"/>
      <point x="1319" y="811" type="line"/>
      <point x="1319" y="930" type="line"/>
      <point x="1589" y="987" type="line"/>
      <point x="1773" y="987" type="line"/>
      <point x="1773" y="130" type="line" smooth="yes"/>
      <point x="1773" y="-185"/>
      <point x="1653" y="-377"/>
      <point x="1383" y="-377" type="curve" smooth="yes"/>
      <point x="1268" y="-377"/>
      <point x="1171" y="-327"/>
      <point x="1101" y="-227" type="curve"/>
      <point x="1162" y="-109" type="line"/>
      <point x="1197" y="-150"/>
      <point x="1247" y="-174"/>
      <point x="1298" y="-174" type="curve" smooth="yes"/>
      <point x="1364" y="-174"/>
      <point x="1403" y="-90"/>
      <point x="1404" y="51" type="curve" smooth="yes"/>
    </contour>
    <contour>
      <point x="1594" y="1496" type="line"/>
      <point x="1418" y="1311" type="line"/>
      <point x="1418" y="1259" type="line"/>
      <point x="1594" y="1069" type="line"/>
      <point x="1640" y="1069" type="line"/>
      <point x="1826" y="1259" type="line"/>
      <point x="1826" y="1313" type="line"/>
      <point x="1640" y="1496" type="line"/>
    </contour>
    <component base="N"/>
  </outline>
</glyph>
<glyph name="dotlessj" format="1">
  <advance width="637"/>
  <unicode hex="0237"/>
  <outline>
    <contour>
      <point x="158" y="51" type="line" smooth="yes"/>
      <point x="157" y="-90"/>
      <point x="118" y="-174"/>
      <point x="52" y="-174" type="curve" smooth="yes"/>
      <point x="1" y="-174"/>
      <point x="-49" y="-150"/>
      <point x="-84" y="-109" type="curve"/>
      <point x="-145" y="-227" type="line"/>
      <point x="-75" y="-327"/>
      <point x="22" y="-377"/>
      <point x="137" y="-377" type="curve" smooth="yes"/>
      <point x="407" y="-377"/>
      <point x="527" y="-185"/>
      <point x="527" y="130" type="curve" smooth="yes"/>
      <point x="527" y="987" type="line"/>
      <point x="343" y="987" type="line"/>
      <point x="73" y="930" type="line"/>
      <point x="73" y="811" type="line"/>
      <point x="159" y="769" type="line"/>
    </contour>
    <contour>
      <point x="191" y="500" type="move" name="top"/>
    </contour>
    <contour>
      <point x="191" y="-100" type="move" name="btm"/>
    </contour>
  </outline>
</glyph>
<glyph name="uni0243" format="1">
  <advance width="981"/>
  <unicode hex="0243"/>
  <outline>
    <contour>
      <point x="-111" y="423" type="line"/>
      <point x="-111" y="282" type="line"/>
      <point x="487" y="282" type="line"/>
      <point x="487" y="423" type="line"/>
    </contour>
    <component base="B"/>
  </outline>
</glyph>
<glyph name="uni02BB" format="1">
  <advance width="473"/>
  <unicode hex="02BB"/>
  <outline>
    <contour>
      <point x="259" y="1280" type="line"/>
      <point x="423" y="1444" type="line"/>
      <point x="423" y="1479" type="line"/>
      <point x="282" y="1621" type="line"/>
      <point x="301" y="1720"/>
      <point x="366" y="1795"/>
      <point x="397" y="1822" type="curve"/>
      <point x="259" y="1873" type="line"/>
      <point x="113" y="1747"/>
      <point x="50" y="1579"/>
      <point x="50" y="1479" type="curve" smooth="yes"/>
      <point x="50" y="1444" type="line"/>
      <point x="221" y="1280" type="line"/>
    </contour>
  </outline>
</glyph>
<glyph name="uni02BC" format="1">
  <advance width="473"/>
  <unicode hex="02BC"/>
  <outline>
    <contour>
      <point x="214" y="1873" type="line"/>
      <point x="50" y="1709" type="line"/>
      <point x="50" y="1674" type="line"/>
      <point x="191" y="1532" type="line"/>
      <point x="172" y="1433"/>
      <point x="107" y="1358"/>
      <point x="76" y="1331" type="curve"/>
      <point x="214" y="1280" type="line"/>
      <point x="360" y="1406"/>
      <point x="423" y="1574"/>
      <point x="423" y="1674" type="curve" smooth="yes"/>
      <point x="423" y="1709" type="line"/>
      <point x="252" y="1873" type="line"/>
    </contour>
  </outline>
</glyph>
<glyph name="uni02BE" format="1">
  <advance width="0"/>
  <unicode hex="02BE"/>
  <outline>
    <contour>
      <point x="74.3525" y="1245.44" type="curve"/>
      <point x="74.3525" y="1383.32" type="line"/>
      <point x="74.3525" y="1383.32"/>
      <point x="373" y="1398.79"/>
      <point x="373" y="1137" type="curve" smooth="yes"/>
      <point x="373" y="868.394"/>
      <point x="74.3525" y="890.847"/>
      <point x="74.3525" y="890.847" type="curve"/>
      <point x="74.3525" y="1029.72" type="line"/>
      <point x="74.3525" y="1029.72"/>
      <point x="199.758" y="1014.34"/>
      <point x="199.758" y="1137.08" type="curve" smooth="yes"/>
      <point x="199.758" y="1261.07"/>
      <point x="74.3525" y="1245.44"/>
    </contour>
  </outline>
</glyph>
<glyph name="caron" format="1">
  <advance width="642"/>
  <unicode hex="02C7"/>
  <outline>
    <contour>
      <point x="398" y="966" type="line"/>
      <point x="592" y="1296" type="line"/>
      <point x="409" y="1296" type="line"/>
      <point x="321" y="1150" type="line"/>
      <point x="233" y="1296" type="line"/>
      <point x="50" y="1296" type="line"/>
      <point x="244" y="966" type="line"/>
    </contour>
  </outline>
</glyph>
<glyph name="dotaccent" format="1">
  <advance width="473"/>
  <unicode hex="02D9"/>
  <outline>
    <contour>
      <point x="214" y="1306" type="line"/>
      <point x="50" y="1142" type="line"/>
      <point x="50" y="1107" type="line"/>
      <point x="214" y="942" type="line"/>
      <point x="252" y="942" type="line"/>
      <point x="423" y="1107" type="line"/>
      <point x="423" y="1142" type="line"/>
      <point x="252" y="1306" type="line"/>
    </contour>
  </outline>
</glyph>
<glyph name="ring" format="1">
  <advance width="536"/>
  <unicode hex="02DA"/>
  <outline>
    <contour>
      <point x="486" y="1203" type="curve" smooth="yes"/>
      <point x="486" y="1323"/>
      <point x="388" y="1421"/>
      <point x="268" y="1421" type="curve" smooth="yes"/>
      <point x="148" y="1421"/>
      <point x="50" y="1323"/>
      <point x="50" y="1203" type="curve" smooth="yes"/>
      <point x="50" y="1083"/>
      <point x="150" y="986"/>
      <point x="268" y="986" type="curve" smooth="yes"/>
      <point x="386" y="986"/>
      <point x="486" y="1083"/>
    </contour>
    <contour>
      <point x="382" y="1203" type="curve" smooth="yes"/>
      <point x="382" y="1142"/>
      <point x="333" y="1089"/>
      <point x="268" y="1089" type="curve" smooth="yes"/>
      <point x="205" y="1089"/>
      <point x="154" y="1140"/>
      <point x="154" y="1203" type="curve" smooth="yes"/>
      <point x="154" y="1264"/>
      <point x="204" y="1319"/>
      <point x="268" y="1319" type="curve" smooth="yes"/>
      <point x="329" y="1319"/>
      <point x="382" y="1264"/>
    </contour>
  </outline>
</glyph>
<glyph name="gravecomb" format="1">
  <advance width="573"/>
  <unicode hex="0300"/>
  <outline>
    <contour>
      <point x="296.104" y="1414.28" type="line"/>
      <point x="446" y="1086.5" type="line"/>
      <point x="311.896" y="1086.5" type="line"/>
      <point x="72.7822" y="1415.94" type="line"/>
    </contour>
  </outline>
</glyph>
<glyph name="uni0300" format="1">
  <advance width="702"/>
  <unicode hex="0300"/>
  <outline>
    <contour>
      <point x="454" y="1089" type="line"/>
      <point x="303" y="1458" type="line"/>
      <point x="-20" y="1458" type="line"/>
      <point x="220" y="1089" type="line"/>
    </contour>
  </outline>
</glyph>
<glyph name="uni0301" format="1">
  <unicode hex="0301"/>
  <outline>
    <contour>
      <point x="57" y="1296" type="line"/>
      <point x="-83" y="966" type="line"/>
      <point x="81" y="966" type="line"/>
      <point x="320" y="1296" type="line"/>
    </contour>
  </outline>
</glyph>
<glyph name="uni0302" format="1">
  <advance width="0"/>
  <unicode hex="0302"/>
  <outline>
    <contour>
      <point x="-632" y="1458" type="line"/>
      <point x="-852" y="1089" type="line"/>
      <point x="-589" y="1089" type="line"/>
      <point x="-501" y="1275" type="line"/>
      <point x="-413" y="1089" type="line"/>
      <point x="-150" y="1089" type="line"/>
      <point x="-378" y="1458" type="line"/>
    </contour>
    <contour>
      <point x="-501" y="500" type="move" name="_top"/>
    </contour>
  </outline>
</glyph>
<glyph name="tildecomb" format="1">
  <unicode hex="0303"/>
  <outline>
    <contour>
      <point x="159" y="1260" type="line"/>
      <point x="159" y="1237"/>
      <point x="148" y="1208"/>
      <point x="117" y="1208" type="curve" smooth="yes"/>
      <point x="66" y="1208"/>
      <point x="-14" y="1276"/>
      <point x="-90" y="1276" type="curve" smooth="yes"/>
      <point x="-181" y="1276"/>
      <point x="-268" y="1221"/>
      <point x="-268" y="1064" type="curve" smooth="yes"/>
      <point x="-268" y="1026" type="line"/>
      <point x="-157" y="1026" type="line"/>
      <point x="-157" y="1042" type="line" smooth="yes"/>
      <point x="-157" y="1065"/>
      <point x="-143" y="1096"/>
      <point x="-115" y="1096" type="curve" smooth="yes"/>
      <point x="-65" y="1096"/>
      <point x="24" y="1026"/>
      <point x="92" y="1026" type="curve" smooth="yes"/>
      <point x="182" y="1026"/>
      <point x="269" y="1066"/>
      <point x="269" y="1198" type="curve" smooth="yes"/>
      <point x="269" y="1276" type="line"/>
      <point x="159" y="1276" type="line"/>
    </contour>
  </outline>
</glyph>
<glyph name="uni0305" format="1">
  <advance width="1321"/>
  <unicode hex="0305"/>
  <outline>
    <contour>
      <point x="1181" y="1425" type="line"/>
      <point x="1181" y="1628" type="line"/>
      <point x="140" y="1628" type="line"/>
      <point x="140" y="1425" type="line"/>
    </contour>
  </outline>
</glyph>
<glyph name="uni0306" format="1">
  <unicode hex="0306"/>
  <outline>
    <contour>
      <point x="1" y="986" type="curve" smooth="yes"/>
      <point x="209" y="986"/>
      <point x="271" y="1174"/>
      <point x="268" y="1261" type="curve" smooth="yes"/>
      <point x="267" y="1295" type="line"/>
      <point x="128" y="1295" type="line"/>
      <point x="128" y="1295"/>
      <point x="129" y="1289"/>
      <point x="129" y="1281" type="curve" smooth="yes"/>
      <point x="129" y="1248"/>
      <point x="99" y="1190"/>
      <point x="1" y="1190" type="curve" smooth="yes"/>
      <point x="-97" y="1190"/>
      <point x="-127" y="1248"/>
      <point x="-127" y="1281" type="curve" smooth="yes"/>
      <point x="-127" y="1289"/>
      <point x="-126" y="1295"/>
      <point x="-126" y="1295" type="curve"/>
      <point x="-265" y="1295" type="line"/>
      <point x="-266" y="1261" type="line" smooth="yes"/>
      <point x="-269" y="1174"/>
      <point x="-207" y="986"/>
    </contour>
  </outline>
</glyph>
<glyph name="uni0307" format="1">
  <advance width="0"/>
  <unicode hex="0307"/>
  <outline>
    <contour>
      <point x="-367" y="1086.5" type="curve" smooth="yes"/>
      <point x="-439.038" y="1086.5"/>
      <point x="-497.501" y="1144.96"/>
      <point x="-497.501" y="1217" type="curve" smooth="yes"/>
      <point x="-497.501" y="1288.76"/>
      <point x="-439.038" y="1347.5"/>
      <point x="-367" y="1347.5" type="curve" smooth="yes"/>
      <point x="-294.962" y="1347.5"/>
      <point x="-236.499" y="1289.04"/>
      <point x="-236.499" y="1217" type="curve" smooth="yes"/>
      <point x="-236.499" y="1144.96"/>
      <point x="-294.962" y="1086.5"/>
    </contour>
  </outline>
</glyph>
<glyph name="uni0308" format="1">
  <unicode hex="0308"/>
  <outline>
    <contour>
      <point x="-212" y="1300" type="line"/>
      <point x="-358" y="1154" type="line"/>
      <point x="-358" y="1123" type="line"/>
      <point x="-212" y="977" type="line"/>
      <point x="-179" y="977" type="line"/>
      <point x="-27" y="1123" type="line"/>
      <point x="-27" y="1154" type="line"/>
      <point x="-179" y="1300" type="line"/>
    </contour>
    <contour>
      <point x="173" y="1300" type="line"/>
      <point x="27" y="1154" type="line"/>
      <point x="27" y="1123" type="line"/>
      <point x="173" y="977" type="line"/>
      <point x="207" y="977" type="line"/>
      <point x="359" y="1123" type="line"/>
      <point x="359" y="1154" type="line"/>
      <point x="207" y="1300" type="line"/>
    </contour>
  </outline>
</glyph>
<glyph name="uni0309" format="1">
  <unicode hex="0309"/>
  <outline>
    <contour>
      <point x="-145" y="976" type="line"/>
      <point x="130" y="976"/>
      <point x="275" y="1048"/>
      <point x="275" y="1238" type="curve" smooth="yes"/>
      <point x="275" y="1422"/>
      <point x="124" y="1548"/>
      <point x="-116" y="1548" type="curve" smooth="yes"/>
      <point x="-155" y="1548"/>
      <point x="-200" y="1546"/>
      <point x="-242" y="1540" type="curve"/>
      <point x="-242" y="1441" type="line"/>
      <point x="-98" y="1417"/>
      <point x="60" y="1359"/>
      <point x="60" y="1236" type="curve" smooth="yes"/>
      <point x="60" y="1149"/>
      <point x="-16" y="1099"/>
      <point x="-142" y="1099" type="curve" smooth="yes"/>
      <point x="-161" y="1099"/>
      <point x="-184" y="1099"/>
      <point x="-205" y="1102" type="curve"/>
    </contour>
  </outline>
</glyph>
<glyph name="uni030A" format="1">
  <advance width="0"/>
  <unicode hex="030A"/>
  <outline>
    <contour>
      <point x="-221" y="1413.45" type="curve" smooth="yes"/>
      <point x="-130.934" y="1413.45"/>
      <point x="-57.5674" y="1340.17"/>
      <point x="-57.5674" y="1249.93" type="curve" smooth="yes"/>
      <point x="-57.5674" y="1159.87"/>
      <point x="-130.852" y="1086.5"/>
      <point x="-221" y="1086.5" type="curve" smooth="yes"/>
      <point x="-311.233" y="1086.5"/>
      <point x="-384.518" y="1159.78"/>
      <point x="-384.518" y="1249.93" type="curve" smooth="yes"/>
      <point x="-384.518" y="1340.08"/>
      <point x="-311.15" y="1413.45"/>
    </contour>
    <contour>
      <point x="-134.808" y="1249.93" type="curve" smooth="yes"/>
      <point x="-134.808" y="1297.51"/>
      <point x="-173.506" y="1336.11"/>
      <point x="-220.993" y="1336.11" type="curve" smooth="yes"/>
      <point x="-268.578" y="1336.11"/>
      <point x="-307.277" y="1297.51"/>
      <point x="-307.277" y="1249.93" type="curve" smooth="yes"/>
      <point x="-307.277" y="1202.44"/>
      <point x="-268.578" y="1163.84"/>
      <point x="-220.993" y="1163.84" type="curve" smooth="yes"/>
      <point x="-173.506" y="1163.84"/>
      <point x="-134.808" y="1202.44"/>
    </contour>
  </outline>
</glyph>
<glyph name="uni030B" format="1">
  <advance width="702"/>
  <unicode hex="030B"/>
  <outline>
    <contour>
      <point x="279" y="1458" type="line"/>
      <point x="99" y="1089" type="line"/>
      <point x="332" y="1089" type="line"/>
      <point x="573" y="1458" type="line"/>
    </contour>
    <contour>
      <point x="730" y="1458" type="line"/>
      <point x="550" y="1089" type="line"/>
      <point x="783" y="1089" type="line"/>
      <point x="1034" y="1458" type="line"/>
    </contour>
    <contour>
      <point x="351" y="500" type="move" name="_top"/>
    </contour>
  </outline>
</glyph>
<glyph name="uni030C" format="1">
  <unicode hex="030C"/>
  <outline>
    <contour>
      <point x="77" y="966" type="line"/>
      <point x="271" y="1296" type="line"/>
      <point x="88" y="1296" type="line"/>
      <point x="0" y="1150" type="line"/>
      <point x="-88" y="1296" type="line"/>
      <point x="-271" y="1296" type="line"/>
      <point x="-77" y="966" type="line"/>
    </contour>
  </outline>
</glyph>
<glyph name="uni030F" format="1">
  <unicode hex="030F"/>
  <outline>
    <contour>
      <point x="-177" y="1294" type="line"/>
      <point x="-400" y="1294" type="line"/>
      <point x="-161" y="966" type="line"/>
      <point x="-27" y="966" type="line"/>
    </contour>
    <contour>
      <point x="111" y="1294" type="line"/>
      <point x="-112" y="1294" type="line"/>
      <point x="87" y="966" type="line"/>
      <point x="221" y="966" type="line"/>
    </contour>
  </outline>
</glyph>
<glyph name="uni0312" format="1">
  <unicode hex="0312"/>
  <outline>
    <contour>
      <point x="5" y="933" type="line"/>
      <point x="169" y="1097" type="line"/>
      <point x="169" y="1132" type="line"/>
      <point x="28" y="1274" type="line"/>
      <point x="47" y="1373"/>
      <point x="112" y="1448"/>
      <point x="143" y="1475" type="curve"/>
      <point x="5" y="1526" type="line"/>
      <point x="-141" y="1400"/>
      <point x="-204" y="1232"/>
      <point x="-204" y="1132" type="curve" smooth="yes"/>
      <point x="-204" y="1097" type="line"/>
      <point x="-33" y="933" type="line"/>
    </contour>
  </outline>
</glyph>
<glyph name="uni0313" format="1">
  <unicode hex="0313"/>
  <outline>
    <contour>
      <point x="-40" y="1873" type="line"/>
      <point x="-204" y="1709" type="line"/>
      <point x="-204" y="1674" type="line"/>
      <point x="-63" y="1532" type="line"/>
      <point x="-82" y="1433"/>
      <point x="-147" y="1358"/>
      <point x="-178" y="1331" type="curve"/>
      <point x="-40" y="1280" type="line"/>
      <point x="106" y="1406"/>
      <point x="169" y="1574"/>
      <point x="169" y="1674" type="curve" smooth="yes"/>
      <point x="169" y="1709" type="line"/>
      <point x="-2" y="1873" type="line"/>
    </contour>
  </outline>
</glyph>
<glyph name="uni0325" format="1">
  <unicode hex="0325"/>
  <outline>
    <contour>
      <point x="218" y="-406" type="curve" smooth="yes"/>
      <point x="218" y="-286"/>
      <point x="120" y="-188"/>
      <point x="0" y="-188" type="curve" smooth="yes"/>
      <point x="-120" y="-188"/>
      <point x="-218" y="-286"/>
      <point x="-218" y="-406" type="curve" smooth="yes"/>
      <point x="-218" y="-526"/>
      <point x="-118" y="-623"/>
      <point x="0" y="-623" type="curve" smooth="yes"/>
      <point x="118" y="-623"/>
      <point x="218" y="-526"/>
    </contour>
    <contour>
      <point x="114" y="-406" type="curve" smooth="yes"/>
      <point x="114" y="-467"/>
      <point x="65" y="-520"/>
      <point x="0" y="-520" type="curve" smooth="yes"/>
      <point x="-63" y="-520"/>
      <point x="-114" y="-469"/>
      <point x="-114" y="-406" type="curve" smooth="yes"/>
      <point x="-114" y="-345"/>
      <point x="-64" y="-290"/>
      <point x="0" y="-290" type="curve" smooth="yes"/>
      <point x="61" y="-290"/>
      <point x="114" y="-345"/>
    </contour>
  </outline>
</glyph>
<glyph name="uni0326" format="1">
  <advance width="555"/>
  <unicode hex="0326"/>
  <outline>
    <contour>
      <point x="-612.135" y="-265.135" type="curve" smooth="yes"/>
      <point x="-612.135" y="-173.979"/>
      <point x="-538.156" y="-100"/>
      <point x="-447" y="-100" type="curve" smooth="yes"/>
      <point x="-355.844" y="-100"/>
      <point x="-284.636" y="-174.256"/>
      <point x="-277.432" y="-265.135" type="curve" smooth="yes"/>
      <point x="-266.625" y="-405.611"/>
      <point x="-372.745" y="-493.167"/>
      <point x="-419.016" y="-535.28" type="curve"/>
      <point x="-585.259" y="-535.28" type="line"/>
      <point x="-548.963" y="-511.729"/>
      <point x="-491.054" y="-470.446"/>
      <point x="-465.286" y="-428.608" type="curve"/>
      <point x="-547.577" y="-419.465"/>
      <point x="-612.135" y="-350.196"/>
    </contour>
  </outline>
</glyph>
<glyph name="uni0327" format="1">
  <advance width="0"/>
  <unicode hex="0327"/>
  <outline>
    <contour>
      <point x="-450.754" y="-87.1982" type="line"/>
      <point x="-402.188" y="-113.644"/>
      <point x="-373.747" y="-154.891"/>
      <point x="-373.664" y="-199.879" type="curve" smooth="yes"/>
      <point x="-373.664" y="-279.63"/>
      <point x="-460.816" y="-342"/>
      <point x="-572" y="-342" type="curve" smooth="yes"/>
      <point x="-647.593" y="-342"/>
      <point x="-697.737" y="-310.981"/>
      <point x="-697.737" y="-310.981" type="curve"/>
      <point x="-662.895" y="-239.631" type="line"/>
      <point x="-662.895" y="-239.631"/>
      <point x="-633.871" y="-248.777"/>
      <point x="-607.426" y="-249.027" type="curve" smooth="yes"/>
      <point x="-551.709" y="-249.526"/>
      <point x="-510.046" y="-223.081"/>
      <point x="-510.046" y="-199.879" type="curve" smooth="yes"/>
      <point x="-510.046" y="-147.072"/>
      <point x="-619.567" y="-150.316"/>
      <point x="-619.567" y="-150.316" type="curve"/>
      <point x="-504.429" y="83.6689" type="line"/>
      <point x="-327" y="85" type="line"/>
    </contour>
  </outline>
</glyph>
